<?xml version="1.0" standalone="no"?>
<!DOCTYPE svg PUBLIC "-//W3C//DTD SVG 1.1//EN" "http://www.w3.org/Graphics/SVG/1.1/DTD/svg11.dtd" >
<svg>
<metadata>
Created by FontForge 20090622 at Tue Dec 19 05:03:04 2017
 By ffonts
Copyright 2016 Aoife Mooney (aoifemooney@gmail.com www.aoifemooney.org)
</metadata>
<defs>
<font id="BioRhymeExpanded-Regular" horiz-adv-x="1249" >
  <font-face 
    font-family="BioRhyme Expanded"
    font-weight="400"
    font-stretch="expanded"
    units-per-em="1000"
    panose-1="0 0 5 5 0 0 0 0 0 0"
    ascent="800"
    descent="-200"
    x-height="471"
    cap-height="686"
    bbox="-144 -398 2153 1120"
    underline-thickness="50"
    underline-position="-50"
    unicode-range="U+000D-U+1F632"
  />
<missing-glyph horiz-adv-x="543" 
 />
    <glyph glyph-name="fi" unicode="fi" horiz-adv-x="1377" 
d="M359 503v-32h269v-79h-269v-313h243v-79h-530v79h189v313h-189v79h189v28q0 113 61 173.5t179 60.5q124 0 274 -63l-32 -78q-55 25 -116 40t-117 15q-151 0 -151 -144zM1006.5 595q-24.5 17 -24.5 43q0 27 24.5 44.5t63.5 17.5q40 0 63.5 -17t23.5 -45q0 -27 -23 -43.5
t-64 -16.5q-39 0 -63.5 17zM1333 79v-79h-511v79h210v313h-210v79h308v-392h203z" />
    <glyph glyph-name="fl" unicode="fl" horiz-adv-x="1353" 
d="M359 503v-32h269v-79h-269v-313h243v-79h-530v79h189v313h-189v79h189v28q0 113 61 173.5t179 60.5q124 0 274 -63l-32 -78q-55 25 -116 40t-117 15q-151 0 -151 -144zM1309 79v-79h-510v79h209v528h-209v79h307v-607h203z" />
    <glyph glyph-name=".notdef" horiz-adv-x="543" 
 />
    <glyph glyph-name="A" unicode="A" horiz-adv-x="1337" 
d="M1346 83v-83h-473v83h162l-113 161h-505l-113 -161h162v-83h-474v83h197l382 521h-170v82h535v-82h-169l382 -521h197zM870 319l-199 285h-3l-199 -285h401z" />
    <glyph glyph-name="A.alt" horiz-adv-x="1352" 
d="M1357 83v-83h-462v83h142l-103 143h-517l-104 -143h143v-83h-462v83h206l453 617h51l451 -617h202zM879 302l-204 282l-203 -282h407z" />
    <glyph glyph-name="Aacute" unicode="&#xc1;" horiz-adv-x="1337" 
d="M1346 83v-83h-473v83h162l-113 161h-505l-113 -161h162v-83h-474v83h197l382 521h-170v82h535v-82h-169l382 -521h197zM870 319l-199 285h-3l-199 -285h401zM584 758l322 166l-48 77l-303 -201z" />
    <glyph glyph-name="Aacute.alt" horiz-adv-x="1352" 
d="M1357 83v-83h-462v83h142l-103 143h-517l-104 -143h143v-83h-462v83h206l453 617h51l451 -617h202zM879 302l-204 282l-203 -282h407zM589 763l322 166l-48 77l-303 -201z" />
    <glyph glyph-name="Abreve" unicode="&#x102;" horiz-adv-x="1337" 
d="M1346 83v-83h-473v83h162l-113 161h-505l-113 -161h162v-83h-474v83h197l382 521h-170v82h535v-82h-169l382 -521h197zM870 319l-199 285h-3l-199 -285h401zM560 814q-50 27 -81.5 70.5t-39.5 91.5l61 12q16 -52 64.5 -85.5t105.5 -33.5q56 0 104 33.5t64 85.5l61 -12
q-8 -48 -39.5 -91.5t-81 -70.5t-109.5 -27q-59 0 -109 27z" />
    <glyph glyph-name="Abreve.alt" horiz-adv-x="1352" 
d="M1357 83v-83h-462v83h142l-103 143h-517l-104 -143h143v-83h-462v83h206l453 617h51l451 -617h202zM879 302l-204 282l-203 -282h407zM565 819q-50 27 -81.5 70.5t-39.5 91.5l61 12q16 -52 64.5 -85.5t105.5 -33.5q56 0 104 33.5t64 85.5l61 -12q-8 -48 -39.5 -91.5
t-81 -70.5t-109.5 -27q-59 0 -109 27z" />
    <glyph glyph-name="Acircumflex" unicode="&#xc2;" horiz-adv-x="1337" 
d="M1346 83v-83h-473v83h162l-113 161h-505l-113 -161h162v-83h-474v83h197l382 521h-170v82h535v-82h-169l382 -521h197zM870 319l-199 285h-3l-199 -285h401zM439 789l201 162h59l202 -162l-21 -32l-211 125l-209 -125z" />
    <glyph glyph-name="Acircumflex.alt" horiz-adv-x="1352" 
d="M1357 83v-83h-462v83h142l-103 143h-517l-104 -143h143v-83h-462v83h206l453 617h51l451 -617h202zM879 302l-204 282l-203 -282h407zM444 794l201 162h59l202 -162l-21 -32l-211 125l-209 -125z" />
    <glyph glyph-name="uni1EA8" unicode="&#x1ea8;" horiz-adv-x="1337" 
d="M1346 83v-83h-473v83h162l-113 161h-505l-113 -161h162v-83h-474v83h197l382 521h-170v82h535v-82h-169l382 -521h197zM870 319l-199 285h-3l-199 -285h401zM439 789l201 162h59l202 -162l-21 -32l-211 125l-209 -125zM872 921q11 17 17 32t6 30q0 23 -20.5 38.5
t-56.5 15.5q-55 0 -114 -36l-21 55q67 42 146 42q57 0 93 -26t36 -69q0 -33 -17 -62t-49 -61l-36 16z" />
    <glyph glyph-name="uni1EA8.alt" horiz-adv-x="1352" 
d="M1357 83v-83h-462v83h142l-103 143h-517l-104 -143h143v-83h-462v83h206l453 617h51l451 -617h202zM879 302l-204 282l-203 -282h407zM444 794l201 162h59l202 -162l-21 -32l-211 125l-209 -125zM872 943q11 17 17 32t6 30q0 23 -20.5 38.5t-56.5 15.5q-55 0 -114 -36
l-21 55q67 42 146 42q57 0 93 -26t36 -69q0 -33 -17 -62t-49 -61l-36 16z" />
    <glyph glyph-name="Adieresis" unicode="&#xc4;" horiz-adv-x="1337" 
d="M1346 83v-83h-473v83h162l-113 161h-505l-113 -161h162v-83h-474v83h197l382 521h-170v82h535v-82h-169l382 -521h197zM870 319l-199 285h-3l-199 -285h401zM457 828q-21 16 -21 39q0 24 20.5 39t54.5 15t54.5 -15t20.5 -39q0 -23 -20.5 -39t-54.5 -16q-33 0 -54 16z
M768.5 828q-21.5 16 -21.5 39q0 24 21 39t55 15q35 0 54.5 -15t19.5 -39q0 -23 -20 -39t-54 -16q-33 0 -54.5 16z" />
    <glyph glyph-name="Adieresis.alt" horiz-adv-x="1352" 
d="M1357 83v-83h-462v83h142l-103 143h-517l-104 -143h143v-83h-462v83h206l453 617h51l451 -617h202zM879 302l-204 282l-203 -282h407zM462 833q-21 16 -21 39q0 24 20.5 39t54.5 15t54.5 -15t20.5 -39q0 -23 -20.5 -39t-54.5 -16q-33 0 -54 16zM773.5 833
q-21.5 16 -21.5 39q0 24 21 39t55 15q35 0 54.5 -15t19.5 -39q0 -23 -20 -39t-54 -16q-33 0 -54.5 16z" />
    <glyph glyph-name="Agrave" unicode="&#xc0;" horiz-adv-x="1337" 
d="M1346 83v-83h-473v83h162l-113 161h-505l-113 -161h162v-83h-474v83h197l382 521h-170v82h535v-82h-169l382 -521h197zM870 319l-199 285h-3l-199 -285h401zM479 1001l-47 -77l322 -166l29 42z" />
    <glyph glyph-name="Agrave.alt" horiz-adv-x="1352" 
d="M1357 83v-83h-462v83h142l-103 143h-517l-104 -143h143v-83h-462v83h206l453 617h51l451 -617h202zM879 302l-204 282l-203 -282h407zM484 1006l-47 -77l322 -166l29 42z" />
    <glyph glyph-name="Amacron" unicode="&#x100;" horiz-adv-x="1337" 
d="M1346 83v-83h-473v83h162l-113 161h-505l-113 -161h162v-83h-474v83h197l382 521h-170v82h535v-82h-169l382 -521h197zM870 319l-199 285h-3l-199 -285h401zM962 821l-599 1v72l599 -2v-71z" />
    <glyph glyph-name="Amacron.alt" horiz-adv-x="1352" 
d="M1357 83v-83h-462v83h142l-103 143h-517l-104 -143h143v-83h-462v83h206l453 617h51l451 -617h202zM879 302l-204 282l-203 -282h407zM967 826l-599 1v72l599 -2v-71z" />
    <glyph glyph-name="Aogonek" unicode="&#x104;" horiz-adv-x="1337" 
d="M1497 -171q-79 -50 -169 -50q-66 0 -111.5 28t-45.5 77q0 38 21.5 67.5t58.5 48.5h-378v83h162l-113 161h-505l-113 -161h162v-83h-474v83h197l382 521h-170v82h535v-82h-169l382 -521h197v-83q-46 -13 -78.5 -39t-32.5 -61q0 -29 29 -44.5t71 -15.5q73 0 139 43z
M870 319l-199 285h-3l-199 -285h401z" />
    <glyph glyph-name="Aogonek.alt" horiz-adv-x="1352" 
d="M1509 -171q-79 -50 -169 -50q-66 0 -111.5 28t-45.5 77q0 38 21.5 67.5t58.5 48.5h-368v83h142l-103 143h-517l-104 -143h143v-83h-462v83h206l453 617h51l451 -617h202v-82l1 -1q-46 -13 -78.5 -39t-32.5 -61q0 -29 29 -44.5t71 -15.5q73 0 139 43zM879 302l-204 282
l-203 -282h407z" />
    <glyph glyph-name="Aring" unicode="&#xc5;" horiz-adv-x="1337" 
d="M1346 83v-83h-473v83h162l-113 161h-505l-113 -161h162v-83h-474v83h197l382 521h-170v82h535v-82h-169l382 -521h197zM870 319l-199 285h-3l-199 -285h401zM578.5 790.5q-41.5 18.5 -65.5 50t-24 70.5q0 41 24 72.5t65 49t91 17.5t91.5 -18t65.5 -50t24 -71
q0 -41 -24 -72.5t-65.5 -49t-91.5 -17.5q-49 0 -90.5 18.5zM757 849.5q35 24.5 35 61.5q0 36 -35 61t-88 25q-52 0 -87 -24.5t-35 -61.5q0 -35 35.5 -60.5t86.5 -25.5q53 0 88 24.5z" />
    <glyph glyph-name="Aring.alt" horiz-adv-x="1352" 
d="M1357 83v-83h-462v83h142l-103 143h-517l-104 -143h143v-83h-462v83h206l453 617h51l451 -617h202zM879 302l-204 282l-203 -282h407zM583.5 795.5q-41.5 18.5 -65.5 50t-24 70.5q0 41 24 72.5t65 49t91 17.5t91.5 -18t65.5 -50t24 -71q0 -41 -24 -72.5t-65.5 -49
t-91.5 -17.5q-49 0 -90.5 18.5zM762 854.5q35 24.5 35 61.5q0 36 -35 61t-88 25q-52 0 -87 -24.5t-35 -61.5q0 -35 35.5 -60.5t86.5 -25.5q53 0 88 24.5z" />
    <glyph glyph-name="Atilde" unicode="&#xc3;" horiz-adv-x="1337" 
d="M1346 83v-83h-473v83h162l-113 161h-505l-113 -161h162v-83h-474v83h197l382 521h-170v82h535v-82h-169l382 -521h197zM870 319l-199 285h-3l-199 -285h401zM719 801q-30 12 -73 36q-43 25 -69 37t-53 12q-34 0 -58 -25.5t-32 -75.5l-59 16q9 67 48.5 108t103.5 41
q38 0 69 -12.5t78 -37.5q36 -22 62 -33.5t51 -11.5q36 0 59 25.5t31 71.5l58 -15q-9 -66 -48.5 -107t-102.5 -41q-35 0 -65 12z" />
    <glyph glyph-name="Atilde.alt" horiz-adv-x="1352" 
d="M1357 83v-83h-462v83h142l-103 143h-517l-104 -143h143v-83h-462v83h206l453 617h51l451 -617h202zM879 302l-204 282l-203 -282h407zM724 806q-30 12 -73 36q-43 25 -69 37t-53 12q-34 0 -58 -25.5t-32 -75.5l-59 16q9 67 48.5 108t103.5 41q38 0 69 -12.5t78 -37.5
q36 -22 62 -33.5t51 -11.5q36 0 59 25.5t31 71.5l58 -15q-9 -66 -48.5 -107t-102.5 -41q-35 0 -65 12z" />
    <glyph glyph-name="AE" unicode="&#xc6;" horiz-adv-x="1804" 
d="M1585 413v191h-728l107 -213h283v125h85v-327h-85v125h-244l115 -231h467v193h93v-276h-877v83h213l-76 154h-498l-137 -154h161v-83h-470v83h189l475 521h-185v82h1205v-273h-93zM901 313l-140 284l-253 -284h393z" />
    <glyph glyph-name="B" unicode="B" horiz-adv-x="1268" 
d="M1168 187q0 -90 -67.5 -138.5t-194.5 -48.5h-839v83h221v520h-221v83h823q109 0 168.5 -49t59.5 -129q0 -53 -28 -92t-75 -61q153 -36 153 -168zM391 603v-219h475q70 0 109.5 27.5t39.5 84.5q0 55 -37 81t-93 26h-494zM1064 195q0 58 -44.5 85.5t-123.5 26.5l-505 1
v-225h505q168 0 168 112z" />
    <glyph glyph-name="C" unicode="C" horiz-adv-x="1169" 
d="M1079 182q-79 -84 -204.5 -139.5t-302.5 -55.5q-138 0 -250.5 42t-178 122.5t-65.5 190.5q0 111 66 192t177.5 123.5t246.5 42.5q126 0 231 -41t182 -116l-1 143h93v-248l-66 -12q-159 191 -439 191q-110 0 -197 -34.5t-136 -97t-49 -142.5q0 -82 51.5 -143.5
t139.5 -94.5t195 -33q157 0 270 51t186 130z" />
    <glyph glyph-name="Cacute" unicode="&#x106;" horiz-adv-x="1169" 
d="M1079 182q-79 -84 -204.5 -139.5t-302.5 -55.5q-138 0 -250.5 42t-178 122.5t-65.5 190.5q0 111 66 192t177.5 123.5t246.5 42.5q126 0 231 -41t182 -116l-1 143h93v-248l-66 -12q-159 191 -439 191q-110 0 -197 -34.5t-136 -97t-49 -142.5q0 -82 51.5 -143.5
t139.5 -94.5t195 -33q157 0 270 51t186 130zM491 772l322 166l-48 77l-303 -201z" />
    <glyph glyph-name="Ccaron" unicode="&#x10c;" horiz-adv-x="1169" 
d="M1079 182q-79 -84 -204.5 -139.5t-302.5 -55.5q-138 0 -250.5 42t-178 122.5t-65.5 190.5q0 111 66 192t177.5 123.5t246.5 42.5q126 0 231 -41t182 -116l-1 143h93v-248l-66 -12q-159 191 -439 191q-110 0 -197 -34.5t-136 -97t-49 -142.5q0 -82 51.5 -143.5
t139.5 -94.5t195 -33q157 0 270 51t186 130zM808 945l-202 -163h-59l-201 163l21 32l210 -125l210 125z" />
    <glyph glyph-name="Ccedilla" unicode="&#xc7;" horiz-adv-x="1169" 
d="M885.5 47.5q-118.5 -54.5 -283.5 -60.5l-26 -66q40 2 63 2q58 0 94 -23.5t36 -64.5q0 -44 -44 -70t-125 -26q-111 0 -193 41l24 51q33 -16 78 -26t94 -10q48 0 74 10.5t26 29.5t-21.5 29.5t-60.5 10.5q-35 0 -87 -4l-23 -1l-7 9l42 108q-132 4 -238.5 47t-168 122
t-61.5 186q0 111 66 192t177.5 123.5t246.5 42.5q126 0 231 -41t182 -116l-1 143h93v-248l-66 -12q-159 191 -439 191q-110 0 -197 -34.5t-136 -97t-49 -142.5q0 -82 51.5 -143.5t139.5 -94.5t195 -33q157 0 270 51t186 130l51 -71q-75 -80 -193.5 -134.5z" />
    <glyph glyph-name="Cdotaccent" unicode="&#x10a;" horiz-adv-x="1169" 
d="M1079 182q-79 -84 -204.5 -139.5t-302.5 -55.5q-138 0 -250.5 42t-178 122.5t-65.5 190.5q0 111 66 192t177.5 123.5t246.5 42.5q126 0 231 -41t182 -116l-1 143h93v-248l-66 -12q-159 191 -439 191q-110 0 -197 -34.5t-136 -97t-49 -142.5q0 -82 51.5 -143.5
t139.5 -94.5t195 -33q157 0 270 51t186 130zM513.5 825q-23.5 17 -23.5 43q0 27 23.5 44t63.5 17q41 0 64 -17t23 -44q0 -26 -23.5 -43t-63.5 -17t-63.5 17z" />
    <glyph glyph-name="D" unicode="D" horiz-adv-x="1286" 
d="M976.5 651q105.5 -35 168 -111.5t62.5 -196.5t-62.5 -196.5t-168 -111.5t-237.5 -35h-672v83h221v520h-221v83h672q132 0 237.5 -35zM997.5 140.5q102.5 57.5 102.5 202.5q0 260 -374 260h-335v-520h335q169 0 271.5 57.5z" />
    <glyph glyph-name="Eth" unicode="&#xd0;" horiz-adv-x="1277" 
d="M976.5 651q105.5 -35 168 -111.5t62.5 -196.5t-62.5 -196.5t-168 -111.5t-237.5 -35h-672v83h221v217h-234v84h234v219h-221v83h672q132 0 237.5 -35zM997.5 140.5q102.5 57.5 102.5 202.5q0 260 -374 260h-335v-219h401v-84h-401v-217h335q169 0 271.5 57.5z" />
    <glyph glyph-name="Dcaron" unicode="&#x10e;" horiz-adv-x="1286" 
d="M976.5 651q105.5 -35 168 -111.5t62.5 -196.5t-62.5 -196.5t-168 -111.5t-237.5 -35h-672v83h221v520h-221v83h672q132 0 237.5 -35zM997.5 140.5q102.5 57.5 102.5 202.5q0 260 -374 260h-335v-520h335q169 0 271.5 57.5zM875 931l-202 -163h-59l-201 163l21 32
l210 -125l210 125z" />
    <glyph glyph-name="Dcroat" unicode="&#x110;" horiz-adv-x="1277" 
d="M976.5 651q105.5 -35 168 -111.5t62.5 -196.5t-62.5 -196.5t-168 -111.5t-237.5 -35h-672v83h221v217h-234v84h234v219h-221v83h672q132 0 237.5 -35zM997.5 140.5q102.5 57.5 102.5 202.5q0 260 -374 260h-335v-219h401v-84h-401v-217h335q169 0 271.5 57.5z" />
    <glyph glyph-name="E" unicode="E" horiz-adv-x="1278" 
d="M1059 425v178h-669v-217h330v109h84v-298h-84v110h-330v-224h669v178h93v-261h-1085v83h221v520h-221v83h1085v-261h-93z" />
    <glyph glyph-name="Eacute" unicode="&#xc9;" horiz-adv-x="1278" 
d="M1059 425v178h-669v-217h330v109h84v-298h-84v110h-330v-224h669v178h93v-261h-1085v83h221v520h-221v83h1085v-261h-93zM622 758l322 166l-48 77l-303 -201z" />
    <glyph glyph-name="Ecaron" unicode="&#x11a;" horiz-adv-x="1278" 
d="M1059 425v178h-669v-217h330v109h84v-298h-84v110h-330v-224h669v178h93v-261h-1085v83h221v520h-221v83h1085v-261h-93zM939 931l-202 -163h-59l-201 163l21 32l210 -125l210 125z" />
    <glyph glyph-name="Ecircumflex" unicode="&#xca;" horiz-adv-x="1278" 
d="M1059 425v178h-669v-217h330v109h84v-298h-84v110h-330v-224h669v178h93v-261h-1085v83h221v520h-221v83h1085v-261h-93zM477 789l201 162h59l202 -162l-21 -32l-211 125l-209 -125z" />
    <glyph glyph-name="Edieresis" unicode="&#xcb;" horiz-adv-x="1278" 
d="M1059 425v178h-669v-217h330v109h84v-298h-84v110h-330v-224h669v178h93v-261h-1085v83h221v520h-221v83h1085v-261h-93zM495 828q-21 16 -21 39q0 24 20.5 39t54.5 15t54.5 -15t20.5 -39q0 -23 -20.5 -39t-54.5 -16q-33 0 -54 16zM806.5 828q-21.5 16 -21.5 39
q0 24 21 39t55 15q35 0 54.5 -15t19.5 -39q0 -23 -20 -39t-54 -16q-33 0 -54.5 16z" />
    <glyph glyph-name="Edotaccent" unicode="&#x116;" horiz-adv-x="1278" 
d="M1059 425v178h-669v-217h330v109h84v-298h-84v110h-330v-224h669v178h93v-261h-1085v83h221v520h-221v83h1085v-261h-93zM644.5 811q-23.5 17 -23.5 43q0 27 23.5 44t63.5 17q41 0 64 -17t23 -44q0 -26 -23.5 -43t-63.5 -17t-63.5 17z" />
    <glyph glyph-name="Egrave" unicode="&#xc8;" horiz-adv-x="1278" 
d="M1059 425v178h-669v-217h330v109h84v-298h-84v110h-330v-224h669v178h93v-261h-1085v83h221v520h-221v83h1085v-261h-93zM517 1001l-47 -77l322 -166l29 42z" />
    <glyph glyph-name="Emacron" unicode="&#x112;" horiz-adv-x="1278" 
d="M1059 425v178h-669v-217h330v109h84v-298h-84v110h-330v-224h669v178h93v-261h-1085v83h221v520h-221v83h1085v-261h-93zM1000 821l-599 1v72l599 -2v-71z" />
    <glyph glyph-name="Eogonek" unicode="&#x118;" horiz-adv-x="1278" 
d="M1303 -171q-79 -50 -169 -50q-66 0 -111.5 28t-45.5 77q0 38 21.5 67.5t58.5 48.5h-990v83h221v520h-221v83h1085v-261h-93v178h-669v-217h330v109h84v-298h-84v110h-330v-224h669v178h93v-261q-46 -13 -78.5 -39t-32.5 -61q0 -29 29 -44.5t71 -15.5q73 0 139 43z" />
    <glyph glyph-name="F" unicode="F" horiz-adv-x="1194" 
d="M1118 686v-261h-93v178h-635v-231h314v110h84v-300h-84v111h-314v-210h233v-83h-556v83h221v520h-221v83h1051z" />
    <glyph glyph-name="G" unicode="G" horiz-adv-x="1179" 
d="M380.5 584q-91.5 -33 -144.5 -95t-53 -147t52 -146.5t143 -93.5t206 -32q111 0 213 29.5t175 78.5v99h-388v79h487v-221q-94 -68 -221 -108t-270 -40q-142 0 -257 42.5t-181.5 123t-66.5 189.5q0 108 65 189.5t176 125t245 43.5q130 0 235 -39.5t183 -114.5v140h92v-238
l-64 -11q-162 180 -423 180q-112 0 -203.5 -33z" />
    <glyph glyph-name="G.alt" horiz-adv-x="1178" 
d="M1086 363v-26q0 -102 -61 -181.5t-175.5 -124t-269.5 -44.5q-142 0 -257 43t-181.5 123.5t-66.5 188.5t65 189.5t176 125t245 43.5q130 0 235 -39.5t183 -114.5v140h92v-238l-64 -11q-162 180 -423 180q-112 0 -203.5 -33t-144.5 -95t-53 -147q0 -83 52.5 -145
t143.5 -94.5t205 -32.5q115 0 202.5 29t137 77.5t57.5 103.5h-397v83h502z" />
    <glyph glyph-name="Gbreve" unicode="&#x11e;" horiz-adv-x="1179" 
d="M380.5 584q-91.5 -33 -144.5 -95t-53 -147t52 -146.5t143 -93.5t206 -32q111 0 213 29.5t175 78.5v99h-388v79h487v-221q-94 -68 -221 -108t-270 -40q-142 0 -257 42.5t-181.5 123t-66.5 189.5q0 108 65 189.5t176 125t245 43.5q130 0 235 -39.5t183 -114.5v140h92v-238
l-64 -11q-162 180 -423 180q-112 0 -203.5 -33zM455 828q-50 27 -81.5 70.5t-39.5 91.5l61 12q16 -52 64.5 -85.5t105.5 -33.5q56 0 104 33.5t64 85.5l61 -12q-8 -48 -39.5 -91.5t-81 -70.5t-109.5 -27q-59 0 -109 27z" />
    <glyph glyph-name="Gbreve.alt" horiz-adv-x="1178" 
d="M1086 363v-26q0 -102 -61 -181.5t-175.5 -124t-269.5 -44.5q-142 0 -257 43t-181.5 123.5t-66.5 188.5t65 189.5t176 125t245 43.5q130 0 235 -39.5t183 -114.5v140h92v-238l-64 -11q-162 180 -423 180q-112 0 -203.5 -33t-144.5 -95t-53 -147q0 -83 52.5 -145
t143.5 -94.5t205 -32.5q115 0 202.5 29t137 77.5t57.5 103.5h-397v83h502zM481 828q-50 27 -81.5 70.5t-39.5 91.5l61 12q16 -52 64.5 -85.5t105.5 -33.5q56 0 104 33.5t64 85.5l61 -12q-8 -48 -39.5 -91.5t-81 -70.5t-109.5 -27q-59 0 -109 27z" />
    <glyph glyph-name="Gcommaaccent" unicode="&#x122;" horiz-adv-x="1179" 
d="M380.5 584q-91.5 -33 -144.5 -95t-53 -147t52 -146.5t143 -93.5t206 -32q111 0 213 29.5t175 78.5v99h-388v79h487v-221q-94 -68 -221 -108t-270 -40q-142 0 -257 42.5t-181.5 123t-66.5 189.5q0 108 65 189.5t176 125t245 43.5q130 0 235 -39.5t183 -114.5v140h92v-238
l-64 -11q-162 180 -423 180q-112 0 -203.5 -33zM615 -291q-35 -47 -95 -91l-25 26q97 79 105 137q-15 -5 -43 -5t-45.5 13t-17.5 34q0 22 21.5 37.5t54.5 15.5q34 0 57 -21.5t23 -57.5q0 -41 -35 -88z" />
    <glyph glyph-name="Gcommaaccent.alt" horiz-adv-x="1178" 
d="M1086 363v-26q0 -102 -61 -181.5t-175.5 -124t-269.5 -44.5q-142 0 -257 43t-181.5 123.5t-66.5 188.5t65 189.5t176 125t245 43.5q130 0 235 -39.5t183 -114.5v140h92v-238l-64 -11q-162 180 -423 180q-112 0 -203.5 -33t-144.5 -95t-53 -147q0 -83 52.5 -145
t143.5 -94.5t205 -32.5q115 0 202.5 29t137 77.5t57.5 103.5h-397v83h502zM641 -291q-35 -47 -95 -91l-25 26q97 79 105 137q-15 -5 -43 -5t-45.5 13t-17.5 34q0 22 21.5 37.5t54.5 15.5q34 0 57 -21.5t23 -57.5q0 -41 -35 -88z" />
    <glyph glyph-name="Gdotaccent" unicode="&#x120;" horiz-adv-x="1179" 
d="M380.5 584q-91.5 -33 -144.5 -95t-53 -147t52 -146.5t143 -93.5t206 -32q111 0 213 29.5t175 78.5v99h-388v79h487v-221q-94 -68 -221 -108t-270 -40q-142 0 -257 42.5t-181.5 123t-66.5 189.5q0 108 65 189.5t176 125t245 43.5q130 0 235 -39.5t183 -114.5v140h92v-238
l-64 -11q-162 180 -423 180q-112 0 -203.5 -33zM501.5 825q-23.5 17 -23.5 43q0 27 23.5 44t63.5 17q41 0 64 -17t23 -44q0 -26 -23.5 -43t-63.5 -17t-63.5 17z" />
    <glyph glyph-name="Gdotaccent.alt" horiz-adv-x="1178" 
d="M1086 363v-26q0 -102 -61 -181.5t-175.5 -124t-269.5 -44.5q-142 0 -257 43t-181.5 123.5t-66.5 188.5t65 189.5t176 125t245 43.5q130 0 235 -39.5t183 -114.5v140h92v-238l-64 -11q-162 180 -423 180q-112 0 -203.5 -33t-144.5 -95t-53 -147q0 -83 52.5 -145
t143.5 -94.5t205 -32.5q115 0 202.5 29t137 77.5t57.5 103.5h-397v83h502zM527.5 825q-23.5 17 -23.5 43q0 27 23.5 44t63.5 17q41 0 64 -17t23 -44q0 -26 -23.5 -43t-63.5 -17t-63.5 17z" />
    <glyph glyph-name="H" unicode="H" horiz-adv-x="1487" 
d="M1199 603v-520h221v-83h-543v83h219v227h-705v-227h219v-83h-543v83h221v520h-221v83h543v-83h-219v-214h705v214h-219v83h543v-83h-221z" />
    <glyph glyph-name="Hbar" unicode="&#x126;" horiz-adv-x="1491" 
d="M1204 603v-86h217v-66h-217v-368h219v-83h-544v83h221v216h-706v-216h220v-83h-543v83h220v368h-224v66h224v86h-220v83h543v-83h-220v-86h706v86h-221v83h544v-83h-219zM1100 451h-706v-76h706v76z" />
    <glyph glyph-name="I" unicode="I" horiz-adv-x="678" 
d="M391 603v-520h220v-83h-544v83h221v520h-221v83h544v-83h-220z" />
    <glyph glyph-name="Iacute" unicode="&#xcd;" horiz-adv-x="678" 
d="M391 603v-520h220v-83h-544v83h221v520h-221v83h544v-83h-220zM256 758l322 166l-48 77l-303 -201z" />
    <glyph glyph-name="Icircumflex" unicode="&#xce;" horiz-adv-x="678" 
d="M391 603v-520h220v-83h-544v83h221v520h-221v83h544v-83h-220zM111 789l201 162h59l202 -162l-21 -32l-211 125l-209 -125z" />
    <glyph glyph-name="Idieresis" unicode="&#xcf;" horiz-adv-x="678" 
d="M391 603v-520h220v-83h-544v83h221v520h-221v83h544v-83h-220zM129 828q-21 16 -21 39q0 24 20.5 39t54.5 15t54.5 -15t20.5 -39q0 -23 -20.5 -39t-54.5 -16q-33 0 -54 16zM440.5 828q-21.5 16 -21.5 39q0 24 21 39t55 15q35 0 54.5 -15t19.5 -39q0 -23 -20 -39t-54 -16
q-33 0 -54.5 16z" />
    <glyph glyph-name="Idotaccent" unicode="&#x130;" horiz-adv-x="678" 
d="M391 603v-520h220v-83h-544v83h221v520h-221v83h544v-83h-220zM278.5 811q-23.5 17 -23.5 43q0 27 23.5 44t63.5 17q41 0 64 -17t23 -44q0 -26 -23.5 -43t-63.5 -17t-63.5 17z" />
    <glyph glyph-name="Igrave" unicode="&#xcc;" horiz-adv-x="678" 
d="M391 603v-520h220v-83h-544v83h221v520h-221v83h544v-83h-220zM151 1001l-47 -77l322 -166l29 42z" />
    <glyph glyph-name="Imacron" unicode="&#x12a;" horiz-adv-x="678" 
d="M391 603v-520h220v-83h-544v83h221v520h-221v83h544v-83h-220zM634 821l-599 1v72l599 -2v-71z" />
    <glyph glyph-name="Iogonek" unicode="&#x12e;" horiz-adv-x="678" 
d="M762 -171q-79 -50 -169 -50q-66 0 -111.5 28t-45.5 77q0 38 21.5 67.5t58.5 48.5h-449v83h221v520h-221v83h544v-83h-220v-520h220v-83q-46 -13 -78.5 -39t-32.5 -61q0 -29 29 -44.5t71 -15.5q73 0 139 43z" />
    <glyph glyph-name="J" unicode="J" horiz-adv-x="848" 
d="M842 603h-208v-348q0 -79 -35 -139.5t-102 -94.5t-161 -34q-165 0 -306 133l53 70q115 -117 252 -117q87 0 141.5 46.5t54.5 133.5v350h-291v83h602v-83z" />
    <glyph glyph-name="K" unicode="K" horiz-adv-x="1295" 
d="M1268 83v-83h-493v83h180l-323 241l-242 -155v-86h215v-83h-538v83h221v520h-221v83h538v-83h-215v-344l548 344h-185v83h493v-83h-177l-350 -224l389 -296h160z" />
    <glyph glyph-name="Kcommaaccent" unicode="&#x136;" horiz-adv-x="1295" 
d="M1268 83v-83h-493v83h180l-323 241l-242 -155v-86h215v-83h-538v83h221v520h-221v83h538v-83h-215v-344l548 344h-185v83h493v-83h-177l-350 -224l389 -296h160zM751 -278q-35 -47 -95 -91l-25 26q97 79 105 137q-15 -5 -43 -5t-45.5 13t-17.5 34q0 22 21.5 37.5
t54.5 15.5q34 0 57 -21.5t23 -57.5q0 -41 -35 -88z" />
    <glyph glyph-name="L" unicode="L" horiz-adv-x="1111" 
d="M1047 274v-274h-980v83h221v520h-221v83h542v-83h-219v-520h564v191h93z" />
    <glyph glyph-name="Lacute" unicode="&#x139;" horiz-adv-x="1111" 
d="M1047 274v-274h-980v83h221v520h-221v83h542v-83h-219v-520h564v191h93zM250 761l322 166l-48 77l-303 -201z" />
    <glyph glyph-name="Lcaron" unicode="&#x13d;" horiz-adv-x="1111" 
d="M1047 274v-274h-980v83h221v520h-221v83h542v-83h-219v-520h564v191h93zM846 694q1 -167 -154 -287l-28 26q55 65 81 126t25 142z" />
    <glyph glyph-name="Lcommaaccent" unicode="&#x13b;" horiz-adv-x="1111" 
d="M1047 274v-274h-980v83h221v520h-221v83h542v-83h-219v-520h564v191h93zM610 -278q-35 -47 -95 -91l-25 26q97 79 105 137q-15 -5 -43 -5t-45.5 13t-17.5 34q0 22 21.5 37.5t54.5 15.5q34 0 57 -21.5t23 -57.5q0 -41 -35 -88z" />
    <glyph glyph-name="Ldot" unicode="&#x13f;" horiz-adv-x="1109" 
d="M1047 274v-274h-980v83h221v520h-221v83h542v-83h-219v-520h564v191h93zM836.5 412q-25.5 18 -25.5 46q0 30 25.5 49t67.5 19q43 0 67.5 -18.5t24.5 -49.5q0 -28 -24.5 -46t-67.5 -18q-42 0 -67.5 18z" />
    <glyph glyph-name="Lslash" unicode="&#x141;" horiz-adv-x="1126" 
d="M1047 274v-274h-980v83h221v203l-223 -69v69l223 69v248h-221v83h542v-83h-219v-216l216 67v-69l-216 -67v-235h564v191h93z" />
    <glyph glyph-name="M" unicode="M" horiz-adv-x="1644" 
d="M1357 603v-520h219v-83h-502v83h180v347q0 54 14 140l-421 -577h-52l-420 577q12 -84 12 -140v-347h180v-83h-500v83h222v520h-222v83h342l416 -575l411 575h340v-83h-219z" />
    <glyph glyph-name="N" unicode="N" horiz-adv-x="1455" 
d="M1444 603h-219v-609l-50 -1l-787 563v-473h229v-83h-550v83h221v520h-221v83h322l741 -536v453h-221v83h535v-83z" />
    <glyph glyph-name="Nacute" unicode="&#x143;" horiz-adv-x="1455" 
d="M1444 603h-219v-609l-50 -1l-787 563v-473h229v-83h-550v83h221v520h-221v83h322l741 -536v453h-221v83h535v-83zM614 745l322 166l-48 77l-303 -201z" />
    <glyph glyph-name="Ncaron" unicode="&#x147;" horiz-adv-x="1455" 
d="M1444 603h-219v-609l-50 -1l-787 563v-473h229v-83h-550v83h221v520h-221v83h322l741 -536v453h-221v83h535v-83zM931 918l-202 -163h-59l-201 163l21 32l210 -125l210 125z" />
    <glyph glyph-name="Ncommaaccent" unicode="&#x145;" horiz-adv-x="1455" 
d="M1444 603h-219v-609l-50 -1l-787 563v-473h229v-83h-550v83h221v520h-221v83h322l741 -536v453h-221v83h535v-83zM854 -265q-35 -47 -95 -91l-25 26q97 79 105 137q-15 -5 -43 -5t-45.5 13t-17.5 34q0 22 21.5 37.5t54.5 15.5q34 0 57 -21.5t23 -57.5q0 -41 -35 -88z" />
    <glyph glyph-name="Eng" unicode="&#x14a;" horiz-adv-x="1455" 
d="M1444 603h-219v-578q0 -84 -35.5 -144.5t-100 -92.5t-148.5 -32q-98 0 -171.5 42t-135.5 106l57 71q49 -56 112 -93.5t137 -37.5q84 0 136.5 45.5t52.5 135.5v1l-741 528v-471h170v-83h-491v83h221v520h-221v83h322l740 -533v450h-220v83h535v-83z" />
    <glyph glyph-name="Ntilde" unicode="&#xd1;" horiz-adv-x="1455" 
d="M1444 603h-219v-609l-50 -1l-787 563v-473h229v-83h-550v83h221v520h-221v83h322l741 -536v453h-221v83h535v-83zM749 788q-30 12 -73 36q-43 25 -69 37t-53 12q-34 0 -58 -25.5t-32 -75.5l-59 16q9 67 48.5 108t103.5 41q38 0 69 -12.5t78 -37.5q36 -22 62 -33.5
t51 -11.5q36 0 59 25.5t31 71.5l58 -15q-9 -66 -48.5 -107t-102.5 -41q-35 0 -65 12z" />
    <glyph glyph-name="O" unicode="O" horiz-adv-x="1211" 
d="M335 31.5q-120 44.5 -188.5 125t-68.5 186.5t68.5 187t188.5 125.5t271 44.5t271 -44.5t188 -125.5t68 -187t-68 -186.5t-188 -125t-271 -44.5t-271 44.5zM824.5 106.5q95.5 33.5 148 95t52.5 141.5q0 81 -52.5 142.5t-148 95t-219.5 33.5q-125 0 -220.5 -33.5
t-147.5 -95t-52 -142.5t52 -142t147.5 -94.5t220.5 -33.5q124 0 219.5 33.5z" />
    <glyph glyph-name="Oacute" unicode="&#xd3;" horiz-adv-x="1211" 
d="M335 31.5q-120 44.5 -188.5 125t-68.5 186.5t68.5 187t188.5 125.5t271 44.5t271 -44.5t188 -125.5t68 -187t-68 -186.5t-188 -125t-271 -44.5t-271 44.5zM824.5 106.5q95.5 33.5 148 95t52.5 141.5q0 81 -52.5 142.5t-148 95t-219.5 33.5q-125 0 -220.5 -33.5
t-147.5 -95t-52 -142.5t52 -142t147.5 -94.5t220.5 -33.5q124 0 219.5 33.5zM521 772l322 166l-48 77l-303 -201z" />
    <glyph glyph-name="Ocircumflex" unicode="&#xd4;" horiz-adv-x="1211" 
d="M335 31.5q-120 44.5 -188.5 125t-68.5 186.5t68.5 187t188.5 125.5t271 44.5t271 -44.5t188 -125.5t68 -187t-68 -186.5t-188 -125t-271 -44.5t-271 44.5zM824.5 106.5q95.5 33.5 148 95t52.5 141.5q0 81 -52.5 142.5t-148 95t-219.5 33.5q-125 0 -220.5 -33.5
t-147.5 -95t-52 -142.5t52 -142t147.5 -94.5t220.5 -33.5q124 0 219.5 33.5zM376 803l201 162h59l202 -162l-21 -32l-211 125l-209 -125z" />
    <glyph glyph-name="Odieresis" unicode="&#xd6;" horiz-adv-x="1211" 
d="M335 31.5q-120 44.5 -188.5 125t-68.5 186.5t68.5 187t188.5 125.5t271 44.5t271 -44.5t188 -125.5t68 -187t-68 -186.5t-188 -125t-271 -44.5t-271 44.5zM824.5 106.5q95.5 33.5 148 95t52.5 141.5q0 81 -52.5 142.5t-148 95t-219.5 33.5q-125 0 -220.5 -33.5
t-147.5 -95t-52 -142.5t52 -142t147.5 -94.5t220.5 -33.5q124 0 219.5 33.5zM394 842q-21 16 -21 39q0 24 20.5 39t54.5 15t54.5 -15t20.5 -39q0 -23 -20.5 -39t-54.5 -16q-33 0 -54 16zM705.5 842q-21.5 16 -21.5 39q0 24 21 39t55 15q35 0 54.5 -15t19.5 -39
q0 -23 -20 -39t-54 -16q-33 0 -54.5 16z" />
    <glyph glyph-name="Ograve" unicode="&#xd2;" horiz-adv-x="1211" 
d="M335 31.5q-120 44.5 -188.5 125t-68.5 186.5t68.5 187t188.5 125.5t271 44.5t271 -44.5t188 -125.5t68 -187t-68 -186.5t-188 -125t-271 -44.5t-271 44.5zM824.5 106.5q95.5 33.5 148 95t52.5 141.5q0 81 -52.5 142.5t-148 95t-219.5 33.5q-125 0 -220.5 -33.5
t-147.5 -95t-52 -142.5t52 -142t147.5 -94.5t220.5 -33.5q124 0 219.5 33.5zM416 1015l-47 -77l322 -166l29 42z" />
    <glyph glyph-name="Ohungarumlaut" unicode="&#x150;" horiz-adv-x="1211" 
d="M335 31.5q-120 44.5 -188.5 125t-68.5 186.5t68.5 187t188.5 125.5t271 44.5t271 -44.5t188 -125.5t68 -187t-68 -186.5t-188 -125t-271 -44.5t-271 44.5zM824.5 106.5q95.5 33.5 148 95t52.5 141.5q0 81 -52.5 142.5t-148 95t-219.5 33.5q-125 0 -220.5 -33.5
t-147.5 -95t-52 -142.5t52 -142t147.5 -94.5t220.5 -33.5q124 0 219.5 33.5zM366 836l212 228l64 -63l-232 -206zM624 836l212 228l64 -63l-233 -206z" />
    <glyph glyph-name="Omacron" unicode="&#x14c;" horiz-adv-x="1211" 
d="M335 31.5q-120 44.5 -188.5 125t-68.5 186.5t68.5 187t188.5 125.5t271 44.5t271 -44.5t188 -125.5t68 -187t-68 -186.5t-188 -125t-271 -44.5t-271 44.5zM824.5 106.5q95.5 33.5 148 95t52.5 141.5q0 81 -52.5 142.5t-148 95t-219.5 33.5q-125 0 -220.5 -33.5
t-147.5 -95t-52 -142.5t52 -142t147.5 -94.5t220.5 -33.5q124 0 219.5 33.5zM899 835l-599 1v72l599 -2v-71z" />
    <glyph glyph-name="Oslash" unicode="&#xd8;" horiz-adv-x="1193" 
d="M1053.5 543q79.5 -85 79.5 -200q0 -106 -68 -186.5t-188 -125t-271 -44.5q-82 0 -161 14l-48 -79h-92l58 100q-132 41 -208.5 125t-76.5 196q0 106 68.5 187t188.5 125.5t271 44.5q77 0 146 -12l49 79h91l-56 -98q138 -41 217.5 -126zM245.5 191q60.5 -64 168.5 -94
l298 510q-48 7 -107 7q-125 0 -220.5 -33.5t-147.5 -95t-52 -142.5q0 -88 60.5 -152zM824.5 106.5q95.5 33.5 148 95t52.5 141.5q0 90 -64 155t-177 95l-298 -511q56 -9 119 -9q124 0 219.5 33.5z" />
    <glyph glyph-name="Otilde" unicode="&#xd5;" horiz-adv-x="1211" 
d="M335 31.5q-120 44.5 -188.5 125t-68.5 186.5t68.5 187t188.5 125.5t271 44.5t271 -44.5t188 -125.5t68 -187t-68 -186.5t-188 -125t-271 -44.5t-271 44.5zM824.5 106.5q95.5 33.5 148 95t52.5 141.5q0 81 -52.5 142.5t-148 95t-219.5 33.5q-125 0 -220.5 -33.5
t-147.5 -95t-52 -142.5t52 -142t147.5 -94.5t220.5 -33.5q124 0 219.5 33.5zM656 815q-30 12 -73 36q-43 25 -69 37t-53 12q-34 0 -58 -25.5t-32 -75.5l-59 16q9 67 48.5 108t103.5 41q38 0 69 -12.5t78 -37.5q36 -22 62 -33.5t51 -11.5q36 0 59 25.5t31 71.5l58 -15
q-9 -66 -48.5 -107t-102.5 -41q-35 0 -65 12z" />
    <glyph glyph-name="OE" unicode="&#x152;" horiz-adv-x="1927" 
d="M1708 424v179h-702v-219h350v126h84v-328h-84v125h-350v-224h703v178h92v-261h-1253q-127 0 -233.5 37t-171.5 115t-65 195t65 193t171 111t234 35h1253v-262h-93zM903 603h-333q-166 0 -275 -57.5t-109 -198.5t110.5 -202.5t273.5 -61.5h333v520z" />
    <glyph glyph-name="P" unicode="P" horiz-adv-x="1232" 
d="M1042 660.5q62 -25.5 96.5 -74.5t34.5 -116q0 -65 -34.5 -113.5t-96.5 -75t-143 -26.5h-508v-172h233v-83h-557v83h221v520h-221v83h832q81 0 143 -25.5zM1021 372q47 36 47 96q0 63 -46 99t-123 36h-508v-267h508q75 0 122 36z" />
    <glyph glyph-name="Thorn" unicode="&#xde;" horiz-adv-x="1161" 
d="M1048.5 461.5q56.5 -41.5 56.5 -117.5q0 -75 -56.5 -118t-150.5 -44h-510v-106h218v-76h-539v83h221v520h-221v83h539v-75h-218v-108h510q94 0 150.5 -41.5zM967.5 276q34.5 21 34.5 67q0 45 -34 65.5t-84 20.5h-496v-174h496q49 0 83.5 21z" />
    <glyph glyph-name="Q" unicode="Q" horiz-adv-x="1209" 
d="M1205 -22q-14 -83 -77 -135.5t-157 -52.5q-62 0 -113 24.5t-94 66t-98 108.5q-40 -2 -60 -2q-150 0 -270.5 45t-189 126t-68.5 185t68.5 185t189 126.5t270.5 45.5t270 -45.5t188.5 -126.5t68.5 -185q0 -84 -45.5 -153.5t-127.5 -117.5t-191 -70q53 -63 100.5 -96
t101.5 -33q62 0 105 33.5t53 94.5zM385 586q-96 -35 -148.5 -98.5t-52.5 -144.5v-4h91q103 0 175 -28.5t125 -78.5t125 -141l13 -17q95 14 165.5 51.5t109 93.5t38.5 124q0 81 -53 144.5t-148.5 98.5t-219.5 35t-220 -35zM342 119q108 -53 263 -53q-58 71 -96 108.5
t-95.5 63t-138.5 25.5h-76q35 -91 143 -144z" />
    <glyph glyph-name="Q.swsh" horiz-adv-x="1209" 
d="M2016 -263q-87 -58 -191 -96.5t-234 -38.5q-126 0 -231.5 39.5t-211.5 123t-242 228.5l-36 37q-117 -43 -264 -43q-150 0 -270.5 45t-189 126t-68.5 185t68.5 185t189 126.5t270.5 45.5t270 -45.5t188.5 -126.5t68.5 -185q0 -85 -46 -155t-129 -118l44 -45
q122 -124 215 -196t182.5 -107t191.5 -35q122 0 213 34t172 89zM396.5 589.5q-91.5 -31.5 -146.5 -87.5t-64 -130h92q145 0 253 -27.5t192.5 -78.5t170.5 -132q63 37 97.5 91t34.5 118q0 81 -53 144.5t-148.5 98.5t-219.5 35q-117 0 -208.5 -31.5zM804 94
q-114 105 -233 153.5t-291 48.5h-91q14 -69 70 -121t145 -80.5t201 -28.5q109 0 199 28z" />
    <glyph glyph-name="R" unicode="R" horiz-adv-x="1365" 
d="M1352 257v-31q0 -66 -30 -121t-83 -87t-118 -32q-63 0 -114 24.5t-90 61.5t-84 93q-45 54 -72.5 79.5t-67 40.5t-100.5 15h-202v-216h216v-84h-540v83h221v520h-221v83h850q127 0 197 -52t70 -142q0 -56 -30.5 -99t-89 -67.5t-139.5 -24.5h-133q31 -13 61 -37.5t71 -68.5
q40 -44 67.5 -68.5t58.5 -38.5t71 -14q39 0 71 19t51 53.5t19 77.5v33h90zM391 603v-224h529q78 0 119.5 31t41.5 82q0 50 -41.5 80.5t-119.5 30.5h-529z" />
    <glyph glyph-name="R.swsh" horiz-adv-x="1194" 
d="M2153 -206q-95 -72 -208.5 -119.5t-271.5 -47.5q-205 0 -375 96t-326 265q-109 119 -174.5 178.5t-133 89t-155.5 29.5h-118v-201l220 -1v-83l-544 1v84l221 -1v519h-221v83h759q127 0 197 -52t70 -145q0 -90 -68 -143t-192 -54l-108 -1q65 -17 120 -52.5t105 -84
t129 -135.5q138 -153 276 -230t315 -77q105 0 186.5 22.5t135 52t114.5 72.5zM391 603v-235l438 3q78 1 119.5 32t41.5 86q0 53 -41 83.5t-120 30.5h-438z" />
    <glyph glyph-name="Racute" unicode="&#x154;" horiz-adv-x="1365" 
d="M1352 257v-31q0 -66 -30 -121t-83 -87t-118 -32q-63 0 -114 24.5t-90 61.5t-84 93q-45 54 -72.5 79.5t-67 40.5t-100.5 15h-202v-216h216v-84h-540v83h221v520h-221v83h850q127 0 197 -52t70 -142q0 -56 -30.5 -99t-89 -67.5t-139.5 -24.5h-133q31 -13 61 -37.5t71 -68.5
q40 -44 67.5 -68.5t58.5 -38.5t71 -14q39 0 71 19t51 53.5t19 77.5v33h90zM391 603v-224h529q78 0 119.5 31t41.5 82q0 50 -41.5 80.5t-119.5 30.5h-529zM622 758l322 166l-48 77l-303 -201z" />
    <glyph glyph-name="Racute.swsh" horiz-adv-x="1194" 
d="M2153 -206q-95 -72 -208.5 -119.5t-271.5 -47.5q-205 0 -375 96t-326 265q-109 119 -174.5 178.5t-133 89t-155.5 29.5h-118v-201l220 -1v-83l-544 1v84l221 -1v519h-221v83h759q127 0 197 -52t70 -145q0 -90 -68 -143t-192 -54l-108 -1q65 -17 120 -52.5t105 -84
t129 -135.5q138 -153 276 -230t315 -77q105 0 186.5 22.5t135 52t114.5 72.5zM391 603v-235l438 3q78 1 119.5 32t41.5 86q0 53 -41 83.5t-120 30.5h-438zM562 758l322 166l-48 77l-303 -201z" />
    <glyph glyph-name="Rcaron" unicode="&#x158;" horiz-adv-x="1365" 
d="M1352 257v-31q0 -66 -30 -121t-83 -87t-118 -32q-63 0 -114 24.5t-90 61.5t-84 93q-45 54 -72.5 79.5t-67 40.5t-100.5 15h-202v-216h216v-84h-540v83h221v520h-221v83h850q127 0 197 -52t70 -142q0 -56 -30.5 -99t-89 -67.5t-139.5 -24.5h-133q31 -13 61 -37.5t71 -68.5
q40 -44 67.5 -68.5t58.5 -38.5t71 -14q39 0 71 19t51 53.5t19 77.5v33h90zM391 603v-224h529q78 0 119.5 31t41.5 82q0 50 -41.5 80.5t-119.5 30.5h-529zM939 931l-202 -163h-59l-201 163l21 32l210 -125l210 125z" />
    <glyph glyph-name="Rcaron.swsh" horiz-adv-x="1194" 
d="M2153 -206q-95 -72 -208.5 -119.5t-271.5 -47.5q-205 0 -375 96t-326 265q-109 119 -174.5 178.5t-133 89t-155.5 29.5h-118v-201l220 -1v-83l-544 1v84l221 -1v519h-221v83h759q127 0 197 -52t70 -145q0 -90 -68 -143t-192 -54l-108 -1q65 -17 120 -52.5t105 -84
t129 -135.5q138 -153 276 -230t315 -77q105 0 186.5 22.5t135 52t114.5 72.5zM391 603v-235l438 3q78 1 119.5 32t41.5 86q0 53 -41 83.5t-120 30.5h-438zM879 931l-202 -163h-59l-201 163l21 32l210 -125l210 125z" />
    <glyph glyph-name="Rcommaaccent" unicode="&#x156;" horiz-adv-x="1365" 
d="M1352 257v-31q0 -66 -30 -121t-83 -87t-118 -32q-63 0 -114 24.5t-90 61.5t-84 93q-45 54 -72.5 79.5t-67 40.5t-100.5 15h-202v-216h216v-84h-540v83h221v520h-221v83h850q127 0 197 -52t70 -142q0 -56 -30.5 -99t-89 -67.5t-139.5 -24.5h-133q31 -13 61 -37.5t71 -68.5
q40 -44 67.5 -68.5t58.5 -38.5t71 -14q39 0 71 19t51 53.5t19 77.5v33h90zM391 603v-224h529q78 0 119.5 31t41.5 82q0 50 -41.5 80.5t-119.5 30.5h-529zM811 -278q-35 -47 -95 -91l-25 26q97 79 105 137q-15 -5 -43 -5t-45.5 13t-17.5 34q0 22 21.5 37.5t54.5 15.5
q34 0 57 -21.5t23 -57.5q0 -41 -35 -88z" />
    <glyph glyph-name="Rcommaaccent.swsh" horiz-adv-x="1194" 
d="M2153 -206q-95 -72 -208.5 -119.5t-271.5 -47.5q-205 0 -375 96t-326 265q-109 119 -174.5 178.5t-133 89t-155.5 29.5h-118v-201l220 -1v-83l-544 1v84l221 -1v519h-221v83h759q127 0 197 -52t70 -145q0 -90 -68 -143t-192 -54l-108 -1q65 -17 120 -52.5t105 -84
t129 -135.5q138 -153 276 -230t315 -77q105 0 186.5 22.5t135 52t114.5 72.5zM391 603v-235l438 3q78 1 119.5 32t41.5 86q0 53 -41 83.5t-120 30.5h-438zM721 -278q-35 -47 -95 -91l-25 26q97 79 105 137q-15 -5 -43 -5t-45.5 13t-17.5 34q0 22 21.5 37.5t54.5 15.5
q34 0 57 -21.5t23 -57.5q0 -41 -35 -88z" />
    <glyph glyph-name="S" unicode="S" horiz-adv-x="1121" 
d="M854.5 341q92.5 -25 135.5 -65t43 -103q0 -89 -87 -138t-235 -49q-130 0 -257.5 40.5t-227.5 108.5v-135h-94v246l59 12q95 -89 235.5 -139.5t285.5 -50.5q99 0 157 27t58 78q0 36 -35 57.5t-115 36t-235 29.5q-151 15 -239.5 41t-128 66t-39.5 101q0 93 88 144t249 51
q125 0 230.5 -36.5t190.5 -101.5v125h93v-242l-56 -11q-83 88 -198 135.5t-261 47.5q-106 0 -167.5 -29t-61.5 -83q0 -35 32 -56t108 -35.5t222 -29.5q158 -17 250.5 -42z" />
    <glyph glyph-name="Sacute" unicode="&#x15a;" horiz-adv-x="1121" 
d="M854.5 341q92.5 -25 135.5 -65t43 -103q0 -89 -87 -138t-235 -49q-130 0 -257.5 40.5t-227.5 108.5v-135h-94v246l59 12q95 -89 235.5 -139.5t285.5 -50.5q99 0 157 27t58 78q0 36 -35 57.5t-115 36t-235 29.5q-151 15 -239.5 41t-128 66t-39.5 101q0 93 88 144t249 51
q125 0 230.5 -36.5t190.5 -101.5v125h93v-242l-56 -11q-83 88 -198 135.5t-261 47.5q-106 0 -167.5 -29t-61.5 -83q0 -35 32 -56t108 -35.5t222 -29.5q158 -17 250.5 -42zM470 772l322 166l-48 77l-303 -201z" />
    <glyph glyph-name="Scaron" unicode="&#x160;" horiz-adv-x="1121" 
d="M854.5 341q92.5 -25 135.5 -65t43 -103q0 -89 -87 -138t-235 -49q-130 0 -257.5 40.5t-227.5 108.5v-135h-94v246l59 12q95 -89 235.5 -139.5t285.5 -50.5q99 0 157 27t58 78q0 36 -35 57.5t-115 36t-235 29.5q-151 15 -239.5 41t-128 66t-39.5 101q0 93 88 144t249 51
q125 0 230.5 -36.5t190.5 -101.5v125h93v-242l-56 -11q-83 88 -198 135.5t-261 47.5q-106 0 -167.5 -29t-61.5 -83q0 -35 32 -56t108 -35.5t222 -29.5q158 -17 250.5 -42zM787 945l-202 -163h-59l-201 163l21 32l210 -125l210 125z" />
    <glyph glyph-name="Scedilla" unicode="&#x15e;" horiz-adv-x="1121" 
d="M592 -5l-29 -74q40 2 63 2q58 0 94 -23.5t36 -64.5q0 -44 -44 -70t-125 -26q-111 0 -193 41l24 51q33 -16 78 -26t94 -10q48 0 74 10.5t26 29.5t-21.5 29.5t-60.5 10.5q-35 0 -87 -4l-23 -1l-7 9l49 125q-87 18 -167.5 51.5t-146.5 79.5v-135h-94v246l59 12
q95 -89 235.5 -139.5t285.5 -50.5q99 0 157 27t58 78q0 36 -35 57.5t-115 36t-235 29.5q-151 15 -239.5 41t-128 66t-39.5 101q0 93 88 144t249 51q125 0 230.5 -36.5t190.5 -101.5v125h93v-242l-56 -11q-83 88 -198 135.5t-261 47.5q-106 0 -167.5 -29t-61.5 -83
q0 -35 32 -56t108 -35.5t222 -29.5q158 -17 250.5 -42t135.5 -65t43 -103q0 -89 -87 -138t-235 -49q-60 0 -119 9z" />
    <glyph glyph-name="Scommaaccent" unicode="&#x218;" horiz-adv-x="1121" 
d="M854.5 341q92.5 -25 135.5 -65t43 -103q0 -89 -87 -138t-235 -49q-130 0 -257.5 40.5t-227.5 108.5v-135h-94v246l59 12q95 -89 235.5 -139.5t285.5 -50.5q99 0 157 27t58 78q0 36 -35 57.5t-115 36t-235 29.5q-151 15 -239.5 41t-128 66t-39.5 101q0 93 88 144t249 51
q125 0 230.5 -36.5t190.5 -101.5v125h93v-242l-56 -11q-83 88 -198 135.5t-261 47.5q-106 0 -167.5 -29t-61.5 -83q0 -35 32 -56t108 -35.5t222 -29.5q158 -17 250.5 -42zM639 -291q-35 -47 -95 -91l-25 26q97 79 105 137q-15 -5 -43 -5t-45.5 13t-17.5 34q0 22 21.5 37.5
t54.5 15.5q34 0 57 -21.5t23 -57.5q0 -41 -35 -88z" />
    <glyph glyph-name="uni1E9E" unicode="&#x1e9e;" horiz-adv-x="1288" 
d="M1139 303.5q93 -56.5 93 -147.5q0 -56 -34.5 -97.5t-93 -63t-128.5 -21.5q-111 0 -203 41.5t-176 115.5v-131h-92v247l59 6q86 -96 193 -147t207 -51q71 0 116.5 29t45.5 78q0 38 -37 70.5t-137 62.5t-279 54l200 153q-71 52 -147.5 84t-165.5 32q-115 0 -180 -64.5
t-65 -180.5v-373h-316v83h213v288q0 160 90.5 247t251.5 87q112 0 207 -41t181 -108l197 151l53 -65l-331 -256q185 -26 278 -82.5z" />
    <glyph glyph-name="T" unicode="T" horiz-adv-x="1181" 
d="M1121 686v-261h-93v179h-386v-521h228v-83h-560v83h229v521h-387v-179h-92v261h1061z" />
    <glyph glyph-name="Tbar" unicode="&#x166;" horiz-adv-x="1187" 
d="M1121 686v-261h-93v179h-386v-257h244v-66h-244v-198h228v-83h-560v83h229v198h-240v66h240v257h-387v-179h-92v261h1061z" />
    <glyph glyph-name="Tcaron" unicode="&#x164;" horiz-adv-x="1181" 
d="M1121 686v-261h-93v179h-386v-521h228v-83h-560v83h229v521h-387v-179h-92v261h1061zM825 931l-202 -163h-59l-201 163l21 32l210 -125l210 125z" />
    <glyph glyph-name="uni0162" unicode="&#x162;" horiz-adv-x="1181" 
d="M1121 686v-261h-93v179h-386v-521h228v-83h-560v83h229v521h-387v-179h-92v261h1061zM399 -207l24 51q33 -16 78 -26t94 -10q48 0 74 10.5t26 29.5t-21.5 29.5t-60.5 10.5q-35 0 -87 -4l-23 -1l-7 9l54 139h56l-38 -97q40 2 63 2q58 0 94 -23.5t36 -64.5q0 -44 -44 -70
t-125 -26q-111 0 -193 41z" />
    <glyph glyph-name="uni021A" unicode="&#x21a;" horiz-adv-x="1181" 
d="M1121 686v-261h-93v179h-386v-521h228v-83h-560v83h229v521h-387v-179h-92v261h1061zM644 -278q-35 -47 -95 -91l-25 26q97 79 105 137q-15 -5 -43 -5t-45.5 13t-17.5 34q0 22 21.5 37.5t54.5 15.5q34 0 57 -21.5t23 -57.5q0 -41 -35 -88z" />
    <glyph glyph-name="U" unicode="U" horiz-adv-x="1331" 
d="M1325 603h-219v-259q0 -116 -56 -196.5t-155 -120.5t-229 -40q-132 0 -231.5 40t-154.5 120t-55 197v259h-220v83h529v-83h-209l3 -267q1 -132 91.5 -197.5t246.5 -65.5q154 0 245.5 65.5t92.5 198.5l2 266h-207v83h526v-83z" />
    <glyph glyph-name="Uacute" unicode="&#xda;" horiz-adv-x="1331" 
d="M1325 603h-219v-259q0 -116 -56 -196.5t-155 -120.5t-229 -40q-132 0 -231.5 40t-154.5 120t-55 197v259h-220v83h529v-83h-209l3 -267q1 -132 91.5 -197.5t246.5 -65.5q154 0 245.5 65.5t92.5 198.5l2 266h-207v83h526v-83zM578 752l322 166l-48 77l-303 -201z" />
    <glyph glyph-name="Ucircumflex" unicode="&#xdb;" horiz-adv-x="1331" 
d="M1325 603h-219v-259q0 -116 -56 -196.5t-155 -120.5t-229 -40q-132 0 -231.5 40t-154.5 120t-55 197v259h-220v83h529v-83h-209l3 -267q1 -132 91.5 -197.5t246.5 -65.5q154 0 245.5 65.5t92.5 198.5l2 266h-207v83h526v-83zM433 783l201 162h59l202 -162l-21 -32
l-211 125l-209 -125z" />
    <glyph glyph-name="Udieresis" unicode="&#xdc;" horiz-adv-x="1331" 
d="M1325 603h-219v-259q0 -116 -56 -196.5t-155 -120.5t-229 -40q-132 0 -231.5 40t-154.5 120t-55 197v259h-220v83h529v-83h-209l3 -267q1 -132 91.5 -197.5t246.5 -65.5q154 0 245.5 65.5t92.5 198.5l2 266h-207v83h526v-83zM451 822q-21 16 -21 39q0 24 20.5 39t54.5 15
t54.5 -15t20.5 -39q0 -23 -20.5 -39t-54.5 -16q-33 0 -54 16zM762.5 822q-21.5 16 -21.5 39q0 24 21 39t55 15q35 0 54.5 -15t19.5 -39q0 -23 -20 -39t-54 -16q-33 0 -54.5 16z" />
    <glyph glyph-name="Ugrave" unicode="&#xd9;" horiz-adv-x="1331" 
d="M1325 603h-219v-259q0 -116 -56 -196.5t-155 -120.5t-229 -40q-132 0 -231.5 40t-154.5 120t-55 197v259h-220v83h529v-83h-209l3 -267q1 -132 91.5 -197.5t246.5 -65.5q154 0 245.5 65.5t92.5 198.5l2 266h-207v83h526v-83zM473 995l-47 -77l322 -166l29 42z" />
    <glyph glyph-name="Uhungarumlaut" unicode="&#x170;" horiz-adv-x="1331" 
d="M1325 603h-219v-259q0 -116 -56 -196.5t-155 -120.5t-229 -40q-132 0 -231.5 40t-154.5 120t-55 197v259h-220v83h529v-83h-209l3 -267q1 -132 91.5 -197.5t246.5 -65.5q154 0 245.5 65.5t92.5 198.5l2 266h-207v83h526v-83zM423 816l212 228l64 -63l-232 -206zM681 816
l212 228l64 -63l-233 -206z" />
    <glyph glyph-name="Umacron" unicode="&#x16a;" horiz-adv-x="1331" 
d="M1325 603h-219v-259q0 -116 -56 -196.5t-155 -120.5t-229 -40q-132 0 -231.5 40t-154.5 120t-55 197v259h-220v83h529v-83h-209l3 -267q1 -132 91.5 -197.5t246.5 -65.5q154 0 245.5 65.5t92.5 198.5l2 266h-207v83h526v-83zM956 815l-599 1v72l599 -2v-71z" />
    <glyph glyph-name="Uogonek" unicode="&#x172;" horiz-adv-x="1331" 
d="M1325 603h-219v-259q0 -112 -51.5 -190t-143.5 -119.5t-213 -46.5q-46 -14 -78 -39.5t-32 -60.5q0 -29 29 -44.5t71 -15.5q73 0 139 43l23 -54q-79 -50 -169 -50q-66 0 -111.5 28t-45.5 77q0 39 22 68.5t60 48.5q-176 13 -278.5 104t-102.5 251v259h-220v83h529v-83h-209
l3 -267q1 -132 91.5 -197.5t246.5 -65.5q154 0 245.5 65.5t92.5 198.5l2 266h-207v83h526v-83z" />
    <glyph glyph-name="Uring" unicode="&#x16e;" horiz-adv-x="1331" 
d="M1325 603h-219v-259q0 -116 -56 -196.5t-155 -120.5t-229 -40q-132 0 -231.5 40t-154.5 120t-55 197v259h-220v83h529v-83h-209l3 -267q1 -132 91.5 -197.5t246.5 -65.5q154 0 245.5 65.5t92.5 198.5l2 266h-207v83h526v-83zM572.5 784.5q-41.5 18.5 -65.5 50t-24 70.5
q0 41 24 72.5t65 49t91 17.5t91.5 -18t65.5 -50t24 -71q0 -41 -24 -72.5t-65.5 -49t-91.5 -17.5q-49 0 -90.5 18.5zM751 843.5q35 24.5 35 61.5q0 36 -35 61t-88 25q-52 0 -87 -24.5t-35 -61.5q0 -35 35.5 -60.5t86.5 -25.5q53 0 88 24.5z" />
    <glyph glyph-name="V" unicode="V" horiz-adv-x="1222" 
d="M1231 603h-188l-406 -616h-51l-406 616h-188v83h465v-83h-149l316 -491l316 491h-162v83h453v-83z" />
    <glyph glyph-name="W" unicode="W" horiz-adv-x="1645" 
d="M1651 603h-189l-301 -616h-51l-289 543l-289 -543h-51l-302 616h-187v83h459v-83h-157l223 -473l288 541h52l282 -540l222 472h-156v83h446v-83z" />
    <glyph glyph-name="Wacute" unicode="&#x1e82;" horiz-adv-x="1645" 
d="M1651 603h-189l-301 -616h-51l-289 543l-289 -543h-51l-302 616h-187v83h459v-83h-157l223 -473l288 541h52l282 -540l222 472h-156v83h446v-83zM746 758l322 166l-48 77l-303 -201z" />
    <glyph glyph-name="Wcircumflex" unicode="&#x174;" horiz-adv-x="1645" 
d="M1651 603h-189l-301 -616h-51l-289 543l-289 -543h-51l-302 616h-187v83h459v-83h-157l223 -473l288 541h52l282 -540l222 472h-156v83h446v-83zM601 789l201 162h59l202 -162l-21 -32l-211 125l-209 -125z" />
    <glyph glyph-name="Wdieresis" unicode="&#x1e84;" horiz-adv-x="1645" 
d="M1651 603h-189l-301 -616h-51l-289 543l-289 -543h-51l-302 616h-187v83h459v-83h-157l223 -473l288 541h52l282 -540l222 472h-156v83h446v-83zM619 828q-21 16 -21 39q0 24 20.5 39t54.5 15t54.5 -15t20.5 -39q0 -23 -20.5 -39t-54.5 -16q-33 0 -54 16zM930.5 828
q-21.5 16 -21.5 39q0 24 21 39t55 15q35 0 54.5 -15t19.5 -39q0 -23 -20 -39t-54 -16q-33 0 -54.5 16z" />
    <glyph glyph-name="Wgrave" unicode="&#x1e80;" horiz-adv-x="1645" 
d="M1651 603h-189l-301 -616h-51l-289 543l-289 -543h-51l-302 616h-187v83h459v-83h-157l223 -473l288 541h52l282 -540l222 472h-156v83h446v-83zM641 1001l-47 -77l322 -166l29 42z" />
    <glyph glyph-name="X" unicode="X" horiz-adv-x="1244" 
d="M1193 83v-83h-475v81h159l-266 214l-265 -214h165v-81h-460v83h175l318 258l-334 262h-159v83h476v-80h-164l267 -216l272 216h-171v80h461v-83h-173l-324 -257l332 -263h166z" />
    <glyph glyph-name="Y" unicode="Y" horiz-adv-x="1177" 
d="M641 257v-174h218v-83h-539v83h218v171l-355 349h-174v83h442v-83h-133l281 -286l275 286h-147v83h442v-83h-186z" />
    <glyph glyph-name="Yacute" unicode="&#xdd;" horiz-adv-x="1177" 
d="M641 257v-174h218v-83h-539v83h218v171l-355 349h-174v83h442v-83h-133l281 -286l275 286h-147v83h442v-83h-186zM505 752l322 166l-48 77l-303 -201z" />
    <glyph glyph-name="Ycircumflex" unicode="&#x176;" horiz-adv-x="1177" 
d="M641 257v-174h218v-83h-539v83h218v171l-355 349h-174v83h442v-83h-133l281 -286l275 286h-147v83h442v-83h-186zM360 783l201 162h59l202 -162l-21 -32l-211 125l-209 -125z" />
    <glyph glyph-name="Ydieresis" unicode="&#x178;" horiz-adv-x="1177" 
d="M641 257v-174h218v-83h-539v83h218v171l-355 349h-174v83h442v-83h-133l281 -286l275 286h-147v83h442v-83h-186zM378 822q-21 16 -21 39q0 24 20.5 39t54.5 15t54.5 -15t20.5 -39q0 -23 -20.5 -39t-54.5 -16q-33 0 -54 16zM689.5 822q-21.5 16 -21.5 39q0 24 21 39
t55 15q35 0 54.5 -15t19.5 -39q0 -23 -20 -39t-54 -16q-33 0 -54.5 16z" />
    <glyph glyph-name="Ygrave" unicode="&#x1ef2;" horiz-adv-x="1177" 
d="M641 257v-174h218v-83h-539v83h218v171l-355 349h-174v83h442v-83h-133l281 -286l275 286h-147v83h442v-83h-186zM400 995l-47 -77l322 -166l29 42z" />
    <glyph glyph-name="Z" unicode="Z" horiz-adv-x="1148" 
d="M131 70l677 508q15 12 31.5 19t24.5 8l-1 5q-4 -1 -23 -4t-40 -3h-581v-204h-93v287h896v-69l-678 -512q-21 -14 -54 -25v-4q4 1 22.5 4t37.5 3h585v205h93v-288h-897v70z" />
    <glyph glyph-name="Zacute" unicode="&#x179;" horiz-adv-x="1148" 
d="M131 70l677 508q15 12 31.5 19t24.5 8l-1 5q-4 -1 -23 -4t-40 -3h-581v-204h-93v287h896v-69l-678 -512q-21 -14 -54 -25v-4q4 1 22.5 4t37.5 3h585v205h93v-288h-897v70zM498 758l322 166l-48 77l-303 -201z" />
    <glyph glyph-name="Zcaron" unicode="&#x17d;" horiz-adv-x="1148" 
d="M131 70l677 508q15 12 31.5 19t24.5 8l-1 5q-4 -1 -23 -4t-40 -3h-581v-204h-93v287h896v-69l-678 -512q-21 -14 -54 -25v-4q4 1 22.5 4t37.5 3h585v205h93v-288h-897v70zM815 931l-202 -163h-59l-201 163l21 32l210 -125l210 125z" />
    <glyph glyph-name="Zdotaccent" unicode="&#x17b;" horiz-adv-x="1148" 
d="M131 70l677 508q15 12 31.5 19t24.5 8l-1 5q-4 -1 -23 -4t-40 -3h-581v-204h-93v287h896v-69l-678 -512q-21 -14 -54 -25v-4q4 1 22.5 4t37.5 3h585v205h93v-288h-897v70zM520.5 811q-23.5 17 -23.5 43q0 27 23.5 44t63.5 17q41 0 64 -17t23 -44q0 -26 -23.5 -43
t-63.5 -17t-63.5 17z" />
    <glyph glyph-name="a" unicode="a" horiz-adv-x="1052" 
d="M1044 23q-51 -35 -113 -35q-46 0 -81 27t-48 72q-98 -47 -212 -73.5t-225 -26.5q-128 0 -196.5 38t-68.5 108q0 77 85.5 118t241.5 41q184 0 368 -52q-5 84 -72.5 125.5t-206.5 41.5q-169 0 -382 -66l-22 74q207 68 420 68q177 0 264.5 -67t87.5 -189v-75q0 -41 19 -61.5
t47 -20.5q35 0 67 22zM248.5 83q44.5 -18 138.5 -18q89 0 199 21t210 57v41q-183 35 -369 35q-106 0 -164.5 -21.5t-58.5 -60.5q0 -36 44.5 -54z" />
    <glyph glyph-name="a.alt" horiz-adv-x="1079" 
d="M1071 195v-43q0 -66 -34.5 -112.5t-104.5 -46.5q-104 0 -135 92q-98 -45 -215.5 -71.5t-224.5 -26.5q-126 0 -193 36.5t-67 111.5q0 78 85.5 117t233.5 39q160 0 369 -44q-4 78 -68.5 119t-203.5 41q-169 0 -382 -66l-22 74q207 68 420 68q177 0 264.5 -67t87.5 -189v-66
q0 -49 15 -74.5t52 -25.5q33 0 49 25t16 66v43h58zM575.5 86q111.5 21 210.5 56q-1 7 -1 23v17q-207 36 -359 36q-107 0 -166 -20t-59 -61q0 -39 45.5 -55.5t132.5 -16.5q85 0 196.5 21z" />
    <glyph glyph-name="a.alt2" horiz-adv-x="1118" 
d="M1110 23q-25 -17 -53 -26t-65 -9q-62 0 -101.5 40t-39.5 113v5q-116 -76 -225 -118.5t-225 -42.5q-95 0 -168 27t-113.5 79t-40.5 125q0 81 52 141.5t140.5 93t194.5 32.5q198 0 392 -87l32 83h59v-322q0 -44 18.5 -65.5t46.5 -21.5q38 0 70 23zM623 108.5
q113 39.5 228 110.5v110q-82 32 -181 52t-193 20q-85 0 -152 -22.5t-105.5 -63.5t-38.5 -94q0 -70 62 -111t172 -41q95 0 208 39.5z" />
    <glyph glyph-name="aacute" unicode="&#xe1;" horiz-adv-x="1052" 
d="M1044 23q-51 -35 -113 -35q-46 0 -81 27t-48 72q-98 -47 -212 -73.5t-225 -26.5q-128 0 -196.5 38t-68.5 108q0 77 85.5 118t241.5 41q184 0 368 -52q-5 84 -72.5 125.5t-206.5 41.5q-169 0 -382 -66l-22 74q207 68 420 68q177 0 264.5 -67t87.5 -189v-75q0 -41 19 -61.5
t47 -20.5q35 0 67 22zM248.5 83q44.5 -18 138.5 -18q89 0 199 21t210 57v41q-183 35 -369 35q-106 0 -164.5 -21.5t-58.5 -60.5q0 -36 44.5 -54zM432 556l322 166l-48 77l-303 -201z" />
    <glyph glyph-name="aacute.alt" horiz-adv-x="1079" 
d="M1071 195v-43q0 -66 -34.5 -112.5t-104.5 -46.5q-104 0 -135 92q-98 -45 -215.5 -71.5t-224.5 -26.5q-126 0 -193 36.5t-67 111.5q0 78 85.5 117t233.5 39q160 0 369 -44q-4 78 -68.5 119t-203.5 41q-169 0 -382 -66l-22 74q207 68 420 68q177 0 264.5 -67t87.5 -189v-66
q0 -49 15 -74.5t52 -25.5q33 0 49 25t16 66v43h58zM575.5 86q111.5 21 210.5 56q-1 7 -1 23v17q-207 36 -359 36q-107 0 -166 -20t-59 -61q0 -39 45.5 -55.5t132.5 -16.5q85 0 196.5 21zM432 556l322 166l-48 77l-303 -201z" />
    <glyph glyph-name="aacute.alt2" horiz-adv-x="1118" 
d="M1110 23q-25 -17 -53 -26t-65 -9q-62 0 -101.5 40t-39.5 113v5q-116 -76 -225 -118.5t-225 -42.5q-95 0 -168 27t-113.5 79t-40.5 125q0 81 52 141.5t140.5 93t194.5 32.5q198 0 392 -87l32 83h59v-322q0 -44 18.5 -65.5t46.5 -21.5q38 0 70 23zM623 108.5
q113 39.5 228 110.5v110q-82 32 -181 52t-193 20q-85 0 -152 -22.5t-105.5 -63.5t-38.5 -94q0 -70 62 -111t172 -41q95 0 208 39.5zM452 555l322 166l-48 77l-303 -201z" />
    <glyph glyph-name="abreve" unicode="&#x103;" horiz-adv-x="1052" 
d="M1044 23q-51 -35 -113 -35q-46 0 -81 27t-48 72q-98 -47 -212 -73.5t-225 -26.5q-128 0 -196.5 38t-68.5 108q0 77 85.5 118t241.5 41q184 0 368 -52q-5 84 -72.5 125.5t-206.5 41.5q-169 0 -382 -66l-22 74q207 68 420 68q177 0 264.5 -67t87.5 -189v-75q0 -41 19 -61.5
t47 -20.5q35 0 67 22zM248.5 83q44.5 -18 138.5 -18q89 0 199 21t210 57v41q-183 35 -369 35q-106 0 -164.5 -21.5t-58.5 -60.5q0 -36 44.5 -54zM408 612q-50 27 -81.5 70.5t-39.5 91.5l61 12q16 -52 64.5 -85.5t105.5 -33.5q56 0 104 33.5t64 85.5l61 -12
q-8 -48 -39.5 -91.5t-81 -70.5t-109.5 -27q-59 0 -109 27z" />
    <glyph glyph-name="abreve.alt" horiz-adv-x="1079" 
d="M1071 195v-43q0 -66 -34.5 -112.5t-104.5 -46.5q-104 0 -135 92q-98 -45 -215.5 -71.5t-224.5 -26.5q-126 0 -193 36.5t-67 111.5q0 78 85.5 117t233.5 39q160 0 369 -44q-4 78 -68.5 119t-203.5 41q-169 0 -382 -66l-22 74q207 68 420 68q177 0 264.5 -67t87.5 -189v-66
q0 -49 15 -74.5t52 -25.5q33 0 49 25t16 66v43h58zM575.5 86q111.5 21 210.5 56q-1 7 -1 23v17q-207 36 -359 36q-107 0 -166 -20t-59 -61q0 -39 45.5 -55.5t132.5 -16.5q85 0 196.5 21zM408 612q-50 27 -81.5 70.5t-39.5 91.5l61 12q16 -52 64.5 -85.5t105.5 -33.5
q56 0 104 33.5t64 85.5l61 -12q-8 -48 -39.5 -91.5t-81 -70.5t-109.5 -27q-59 0 -109 27z" />
    <glyph glyph-name="abreve.alt2" horiz-adv-x="1118" 
d="M1110 23q-25 -17 -53 -26t-65 -9q-62 0 -101.5 40t-39.5 113v5q-116 -76 -225 -118.5t-225 -42.5q-95 0 -168 27t-113.5 79t-40.5 125q0 81 52 141.5t140.5 93t194.5 32.5q198 0 392 -87l32 83h59v-322q0 -44 18.5 -65.5t46.5 -21.5q38 0 70 23zM623 108.5
q113 39.5 228 110.5v110q-82 32 -181 52t-193 20q-85 0 -152 -22.5t-105.5 -63.5t-38.5 -94q0 -70 62 -111t172 -41q95 0 208 39.5zM428 611q-50 27 -81.5 70.5t-39.5 91.5l61 12q16 -52 64.5 -85.5t105.5 -33.5q56 0 104 33.5t64 85.5l61 -12q-8 -48 -39.5 -91.5t-81 -70.5
t-109.5 -27q-59 0 -109 27z" />
    <glyph glyph-name="acircumflex" unicode="&#xe2;" horiz-adv-x="1052" 
d="M1044 23q-51 -35 -113 -35q-46 0 -81 27t-48 72q-98 -47 -212 -73.5t-225 -26.5q-128 0 -196.5 38t-68.5 108q0 77 85.5 118t241.5 41q184 0 368 -52q-5 84 -72.5 125.5t-206.5 41.5q-169 0 -382 -66l-22 74q207 68 420 68q177 0 264.5 -67t87.5 -189v-75q0 -41 19 -61.5
t47 -20.5q35 0 67 22zM248.5 83q44.5 -18 138.5 -18q89 0 199 21t210 57v41q-183 35 -369 35q-106 0 -164.5 -21.5t-58.5 -60.5q0 -36 44.5 -54zM287 587l201 162h59l202 -162l-21 -32l-211 125l-209 -125z" />
    <glyph glyph-name="acircumflex.alt" horiz-adv-x="1079" 
d="M1071 195v-43q0 -66 -34.5 -112.5t-104.5 -46.5q-104 0 -135 92q-98 -45 -215.5 -71.5t-224.5 -26.5q-126 0 -193 36.5t-67 111.5q0 78 85.5 117t233.5 39q160 0 369 -44q-4 78 -68.5 119t-203.5 41q-169 0 -382 -66l-22 74q207 68 420 68q177 0 264.5 -67t87.5 -189v-66
q0 -49 15 -74.5t52 -25.5q33 0 49 25t16 66v43h58zM575.5 86q111.5 21 210.5 56q-1 7 -1 23v17q-207 36 -359 36q-107 0 -166 -20t-59 -61q0 -39 45.5 -55.5t132.5 -16.5q85 0 196.5 21zM287 587l201 162h59l202 -162l-21 -32l-211 125l-209 -125z" />
    <glyph glyph-name="acircumflex.alt2" horiz-adv-x="1118" 
d="M1110 23q-25 -17 -53 -26t-65 -9q-62 0 -101.5 40t-39.5 113v5q-116 -76 -225 -118.5t-225 -42.5q-95 0 -168 27t-113.5 79t-40.5 125q0 81 52 141.5t140.5 93t194.5 32.5q198 0 392 -87l32 83h59v-322q0 -44 18.5 -65.5t46.5 -21.5q38 0 70 23zM623 108.5
q113 39.5 228 110.5v110q-82 32 -181 52t-193 20q-85 0 -152 -22.5t-105.5 -63.5t-38.5 -94q0 -70 62 -111t172 -41q95 0 208 39.5zM307 586l201 162h59l202 -162l-21 -32l-211 125l-209 -125z" />
    <glyph glyph-name="adieresis" unicode="&#xe4;" horiz-adv-x="1052" 
d="M1044 23q-51 -35 -113 -35q-46 0 -81 27t-48 72q-98 -47 -212 -73.5t-225 -26.5q-128 0 -196.5 38t-68.5 108q0 77 85.5 118t241.5 41q184 0 368 -52q-5 84 -72.5 125.5t-206.5 41.5q-169 0 -382 -66l-22 74q207 68 420 68q177 0 264.5 -67t87.5 -189v-75q0 -41 19 -61.5
t47 -20.5q35 0 67 22zM248.5 83q44.5 -18 138.5 -18q89 0 199 21t210 57v41q-183 35 -369 35q-106 0 -164.5 -21.5t-58.5 -60.5q0 -36 44.5 -54zM305 626q-21 16 -21 39q0 24 20.5 39t54.5 15t54.5 -15t20.5 -39q0 -23 -20.5 -39t-54.5 -16q-33 0 -54 16zM616.5 626
q-21.5 16 -21.5 39q0 24 21 39t55 15q35 0 54.5 -15t19.5 -39q0 -23 -20 -39t-54 -16q-33 0 -54.5 16z" />
    <glyph glyph-name="adieresis.alt" horiz-adv-x="1079" 
d="M1071 195v-43q0 -66 -34.5 -112.5t-104.5 -46.5q-104 0 -135 92q-98 -45 -215.5 -71.5t-224.5 -26.5q-126 0 -193 36.5t-67 111.5q0 78 85.5 117t233.5 39q160 0 369 -44q-4 78 -68.5 119t-203.5 41q-169 0 -382 -66l-22 74q207 68 420 68q177 0 264.5 -67t87.5 -189v-66
q0 -49 15 -74.5t52 -25.5q33 0 49 25t16 66v43h58zM575.5 86q111.5 21 210.5 56q-1 7 -1 23v17q-207 36 -359 36q-107 0 -166 -20t-59 -61q0 -39 45.5 -55.5t132.5 -16.5q85 0 196.5 21zM305 626q-21 16 -21 39q0 24 20.5 39t54.5 15t54.5 -15t20.5 -39q0 -23 -20.5 -39
t-54.5 -16q-33 0 -54 16zM616.5 626q-21.5 16 -21.5 39q0 24 21 39t55 15q35 0 54.5 -15t19.5 -39q0 -23 -20 -39t-54 -16q-33 0 -54.5 16z" />
    <glyph glyph-name="adieresis.alt2" horiz-adv-x="1118" 
d="M1110 23q-25 -17 -53 -26t-65 -9q-62 0 -101.5 40t-39.5 113v5q-116 -76 -225 -118.5t-225 -42.5q-95 0 -168 27t-113.5 79t-40.5 125q0 81 52 141.5t140.5 93t194.5 32.5q198 0 392 -87l32 83h59v-322q0 -44 18.5 -65.5t46.5 -21.5q38 0 70 23zM623 108.5
q113 39.5 228 110.5v110q-82 32 -181 52t-193 20q-85 0 -152 -22.5t-105.5 -63.5t-38.5 -94q0 -70 62 -111t172 -41q95 0 208 39.5zM325 625q-21 16 -21 39q0 24 20.5 39t54.5 15t54.5 -15t20.5 -39q0 -23 -20.5 -39t-54.5 -16q-33 0 -54 16zM636.5 625q-21.5 16 -21.5 39
q0 24 21 39t55 15q35 0 54.5 -15t19.5 -39q0 -23 -20 -39t-54 -16q-33 0 -54.5 16z" />
    <glyph glyph-name="agrave" unicode="&#xe0;" horiz-adv-x="1052" 
d="M1044 23q-51 -35 -113 -35q-46 0 -81 27t-48 72q-98 -47 -212 -73.5t-225 -26.5q-128 0 -196.5 38t-68.5 108q0 77 85.5 118t241.5 41q184 0 368 -52q-5 84 -72.5 125.5t-206.5 41.5q-169 0 -382 -66l-22 74q207 68 420 68q177 0 264.5 -67t87.5 -189v-75q0 -41 19 -61.5
t47 -20.5q35 0 67 22zM248.5 83q44.5 -18 138.5 -18q89 0 199 21t210 57v41q-183 35 -369 35q-106 0 -164.5 -21.5t-58.5 -60.5q0 -36 44.5 -54zM327 799l-47 -77l322 -166l29 42z" />
    <glyph glyph-name="agrave.alt" horiz-adv-x="1079" 
d="M1071 195v-43q0 -66 -34.5 -112.5t-104.5 -46.5q-104 0 -135 92q-98 -45 -215.5 -71.5t-224.5 -26.5q-126 0 -193 36.5t-67 111.5q0 78 85.5 117t233.5 39q160 0 369 -44q-4 78 -68.5 119t-203.5 41q-169 0 -382 -66l-22 74q207 68 420 68q177 0 264.5 -67t87.5 -189v-66
q0 -49 15 -74.5t52 -25.5q33 0 49 25t16 66v43h58zM575.5 86q111.5 21 210.5 56q-1 7 -1 23v17q-207 36 -359 36q-107 0 -166 -20t-59 -61q0 -39 45.5 -55.5t132.5 -16.5q85 0 196.5 21zM327 799l-47 -77l322 -166l29 42z" />
    <glyph glyph-name="agrave.alt2" horiz-adv-x="1118" 
d="M1110 23q-25 -17 -53 -26t-65 -9q-62 0 -101.5 40t-39.5 113v5q-116 -76 -225 -118.5t-225 -42.5q-95 0 -168 27t-113.5 79t-40.5 125q0 81 52 141.5t140.5 93t194.5 32.5q198 0 392 -87l32 83h59v-322q0 -44 18.5 -65.5t46.5 -21.5q38 0 70 23zM623 108.5
q113 39.5 228 110.5v110q-82 32 -181 52t-193 20q-85 0 -152 -22.5t-105.5 -63.5t-38.5 -94q0 -70 62 -111t172 -41q95 0 208 39.5zM347 798l-47 -77l322 -166l29 42z" />
    <glyph glyph-name="amacron" unicode="&#x101;" horiz-adv-x="1052" 
d="M1044 23q-51 -35 -113 -35q-46 0 -81 27t-48 72q-98 -47 -212 -73.5t-225 -26.5q-128 0 -196.5 38t-68.5 108q0 77 85.5 118t241.5 41q184 0 368 -52q-5 84 -72.5 125.5t-206.5 41.5q-169 0 -382 -66l-22 74q207 68 420 68q177 0 264.5 -67t87.5 -189v-75q0 -41 19 -61.5
t47 -20.5q35 0 67 22zM248.5 83q44.5 -18 138.5 -18q89 0 199 21t210 57v41q-183 35 -369 35q-106 0 -164.5 -21.5t-58.5 -60.5q0 -36 44.5 -54zM810 619l-599 1v72l599 -2v-71z" />
    <glyph glyph-name="amacron.alt" horiz-adv-x="1079" 
d="M1071 195v-43q0 -66 -34.5 -112.5t-104.5 -46.5q-104 0 -135 92q-98 -45 -215.5 -71.5t-224.5 -26.5q-126 0 -193 36.5t-67 111.5q0 78 85.5 117t233.5 39q160 0 369 -44q-4 78 -68.5 119t-203.5 41q-169 0 -382 -66l-22 74q207 68 420 68q177 0 264.5 -67t87.5 -189v-66
q0 -49 15 -74.5t52 -25.5q33 0 49 25t16 66v43h58zM575.5 86q111.5 21 210.5 56q-1 7 -1 23v17q-207 36 -359 36q-107 0 -166 -20t-59 -61q0 -39 45.5 -55.5t132.5 -16.5q85 0 196.5 21zM810 619l-599 1v72l599 -2v-71z" />
    <glyph glyph-name="amacron.alt2" horiz-adv-x="1118" 
d="M1110 23q-25 -17 -53 -26t-65 -9q-62 0 -101.5 40t-39.5 113v5q-116 -76 -225 -118.5t-225 -42.5q-95 0 -168 27t-113.5 79t-40.5 125q0 81 52 141.5t140.5 93t194.5 32.5q198 0 392 -87l32 83h59v-322q0 -44 18.5 -65.5t46.5 -21.5q38 0 70 23zM623 108.5
q113 39.5 228 110.5v110q-82 32 -181 52t-193 20q-85 0 -152 -22.5t-105.5 -63.5t-38.5 -94q0 -70 62 -111t172 -41q95 0 208 39.5zM830 618l-599 1v72l599 -2v-71z" />
    <glyph glyph-name="aogonek" unicode="&#x105;" horiz-adv-x="1052" 
d="M1196 -148q-79 -50 -169 -50q-66 0 -111.5 28t-45.5 77q0 48 35 83q-38 8 -65.5 33t-37.5 64q-98 -47 -212 -73.5t-225 -26.5q-128 0 -196.5 38t-68.5 108q0 77 85.5 118t241.5 41q184 0 368 -52q-5 84 -72.5 125.5t-206.5 41.5q-169 0 -382 -66l-22 74q207 68 420 68
q177 0 264.5 -67t87.5 -189v-75q0 -41 19 -61.5t47 -20.5q35 0 67 22l26 -68l2 -1h-2q-31 -22 -65 -30q-44 -30 -44 -70q0 -29 29 -44.5t71 -15.5q73 0 139 43zM248.5 83q44.5 -18 138.5 -18q89 0 199 21t210 57v41q-183 35 -369 35q-106 0 -164.5 -21.5t-58.5 -60.5
q0 -36 44.5 -54z" />
    <glyph glyph-name="aogonek.alt" horiz-adv-x="1079" 
d="M1167 -148q-79 -50 -169 -50q-66 0 -111.5 28t-45.5 77q0 55 44 92q-66 18 -88 86q-98 -45 -215.5 -71.5t-224.5 -26.5q-126 0 -193 36.5t-67 111.5q0 78 85.5 117t233.5 39q160 0 369 -44q-4 78 -68.5 119t-203.5 41q-169 0 -382 -66l-22 74q207 68 420 68
q177 0 264.5 -67t87.5 -189v-66q0 -49 15 -74.5t52 -25.5q33 0 49 25t16 66v43h58v-43q0 -61 -30 -106.5t-91 -51.5q-45 -31 -45 -71q0 -29 29 -44.5t71 -15.5q73 0 139 43zM575.5 86q111.5 21 210.5 56q-1 7 -1 23v17q-207 36 -359 36q-107 0 -166 -20t-59 -61
q0 -39 45.5 -55.5t132.5 -16.5q85 0 196.5 21z" />
    <glyph glyph-name="aogonek.alt2" horiz-adv-x="1118" 
d="M1221 -164q-79 -50 -169 -50q-66 0 -111.5 28t-45.5 77q0 62 57 102q-46 12 -73.5 50t-27.5 98v5q-116 -76 -225 -118.5t-225 -42.5q-95 0 -168 27t-113.5 79t-40.5 125q0 81 52 141.5t140.5 93t194.5 32.5q198 0 392 -87l32 83h59v-322q0 -44 18.5 -65.5t46.5 -21.5
q38 0 70 23l26 -70q-41 -27 -84 -33q-30 -15 -48.5 -36t-18.5 -47q0 -29 29 -44.5t71 -15.5q73 0 139 43zM623 108.5q113 39.5 228 110.5v110q-82 32 -181 52t-193 20q-85 0 -152 -22.5t-105.5 -63.5t-38.5 -94q0 -70 62 -111t172 -41q95 0 208 39.5z" />
    <glyph glyph-name="aring" unicode="&#xe5;" horiz-adv-x="1052" 
d="M1044 23q-51 -35 -113 -35q-46 0 -81 27t-48 72q-98 -47 -212 -73.5t-225 -26.5q-128 0 -196.5 38t-68.5 108q0 77 85.5 118t241.5 41q184 0 368 -52q-5 84 -72.5 125.5t-206.5 41.5q-169 0 -382 -66l-22 74q207 68 420 68q177 0 264.5 -67t87.5 -189v-75q0 -41 19 -61.5
t47 -20.5q35 0 67 22zM248.5 83q44.5 -18 138.5 -18q89 0 199 21t210 57v41q-183 35 -369 35q-106 0 -164.5 -21.5t-58.5 -60.5q0 -36 44.5 -54zM426.5 588.5q-41.5 18.5 -65.5 50t-24 70.5q0 41 24 72.5t65 49t91 17.5t91.5 -18t65.5 -50t24 -71q0 -41 -24 -72.5t-65.5 -49
t-91.5 -17.5q-49 0 -90.5 18.5zM605 647.5q35 24.5 35 61.5q0 36 -35 61t-88 25q-52 0 -87 -24.5t-35 -61.5q0 -35 35.5 -60.5t86.5 -25.5q53 0 88 24.5z" />
    <glyph glyph-name="aring.alt" horiz-adv-x="1079" 
d="M1071 195v-43q0 -66 -34.5 -112.5t-104.5 -46.5q-104 0 -135 92q-98 -45 -215.5 -71.5t-224.5 -26.5q-126 0 -193 36.5t-67 111.5q0 78 85.5 117t233.5 39q160 0 369 -44q-4 78 -68.5 119t-203.5 41q-169 0 -382 -66l-22 74q207 68 420 68q177 0 264.5 -67t87.5 -189v-66
q0 -49 15 -74.5t52 -25.5q33 0 49 25t16 66v43h58zM575.5 86q111.5 21 210.5 56q-1 7 -1 23v17q-207 36 -359 36q-107 0 -166 -20t-59 -61q0 -39 45.5 -55.5t132.5 -16.5q85 0 196.5 21zM426.5 588.5q-41.5 18.5 -65.5 50t-24 70.5q0 41 24 72.5t65 49t91 17.5t91.5 -18
t65.5 -50t24 -71q0 -41 -24 -72.5t-65.5 -49t-91.5 -17.5q-49 0 -90.5 18.5zM605 647.5q35 24.5 35 61.5q0 36 -35 61t-88 25q-52 0 -87 -24.5t-35 -61.5q0 -35 35.5 -60.5t86.5 -25.5q53 0 88 24.5z" />
    <glyph glyph-name="aring.alt2" horiz-adv-x="1118" 
d="M1110 23q-25 -17 -53 -26t-65 -9q-62 0 -101.5 40t-39.5 113v5q-116 -76 -225 -118.5t-225 -42.5q-95 0 -168 27t-113.5 79t-40.5 125q0 81 52 141.5t140.5 93t194.5 32.5q198 0 392 -87l32 83h59v-322q0 -44 18.5 -65.5t46.5 -21.5q38 0 70 23zM623 108.5
q113 39.5 228 110.5v110q-82 32 -181 52t-193 20q-85 0 -152 -22.5t-105.5 -63.5t-38.5 -94q0 -70 62 -111t172 -41q95 0 208 39.5zM446.5 587.5q-41.5 18.5 -65.5 50t-24 70.5q0 41 24 72.5t65 49t91 17.5t91.5 -18t65.5 -50t24 -71q0 -41 -24 -72.5t-65.5 -49t-91.5 -17.5
q-49 0 -90.5 18.5zM625 646.5q35 24.5 35 61.5q0 36 -35 61t-88 25q-52 0 -87 -24.5t-35 -61.5q0 -35 35.5 -60.5t86.5 -25.5q53 0 88 24.5z" />
    <glyph glyph-name="atilde" unicode="&#xe3;" horiz-adv-x="1052" 
d="M1044 23q-51 -35 -113 -35q-46 0 -81 27t-48 72q-98 -47 -212 -73.5t-225 -26.5q-128 0 -196.5 38t-68.5 108q0 77 85.5 118t241.5 41q184 0 368 -52q-5 84 -72.5 125.5t-206.5 41.5q-169 0 -382 -66l-22 74q207 68 420 68q177 0 264.5 -67t87.5 -189v-75q0 -41 19 -61.5
t47 -20.5q35 0 67 22zM248.5 83q44.5 -18 138.5 -18q89 0 199 21t210 57v41q-183 35 -369 35q-106 0 -164.5 -21.5t-58.5 -60.5q0 -36 44.5 -54zM567 599q-30 12 -73 36q-43 25 -69 37t-53 12q-34 0 -58 -25.5t-32 -75.5l-59 16q9 67 48.5 108t103.5 41q38 0 69 -12.5
t78 -37.5q36 -22 62 -33.5t51 -11.5q36 0 59 25.5t31 71.5l58 -15q-9 -66 -48.5 -107t-102.5 -41q-35 0 -65 12z" />
    <glyph glyph-name="atilde.alt" horiz-adv-x="1079" 
d="M1071 195v-43q0 -66 -34.5 -112.5t-104.5 -46.5q-104 0 -135 92q-98 -45 -215.5 -71.5t-224.5 -26.5q-126 0 -193 36.5t-67 111.5q0 78 85.5 117t233.5 39q160 0 369 -44q-4 78 -68.5 119t-203.5 41q-169 0 -382 -66l-22 74q207 68 420 68q177 0 264.5 -67t87.5 -189v-66
q0 -49 15 -74.5t52 -25.5q33 0 49 25t16 66v43h58zM575.5 86q111.5 21 210.5 56q-1 7 -1 23v17q-207 36 -359 36q-107 0 -166 -20t-59 -61q0 -39 45.5 -55.5t132.5 -16.5q85 0 196.5 21zM567 599q-30 12 -73 36q-43 25 -69 37t-53 12q-34 0 -58 -25.5t-32 -75.5l-59 16
q9 67 48.5 108t103.5 41q38 0 69 -12.5t78 -37.5q36 -22 62 -33.5t51 -11.5q36 0 59 25.5t31 71.5l58 -15q-9 -66 -48.5 -107t-102.5 -41q-35 0 -65 12z" />
    <glyph glyph-name="atilde.alt2" horiz-adv-x="1118" 
d="M1110 23q-25 -17 -53 -26t-65 -9q-62 0 -101.5 40t-39.5 113v5q-116 -76 -225 -118.5t-225 -42.5q-95 0 -168 27t-113.5 79t-40.5 125q0 81 52 141.5t140.5 93t194.5 32.5q198 0 392 -87l32 83h59v-322q0 -44 18.5 -65.5t46.5 -21.5q38 0 70 23zM623 108.5
q113 39.5 228 110.5v110q-82 32 -181 52t-193 20q-85 0 -152 -22.5t-105.5 -63.5t-38.5 -94q0 -70 62 -111t172 -41q95 0 208 39.5zM587 598q-30 12 -73 36q-43 25 -69 37t-53 12q-34 0 -58 -25.5t-32 -75.5l-59 16q9 67 48.5 108t103.5 41q38 0 69 -12.5t78 -37.5
q36 -22 62 -33.5t51 -11.5q36 0 59 25.5t31 71.5l58 -15q-9 -66 -48.5 -107t-102.5 -41q-35 0 -65 12z" />
    <glyph glyph-name="ae" unicode="&#xe6;" horiz-adv-x="1637" 
d="M1554 81q-173 -100 -389 -100q-107 0 -208 33t-152 92q-99 -57 -222 -90.5t-235 -33.5q-114 1 -181 37t-67 113q0 82 80 121t214 39q89 0 179 -11t192 -29q-5 71 -68.5 114.5t-171.5 43.5q-93 0 -182 -14.5t-198 -43.5l-17 78q216 62 417 62q103 0 174 -36.5t104 -102.5
q52 64 152 100t218 36q154 0 248.5 -40.5t94.5 -119.5t-89 -115.5t-219 -36.5q-89 0 -177 12.5t-192 36.5q0 -50 42.5 -88t111 -58t146.5 -20q103 -2 189.5 20t167.5 67zM997.5 378q-95.5 -35 -126.5 -98q172 -37 353 -37q214 0 214 81q0 43 -65.5 66t-171.5 23
q-108 0 -203.5 -35zM778 147q-10 21 -13 50q-107 14 -191 21t-166 7q-94 0 -147.5 -22t-53.5 -66q0 -39 44 -58t119 -19q200 0 408 87z" />
    <glyph glyph-name="b" unicode="b" horiz-adv-x="1127" 
d="M894 457q73 -27 113.5 -79t40.5 -125q0 -81 -52.5 -141.5t-141 -93t-194.5 -32.5q-198 0 -392 87l-32 -73h-58v607h-210v79h309v-362q116 76 224 118t225 42q95 0 168 -27zM801 90.5q68 22.5 106.5 63.5t38.5 94q0 71 -62 111.5t-173 40.5q-95 0 -207.5 -39t-226.5 -109
v-113q84 -32 181.5 -51.5t189.5 -18.5q85 -1 153 21.5z" />
    <glyph glyph-name="c" unicode="c" horiz-adv-x="979" 
d="M882 102q-83 -54 -186.5 -84.5t-222.5 -30.5q-117 0 -206 30.5t-138.5 86t-49.5 126.5q0 80 52 137.5t139.5 87t192.5 30.5q96 0 183 -27t150 -71v84h74v-183l-37 -7q-68 64 -159.5 95.5t-194.5 31.5q-84 0 -152 -20.5t-107 -60.5t-39 -95q0 -50 38.5 -87.5t107.5 -58
t159 -20.5q103 0 193.5 27.5t166.5 76.5z" />
    <glyph glyph-name="cacute" unicode="&#x107;" horiz-adv-x="979" 
d="M882 102q-83 -54 -186.5 -84.5t-222.5 -30.5q-117 0 -206 30.5t-138.5 86t-49.5 126.5q0 80 52 137.5t139.5 87t192.5 30.5q96 0 183 -27t150 -71v84h74v-183l-37 -7q-68 64 -159.5 95.5t-194.5 31.5q-84 0 -152 -20.5t-107 -60.5t-39 -95q0 -50 38.5 -87.5t107.5 -58
t159 -20.5q103 0 193.5 27.5t166.5 76.5zM404 556l322 166l-48 77l-303 -201z" />
    <glyph glyph-name="ccaron" unicode="&#x10d;" horiz-adv-x="979" 
d="M882 102q-83 -54 -186.5 -84.5t-222.5 -30.5q-117 0 -206 30.5t-138.5 86t-49.5 126.5q0 80 52 137.5t139.5 87t192.5 30.5q96 0 183 -27t150 -71v84h74v-183l-37 -7q-68 64 -159.5 95.5t-194.5 31.5q-84 0 -152 -20.5t-107 -60.5t-39 -95q0 -50 38.5 -87.5t107.5 -58
t159 -20.5q103 0 193.5 27.5t166.5 76.5zM721 729l-202 -163h-59l-201 163l21 32l210 -125l210 125z" />
    <glyph glyph-name="ccedilla" unicode="&#xe7;" horiz-adv-x="979" 
d="M611 -100.5q36 -23.5 36 -64.5q0 -44 -44 -70t-125 -26q-111 0 -193 41l24 51q33 -16 78 -26t94 -10q48 0 74 10.5t26 29.5t-21.5 29.5t-60.5 10.5q-35 0 -87 -4l-23 -1l-7 9l43 109q-104 6 -182 38.5t-121 85t-43 118.5q0 80 52 137.5t139.5 87t192.5 30.5q96 0 183 -27
t150 -71v84h74v-183l-37 -7q-68 64 -159.5 95.5t-194.5 31.5q-84 0 -152 -20.5t-107 -60.5t-39 -95q0 -50 38.5 -87.5t107.5 -58t159 -20.5q103 0 193.5 27.5t166.5 76.5l36 -68q-82 -53 -184 -83.5t-218 -31.5l-26 -66q40 2 63 2q58 0 94 -23.5z" />
    <glyph glyph-name="cdotaccent" unicode="&#x10b;" horiz-adv-x="979" 
d="M882 102q-83 -54 -186.5 -84.5t-222.5 -30.5q-117 0 -206 30.5t-138.5 86t-49.5 126.5q0 80 52 137.5t139.5 87t192.5 30.5q96 0 183 -27t150 -71v84h74v-183l-37 -7q-68 64 -159.5 95.5t-194.5 31.5q-84 0 -152 -20.5t-107 -60.5t-39 -95q0 -50 38.5 -87.5t107.5 -58
t159 -20.5q103 0 193.5 27.5t166.5 76.5zM426.5 609q-23.5 17 -23.5 43q0 27 23.5 44t63.5 17q41 0 64 -17t23 -44q0 -26 -23.5 -43t-63.5 -17t-63.5 17z" />
    <glyph glyph-name="d" unicode="d" horiz-adv-x="1165" 
d="M1110 23q-25 -17 -53 -26t-65 -9q-62 0 -101.5 40t-39.5 113v5q-116 -76 -225 -118.5t-225 -42.5q-95 0 -168 27t-113.5 79t-40.5 125q0 81 52 141.5t140.5 93t194.5 32.5q191 0 385 -83v207h-205v79h303v-529q0 -44 18.5 -65.5t46.5 -21.5q36 0 70 23zM623 108.5
q113 39.5 228 110.5v110q-82 32 -181 52t-193 20q-85 0 -152 -22.5t-105.5 -63.5t-38.5 -94q0 -70 62 -111t172 -41q95 0 208 39.5z" />
    <glyph glyph-name="d.alt" horiz-adv-x="1145" 
d="M1137 185v-43q0 -68 -34 -113.5t-106 -45.5q-71 0 -107.5 44t-38.5 119q-116 -76 -225 -118.5t-225 -42.5q-95 0 -168 27t-113.5 79t-40.5 125q0 81 52 141.5t140.5 93t194.5 32.5q191 0 385 -83v207h-205v79h303v-534q0 -49 15.5 -75.5t51.5 -26.5q32 0 48.5 25t16.5 66
v44h56zM243.5 109.5q62.5 -41.5 171.5 -41.5q95 0 208 39.5t228 110.5v111q-83 32 -182.5 52t-194.5 20q-84 0 -150.5 -22.5t-104.5 -63.5t-38 -94q0 -70 62.5 -111.5z" />
    <glyph glyph-name="eth" unicode="&#xf0;" horiz-adv-x="938" 
d="M784 505q77 -97 77 -216q0 -95 -53 -166t-149 -109.5t-222 -38.5q-105 0 -190 27t-133.5 77t-48.5 115t46 114.5t125.5 76.5t178.5 27q89 0 179.5 -21t166.5 -59q-26 165 -243 268l-95 -129l-61 43l85 116q-99 37 -213 59l32 82q129 -26 234 -69l94 129l62 -43l-86 -118
q137 -68 214 -165zM660 106q89 53 102 152q-71 36 -158 56t-172 20q-122 0 -193.5 -37.5t-71.5 -101.5q0 -42 34.5 -74t97 -50t144.5 -18q128 0 217 53z" />
    <glyph glyph-name="dcaron" unicode="&#x10f;" horiz-adv-x="1165" 
d="M1110 23q-25 -17 -53 -26t-65 -9q-62 0 -101.5 40t-39.5 113v5q-116 -76 -225 -118.5t-225 -42.5q-95 0 -168 27t-113.5 79t-40.5 125q0 81 52 141.5t140.5 93t194.5 32.5q191 0 385 -83v207h-205v79h303v-529q0 -44 18.5 -65.5t46.5 -21.5q36 0 70 23zM623 108.5
q113 39.5 228 110.5v110q-82 32 -181 52t-193 20q-85 0 -152 -22.5t-105.5 -63.5t-38.5 -94q0 -70 62 -111t172 -41q95 0 208 39.5zM1214 688q1 -167 -154 -287l-28 26q55 65 81 126t25 142z" />
    <glyph glyph-name="dcaron.alt" horiz-adv-x="1145" 
d="M1137 185v-43q0 -68 -34 -113.5t-106 -45.5q-71 0 -107.5 44t-38.5 119q-116 -76 -225 -118.5t-225 -42.5q-95 0 -168 27t-113.5 79t-40.5 125q0 81 52 141.5t140.5 93t194.5 32.5q191 0 385 -83v207h-205v79h303v-534q0 -49 15.5 -75.5t51.5 -26.5q32 0 48.5 25t16.5 66
v44h56zM243.5 109.5q62.5 -41.5 171.5 -41.5q95 0 208 39.5t228 110.5v111q-83 32 -182.5 52t-194.5 20q-84 0 -150.5 -22.5t-104.5 -63.5t-38 -94q0 -70 62.5 -111.5zM1214 688q1 -167 -154 -287l-28 26q55 65 81 126t25 142z" />
    <glyph glyph-name="dcroat" unicode="&#x111;" horiz-adv-x="1176" 
d="M1116 23q-25 -17 -53 -26t-65 -9q-63 0 -103 40t-40 113v4q-116 -76 -224.5 -118t-224.5 -42q-95 0 -168 27t-113.5 79t-40.5 125q0 81 52 141.5t140.5 93t194.5 32.5q195 0 384 -83v126h-285v73h285v87h100v-87h132v-73h-132v-369q0 -44 18.5 -65.5t46.5 -21.5
q36 0 70 23zM627 107.5q113 39.5 228 109.5v113q-83 32 -182 51.5t-194 19.5q-84 0 -151 -22.5t-105 -63.5t-38 -94q0 -70 62.5 -111.5t172.5 -41.5q94 0 207 39.5z" />
    <glyph glyph-name="dcroat.alt" horiz-adv-x="1176" 
d="M1142 185v-43q0 -68 -34 -113.5t-106 -45.5q-70 0 -107.5 43.5t-39.5 118.5q-116 -76 -224.5 -118t-224.5 -42q-95 0 -168 27t-113.5 79t-40.5 125q0 81 52 141.5t140.5 93t194.5 32.5q195 0 384 -83v126h-285v73h285v87h100v-87h132v-73h-132v-374q0 -50 15 -76t51 -26
q33 0 49.5 25t16.5 66v44h55zM247.5 109.5q62.5 -41.5 172.5 -41.5q94 0 207 39.5t228 109.5v113q-83 32 -182 51.5t-194 19.5q-84 0 -151 -22.5t-105 -63.5t-38 -94q0 -70 62.5 -111.5z" />
    <glyph glyph-name="e" unicode="e" horiz-adv-x="977" 
d="M896 82q-166 -96 -388 -96q-120 0 -217.5 28t-154.5 82.5t-57 132.5q0 77 58 135t158.5 89t223.5 31q164 0 259 -42t95 -119q0 -73 -84.5 -110t-236.5 -37q-173 0 -378 66v-10q0 -51 44.5 -89.5t123 -59t178.5 -20.5q103 0 187 22.5t155 64.5zM325 383q-92 -30 -130 -84
q87 -26 180 -38.5t178 -12.5q111 0 166.5 17.5t55.5 59.5t-66 65t-182 23q-110 0 -202 -30z" />
    <glyph glyph-name="eacute" unicode="&#xe9;" horiz-adv-x="977" 
d="M896 82q-166 -96 -388 -96q-120 0 -217.5 28t-154.5 82.5t-57 132.5q0 77 58 135t158.5 89t223.5 31q164 0 259 -42t95 -119q0 -73 -84.5 -110t-236.5 -37q-173 0 -378 66v-10q0 -51 44.5 -89.5t123 -59t178.5 -20.5q103 0 187 22.5t155 64.5zM325 383q-92 -30 -130 -84
q87 -26 180 -38.5t178 -12.5q111 0 166.5 17.5t55.5 59.5t-66 65t-182 23q-110 0 -202 -30zM402 556l322 166l-48 77l-303 -201z" />
    <glyph glyph-name="ecaron" unicode="&#x11b;" horiz-adv-x="977" 
d="M896 82q-166 -96 -388 -96q-120 0 -217.5 28t-154.5 82.5t-57 132.5q0 77 58 135t158.5 89t223.5 31q164 0 259 -42t95 -119q0 -73 -84.5 -110t-236.5 -37q-173 0 -378 66v-10q0 -51 44.5 -89.5t123 -59t178.5 -20.5q103 0 187 22.5t155 64.5zM325 383q-92 -30 -130 -84
q87 -26 180 -38.5t178 -12.5q111 0 166.5 17.5t55.5 59.5t-66 65t-182 23q-110 0 -202 -30zM719 729l-202 -163h-59l-201 163l21 32l210 -125l210 125z" />
    <glyph glyph-name="ecircumflex" unicode="&#xea;" horiz-adv-x="977" 
d="M896 82q-166 -96 -388 -96q-120 0 -217.5 28t-154.5 82.5t-57 132.5q0 77 58 135t158.5 89t223.5 31q164 0 259 -42t95 -119q0 -73 -84.5 -110t-236.5 -37q-173 0 -378 66v-10q0 -51 44.5 -89.5t123 -59t178.5 -20.5q103 0 187 22.5t155 64.5zM325 383q-92 -30 -130 -84
q87 -26 180 -38.5t178 -12.5q111 0 166.5 17.5t55.5 59.5t-66 65t-182 23q-110 0 -202 -30zM257 587l201 162h59l202 -162l-21 -32l-211 125l-209 -125z" />
    <glyph glyph-name="edieresis" unicode="&#xeb;" horiz-adv-x="977" 
d="M896 82q-166 -96 -388 -96q-120 0 -217.5 28t-154.5 82.5t-57 132.5q0 77 58 135t158.5 89t223.5 31q164 0 259 -42t95 -119q0 -73 -84.5 -110t-236.5 -37q-173 0 -378 66v-10q0 -51 44.5 -89.5t123 -59t178.5 -20.5q103 0 187 22.5t155 64.5zM325 383q-92 -30 -130 -84
q87 -26 180 -38.5t178 -12.5q111 0 166.5 17.5t55.5 59.5t-66 65t-182 23q-110 0 -202 -30zM275 626q-21 16 -21 39q0 24 20.5 39t54.5 15t54.5 -15t20.5 -39q0 -23 -20.5 -39t-54.5 -16q-33 0 -54 16zM586.5 626q-21.5 16 -21.5 39q0 24 21 39t55 15q35 0 54.5 -15
t19.5 -39q0 -23 -20 -39t-54 -16q-33 0 -54.5 16z" />
    <glyph glyph-name="edotaccent" unicode="&#x117;" horiz-adv-x="977" 
d="M896 82q-166 -96 -388 -96q-120 0 -217.5 28t-154.5 82.5t-57 132.5q0 77 58 135t158.5 89t223.5 31q164 0 259 -42t95 -119q0 -73 -84.5 -110t-236.5 -37q-173 0 -378 66v-10q0 -51 44.5 -89.5t123 -59t178.5 -20.5q103 0 187 22.5t155 64.5zM325 383q-92 -30 -130 -84
q87 -26 180 -38.5t178 -12.5q111 0 166.5 17.5t55.5 59.5t-66 65t-182 23q-110 0 -202 -30zM424.5 609q-23.5 17 -23.5 43q0 27 23.5 44t63.5 17q41 0 64 -17t23 -44q0 -26 -23.5 -43t-63.5 -17t-63.5 17z" />
    <glyph glyph-name="egrave" unicode="&#xe8;" horiz-adv-x="977" 
d="M896 82q-166 -96 -388 -96q-120 0 -217.5 28t-154.5 82.5t-57 132.5q0 77 58 135t158.5 89t223.5 31q164 0 259 -42t95 -119q0 -73 -84.5 -110t-236.5 -37q-173 0 -378 66v-10q0 -51 44.5 -89.5t123 -59t178.5 -20.5q103 0 187 22.5t155 64.5zM325 383q-92 -30 -130 -84
q87 -26 180 -38.5t178 -12.5q111 0 166.5 17.5t55.5 59.5t-66 65t-182 23q-110 0 -202 -30zM297 799l-47 -77l322 -166l29 42z" />
    <glyph glyph-name="emacron" unicode="&#x113;" horiz-adv-x="977" 
d="M896 82q-166 -96 -388 -96q-120 0 -217.5 28t-154.5 82.5t-57 132.5q0 77 58 135t158.5 89t223.5 31q164 0 259 -42t95 -119q0 -73 -84.5 -110t-236.5 -37q-173 0 -378 66v-10q0 -51 44.5 -89.5t123 -59t178.5 -20.5q103 0 187 22.5t155 64.5zM325 383q-92 -30 -130 -84
q87 -26 180 -38.5t178 -12.5q111 0 166.5 17.5t55.5 59.5t-66 65t-182 23q-110 0 -202 -30zM780 619l-599 1v72l599 -2v-71z" />
    <glyph glyph-name="eogonek" unicode="&#x119;" horiz-adv-x="977" 
d="M1045 -93q-79 -50 -169 -50q-66 0 -111.5 28t-45.5 77q0 29 12 52q-107 -28 -223 -28q-120 0 -217.5 28t-154.5 82.5t-57 132.5q0 77 58 135t158.5 89t223.5 31q164 0 259 -42t95 -119q0 -73 -84.5 -110t-236.5 -37q-173 0 -378 66v-10q0 -51 44.5 -89.5t123 -59
t178.5 -20.5q103 0 187 22.5t155 64.5l34 -68l-4 -2l2 -2l-11 -3q-34 -19 -58 -28q-42 -30 -42 -69q0 -29 29 -44.5t71 -15.5q73 0 139 43zM325 383q-92 -30 -130 -84q87 -26 180 -38.5t178 -12.5q111 0 166.5 17.5t55.5 59.5t-66 65t-182 23q-110 0 -202 -30z" />
    <glyph glyph-name="f" unicode="f" horiz-adv-x="757" 
d="M359 503v-32h269v-79h-269v-313h243v-79h-530v79h189v313h-189v79h189v28q0 113 61 173.5t179 60.5q124 0 274 -63l-32 -78q-55 25 -116 40t-117 15q-151 0 -151 -144z" />
    <glyph glyph-name="f.alt" horiz-adv-x="718" 
d="M310.5 624q-37.5 -23 -37.5 -63q0 -24 18.5 -48t48.5 -42h230v-79h-211v-313h214v-79h-501v79h189v313h-189v79h184q-40 24 -62.5 51.5t-22.5 67.5q0 39 27 71.5t77.5 52t117.5 19.5q81 0 147.5 -15t141.5 -44l-31 -78q-55 23 -110 37t-119 14q-74 0 -111.5 -23z" />
    <glyph glyph-name="g" unicode="g" horiz-adv-x="988" 
d="M881.5 64.5q51.5 -33.5 51.5 -96.5q0 -62 -62 -105.5t-172.5 -65.5t-253.5 -22q-125 0 -209 20.5t-125 56.5t-41 83q0 33 16.5 59t43.5 44q-42 35 -42 81q0 34 23.5 62.5t59.5 46.5q-39 37 -39 87q0 82 101.5 125.5t260.5 43.5q145 0 238 -34q14 73 67.5 112t122.5 43
v-86q-112 -2 -144 -90q79 -44 79 -114q0 -84 -104.5 -127t-267.5 -43q-81 0 -150.5 13t-116.5 37q-42 -27 -42 -61q0 -32 40.5 -52t128.5 -20q51 0 199 18t198 18q88 0 139.5 -33.5zM303 391q-73 -25 -73 -76q0 -50 73.5 -76.5t190.5 -26.5q118 0 192 26.5t74 76.5
q0 51 -73 76t-193 25q-118 0 -191 -25zM653 -138q88 14 135 39.5t47 59.5q0 60 -104 60q-28 0 -75.5 -5t-97.5 -11q-58 -7 -119 -13t-101 -6q-90 0 -151 22q-25 -23 -25 -55q0 -46 71.5 -75.5t210.5 -29.5q121 0 209 14z" />
    <glyph glyph-name="g.alt" horiz-adv-x="1090" 
d="M946 479v-438q0 -100 -49 -172t-138 -109t-208 -37q-112 0 -229 27t-200 66l34 81q73 -37 181.5 -62t205.5 -25q95 0 163.5 28t105 80.5t36.5 122.5v103q-115 -75 -223 -117t-224 -42q-95 0 -168 27t-113.5 79t-40.5 125q0 81 52 141.5t140.5 93t194.5 32.5
q198 0 390 -86l33 82h57zM621 108q112 39 227 109v113q-83 32 -180.5 51.5t-190.5 19.5q-85 0 -152 -22.5t-105.5 -63.5t-38.5 -94q0 -70 62 -111t172 -41q94 0 206 39z" />
    <glyph glyph-name="gbreve" unicode="&#x11f;" horiz-adv-x="988" 
d="M881.5 64.5q51.5 -33.5 51.5 -96.5q0 -62 -62 -105.5t-172.5 -65.5t-253.5 -22q-125 0 -209 20.5t-125 56.5t-41 83q0 33 16.5 59t43.5 44q-42 35 -42 81q0 34 23.5 62.5t59.5 46.5q-39 37 -39 87q0 82 101.5 125.5t260.5 43.5q145 0 238 -34q14 73 67.5 112t122.5 43
v-86q-112 -2 -144 -90q79 -44 79 -114q0 -84 -104.5 -127t-267.5 -43q-81 0 -150.5 13t-116.5 37q-42 -27 -42 -61q0 -32 40.5 -52t128.5 -20q51 0 199 18t198 18q88 0 139.5 -33.5zM303 391q-73 -25 -73 -76q0 -50 73.5 -76.5t190.5 -26.5q118 0 192 26.5t74 76.5
q0 51 -73 76t-193 25q-118 0 -191 -25zM653 -138q88 14 135 39.5t47 59.5q0 60 -104 60q-28 0 -75.5 -5t-97.5 -11q-58 -7 -119 -13t-101 -6q-90 0 -151 22q-25 -23 -25 -55q0 -46 71.5 -75.5t210.5 -29.5q121 0 209 14zM384 604q-50 27 -81.5 70.5t-39.5 91.5l61 12
q16 -52 64.5 -85.5t105.5 -33.5q56 0 104 33.5t64 85.5l61 -12q-8 -48 -39.5 -91.5t-81 -70.5t-109.5 -27q-59 0 -109 27z" />
    <glyph glyph-name="gbreve.alt" horiz-adv-x="1090" 
d="M946 479v-438q0 -100 -49 -172t-138 -109t-208 -37q-112 0 -229 27t-200 66l34 81q73 -37 181.5 -62t205.5 -25q95 0 163.5 28t105 80.5t36.5 122.5v103q-115 -75 -223 -117t-224 -42q-95 0 -168 27t-113.5 79t-40.5 125q0 81 52 141.5t140.5 93t194.5 32.5
q198 0 390 -86l33 82h57zM621 108q112 39 227 109v113q-83 32 -180.5 51.5t-190.5 19.5q-85 0 -152 -22.5t-105.5 -63.5t-38.5 -94q0 -70 62 -111t172 -41q94 0 206 39zM419 611q-50 27 -81.5 70.5t-39.5 91.5l61 12q16 -52 64.5 -85.5t105.5 -33.5q56 0 104 33.5t64 85.5
l61 -12q-8 -48 -39.5 -91.5t-81 -70.5t-109.5 -27q-59 0 -109 27z" />
    <glyph glyph-name="gcommaaccent" unicode="&#x123;" horiz-adv-x="988" 
d="M881.5 64.5q51.5 -33.5 51.5 -96.5q0 -62 -62 -105.5t-172.5 -65.5t-253.5 -22q-125 0 -209 20.5t-125 56.5t-41 83q0 33 16.5 59t43.5 44q-42 35 -42 81q0 34 23.5 62.5t59.5 46.5q-39 37 -39 87q0 82 101.5 125.5t260.5 43.5q145 0 238 -34q14 73 67.5 112t122.5 43
v-86q-112 -2 -144 -90q79 -44 79 -114q0 -84 -104.5 -127t-267.5 -43q-81 0 -150.5 13t-116.5 37q-42 -27 -42 -61q0 -32 40.5 -52t128.5 -20q51 0 199 18t198 18q88 0 139.5 -33.5zM303 391q-73 -25 -73 -76q0 -50 73.5 -76.5t190.5 -26.5q118 0 192 26.5t74 76.5
q0 51 -73 76t-193 25q-118 0 -191 -25zM653 -138q88 14 135 39.5t47 59.5q0 60 -104 60q-28 0 -75.5 -5t-97.5 -11q-58 -7 -119 -13t-101 -6q-90 0 -151 22q-25 -23 -25 -55q0 -46 71.5 -75.5t210.5 -29.5q121 0 209 14zM449 756q35 47 95 91l25 -26q-96 -79 -106 -137
q15 5 44 5q28 0 45.5 -13t17.5 -34q0 -23 -21.5 -38t-55.5 -15t-56.5 21.5t-22.5 57.5q0 41 35 88z" />
    <glyph glyph-name="gcommaaccent.alt" horiz-adv-x="1090" 
d="M946 479v-438q0 -100 -49 -172t-138 -109t-208 -37q-112 0 -229 27t-200 66l34 81q73 -37 181.5 -62t205.5 -25q95 0 163.5 28t105 80.5t36.5 122.5v103q-115 -75 -223 -117t-224 -42q-95 0 -168 27t-113.5 79t-40.5 125q0 81 52 141.5t140.5 93t194.5 32.5
q198 0 390 -86l33 82h57zM621 108q112 39 227 109v113q-83 32 -180.5 51.5t-190.5 19.5q-85 0 -152 -22.5t-105.5 -63.5t-38.5 -94q0 -70 62 -111t172 -41q94 0 206 39zM484 763q35 47 95 91l25 -26q-96 -79 -106 -137q15 5 44 5q28 0 45.5 -13t17.5 -34q0 -23 -21.5 -38
t-55.5 -15t-56.5 21.5t-22.5 57.5q0 41 35 88z" />
    <glyph glyph-name="gdotaccent" unicode="&#x121;" horiz-adv-x="988" 
d="M881.5 64.5q51.5 -33.5 51.5 -96.5q0 -62 -62 -105.5t-172.5 -65.5t-253.5 -22q-125 0 -209 20.5t-125 56.5t-41 83q0 33 16.5 59t43.5 44q-42 35 -42 81q0 34 23.5 62.5t59.5 46.5q-39 37 -39 87q0 82 101.5 125.5t260.5 43.5q145 0 238 -34q14 73 67.5 112t122.5 43
v-86q-112 -2 -144 -90q79 -44 79 -114q0 -84 -104.5 -127t-267.5 -43q-81 0 -150.5 13t-116.5 37q-42 -27 -42 -61q0 -32 40.5 -52t128.5 -20q51 0 199 18t198 18q88 0 139.5 -33.5zM303 391q-73 -25 -73 -76q0 -50 73.5 -76.5t190.5 -26.5q118 0 192 26.5t74 76.5
q0 51 -73 76t-193 25q-118 0 -191 -25zM653 -138q88 14 135 39.5t47 59.5q0 60 -104 60q-28 0 -75.5 -5t-97.5 -11q-58 -7 -119 -13t-101 -6q-90 0 -151 22q-25 -23 -25 -55q0 -46 71.5 -75.5t210.5 -29.5q121 0 209 14zM430.5 601q-23.5 17 -23.5 43q0 27 23.5 44t63.5 17
q41 0 64 -17t23 -44q0 -26 -23.5 -43t-63.5 -17t-63.5 17z" />
    <glyph glyph-name="gdotaccent.alt" horiz-adv-x="1090" 
d="M946 479v-438q0 -100 -49 -172t-138 -109t-208 -37q-112 0 -229 27t-200 66l34 81q73 -37 181.5 -62t205.5 -25q95 0 163.5 28t105 80.5t36.5 122.5v103q-115 -75 -223 -117t-224 -42q-95 0 -168 27t-113.5 79t-40.5 125q0 81 52 141.5t140.5 93t194.5 32.5
q198 0 390 -86l33 82h57zM621 108q112 39 227 109v113q-83 32 -180.5 51.5t-190.5 19.5q-85 0 -152 -22.5t-105.5 -63.5t-38.5 -94q0 -70 62 -111t172 -41q94 0 206 39zM465.5 608q-23.5 17 -23.5 43q0 27 23.5 44t63.5 17q41 0 64 -17t23 -44q0 -26 -23.5 -43t-63.5 -17
t-63.5 17z" />
    <glyph glyph-name="h" unicode="h" horiz-adv-x="1226" 
d="M1216 79v-79h-472v79h177v96q0 96 -45.5 158.5t-159.5 62.5q-170 0 -373 -182v-135h178v-79h-486v79h210v528h-210v79h308v-392q90 82 186.5 135.5t202.5 53.5q154 0 220.5 -89.5t66.5 -226.5v-88h197z" />
    <glyph glyph-name="hbar" unicode="&#x127;" horiz-adv-x="1245" 
d="M1227 81v-81h-492v81h191v94q0 96 -46 158.5t-160 62.5q-171 0 -374 -182v-133h191v-81h-499v81h210v445h-212v73h212v87h98v-87h261v-73h-261v-233q90 82 187 136t203 54q154 0 220.5 -89.5t66.5 -226.5v-86h204z" />
    <glyph glyph-name="i" unicode="i" horiz-adv-x="627" 
d="M256.5 595q-24.5 17 -24.5 43q0 27 24.5 44.5t63.5 17.5q40 0 63.5 -17t23.5 -45q0 -27 -23 -43.5t-64 -16.5q-39 0 -63.5 17zM583 79v-79h-511v79h210v313h-210v79h308v-392h203z" />
    <glyph glyph-name="dotlessi" unicode="&#x131;" horiz-adv-x="627" 
d="M583 79v-79h-511v79h210v313h-210v79h308v-392h203z" />
    <glyph glyph-name="iacute" unicode="&#xed;" horiz-adv-x="627" 
d="M583 79v-79h-511v79h210v313h-210v79h308v-392h203zM234 543l322 166l-48 77l-303 -201z" />
    <glyph glyph-name="icircumflex" unicode="&#xee;" horiz-adv-x="627" 
d="M583 79v-79h-511v79h210v313h-210v79h308v-392h203zM89 574l201 162h59l202 -162l-21 -32l-211 125l-209 -125z" />
    <glyph glyph-name="idieresis" unicode="&#xef;" horiz-adv-x="627" 
d="M583 79v-79h-511v79h210v313h-210v79h308v-392h203zM107 613q-21 16 -21 39q0 24 20.5 39t54.5 15t54.5 -15t20.5 -39q0 -23 -20.5 -39t-54.5 -16q-33 0 -54 16zM418.5 613q-21.5 16 -21.5 39q0 24 21 39t55 15q35 0 54.5 -15t19.5 -39q0 -23 -20 -39t-54 -16
q-33 0 -54.5 16z" />
    <glyph glyph-name="i.loclTRK" horiz-adv-x="627" 
d="M583 79v-79h-511v79h210v313h-210v79h308v-392h203zM256.5 596q-23.5 17 -23.5 43q0 27 23.5 44t63.5 17q41 0 64 -17t23 -44q0 -26 -23.5 -43t-63.5 -17t-63.5 17z" />
    <glyph glyph-name="igrave" unicode="&#xec;" horiz-adv-x="627" 
d="M583 79v-79h-511v79h210v313h-210v79h308v-392h203zM129 786l-47 -77l322 -166l29 42z" />
    <glyph glyph-name="imacron" unicode="&#x12b;" horiz-adv-x="627" 
d="M583 79v-79h-511v79h210v313h-210v79h308v-392h203zM612 606l-599 1v72l599 -2v-71z" />
    <glyph glyph-name="iogonek" unicode="&#x12f;" horiz-adv-x="627" 
d="M256.5 596q-23.5 17 -23.5 43q0 27 23.5 44t63.5 17q41 0 64 -17t23 -44q0 -26 -23.5 -43t-63.5 -17t-63.5 17zM734 -171q-79 -50 -169 -50q-66 0 -111.5 28t-45.5 77q0 38 21.5 67.5t58.5 48.5h-416v79h210v313h-210v79h308v-392h203v-79q-46 -13 -78.5 -39t-32.5 -61
q0 -29 29 -44.5t71 -15.5q73 0 139 43z" />
    <glyph glyph-name="j" unicode="j" horiz-adv-x="553" 
d="M386.5 683q23.5 -17 23.5 -45q0 -27 -23 -43.5t-64 -16.5q-40 0 -64.5 16.5t-24.5 43.5t24.5 44.5t64.5 17.5t63.5 -17zM357 463h22v-441q0 -123 -61 -191.5t-164 -68.5q-85 0 -182 36l24 81q90 -30 154 -30q63 0 97 44t34 127v372h-209v79h285v-8z" />
    <glyph glyph-name="uni0237" unicode="&#x237;" horiz-adv-x="552" 
d="M379 463v-441q0 -123 -61 -191.5t-164 -68.5q-85 0 -182 36l24 81q90 -30 154 -30q63 0 97 44t34 127v372h-209v79h285v-8h22z" />
    <glyph glyph-name="k" unicode="k" horiz-adv-x="1160" 
d="M1115 124q-19 -69 -73.5 -110t-135.5 -41t-152.5 51t-137.5 147q-147 4 -276 28v-120h191v-79h-496v79h209v528h-209v79h305v-330q231 129 419 129q113 0 176.5 -39t63.5 -108q0 -76 -77 -118t-218 -48q54 -59 98 -85.5t102 -26.5q52 0 90 26t52 74zM340 261
q146 -22 316 -22q110 0 174.5 23.5t64.5 66.5q0 37 -37.5 56t-110.5 19q-163 0 -407 -110v-33z" />
    <glyph glyph-name="k.alt" horiz-adv-x="1112" 
d="M1045 79v-79h-401v79h135l-222 148l-215 -108v-40h191v-79h-498v79h209v528h-209v79h307v-496l397 205h-137v76h397v-76h-107l-248 -125l281 -191h120z" />
    <glyph glyph-name="kcommaaccent" unicode="&#x137;" horiz-adv-x="1160" 
d="M1115 124q-19 -69 -73.5 -110t-135.5 -41t-152.5 51t-137.5 147q-147 4 -276 28v-120h191v-79h-496v79h209v528h-209v79h305v-330q231 129 419 129q113 0 176.5 -39t63.5 -108q0 -76 -77 -118t-218 -48q54 -59 98 -85.5t102 -26.5q52 0 90 26t52 74zM340 261
q146 -22 316 -22q110 0 174.5 23.5t64.5 66.5q0 37 -37.5 56t-110.5 19q-163 0 -407 -110v-33zM677 -278q-35 -47 -95 -91l-25 26q97 79 105 137q-15 -5 -43 -5t-45.5 13t-17.5 34q0 22 21.5 37.5t54.5 15.5q34 0 57 -21.5t23 -57.5q0 -41 -35 -88z" />
    <glyph glyph-name="kcommaaccent.alt" horiz-adv-x="1112" 
d="M1045 79v-79h-401v79h135l-222 148l-215 -108v-40h191v-79h-498v79h209v528h-209v79h307v-496l397 205h-137v76h397v-76h-107l-248 -125l281 -191h120zM648 -278q-35 -47 -95 -91l-25 26q97 79 105 137q-15 -5 -43 -5t-45.5 13t-17.5 34q0 22 21.5 37.5t54.5 15.5
q34 0 57 -21.5t23 -57.5q0 -41 -35 -88z" />
    <glyph glyph-name="l" unicode="l" horiz-adv-x="589" 
d="M545 79v-79h-510v79h209v528h-209v79h307v-607h203z" />
    <glyph glyph-name="lacute" unicode="&#x13a;" horiz-adv-x="589" 
d="M545 79v-79h-510v79h209v528h-209v79h307v-607h203zM191 758l322 166l-48 77l-303 -201z" />
    <glyph glyph-name="lcaron" unicode="&#x13e;" horiz-adv-x="589" 
d="M545 79v-79h-510v79h209v528h-209v79h307v-607h203zM591 687q1 -167 -154 -287l-28 26q55 65 81 126t25 142z" />
    <glyph glyph-name="lcommaaccent" unicode="&#x13c;" horiz-adv-x="589" 
d="M545 79v-79h-510v79h209v528h-209v79h307v-607h203zM327 -278q-35 -47 -95 -91l-25 26q97 79 105 137q-15 -5 -43 -5t-45.5 13t-17.5 34q0 22 21.5 37.5t54.5 15.5q34 0 57 -21.5t23 -57.5q0 -41 -35 -88z" />
    <glyph glyph-name="ldot" unicode="&#x140;" horiz-adv-x="589" 
d="M545 79v-79h-510v79h209v528h-209v79h307v-607h203zM525.5 281q-25.5 18 -25.5 46q0 30 25.5 49t67.5 19q43 0 67.5 -18.5t24.5 -49.5q0 -28 -24.5 -46t-67.5 -18q-42 0 -67.5 18z" />
    <glyph glyph-name="lslash" unicode="&#x142;" horiz-adv-x="589" 
d="M342 323v-244h203v-79h-510v79h209v209l-208 -74v69l208 74v250h-209v79h307v-294l203 73v-69z" />
    <glyph glyph-name="m" unicode="m" horiz-adv-x="1657" 
d="M1647 79v-79h-464v79h163v127q0 91 -35.5 142t-117.5 51q-142 0 -284 -170q1 -9 1 -27v-123h163v-79h-420v79h162v127q0 193 -152 193q-145 0 -283 -170v-150h162v-79h-470v79h210v313h-210v79h308v-159q58 77 134 124t162 47q187 0 225 -183q57 81 136 132t169 51
q126 0 182.5 -77.5t56.5 -203.5v-123h202z" />
    <glyph glyph-name="n" unicode="n" horiz-adv-x="1263" 
d="M1253 79v-79h-471v79h176v96q0 96 -45.5 158.5t-159.5 62.5q-170 0 -373 -182v-135h177v-79h-485v79h210v313h-210v79h308v-177q89 82 186.5 135.5t203.5 53.5q153 0 219.5 -89.5t66.5 -226.5v-88h197z" />
    <glyph glyph-name="nacute" unicode="&#x144;" horiz-adv-x="1263" 
d="M1253 79v-79h-471v79h176v96q0 96 -45.5 158.5t-159.5 62.5q-170 0 -373 -182v-135h177v-79h-485v79h210v313h-210v79h308v-177q89 82 186.5 135.5t203.5 53.5q153 0 219.5 -89.5t66.5 -226.5v-88h197zM616 556l322 166l-48 77l-303 -201z" />
    <glyph glyph-name="ncaron" unicode="&#x148;" horiz-adv-x="1263" 
d="M1253 79v-79h-471v79h176v96q0 96 -45.5 158.5t-159.5 62.5q-170 0 -373 -182v-135h177v-79h-485v79h210v313h-210v79h308v-177q89 82 186.5 135.5t203.5 53.5q153 0 219.5 -89.5t66.5 -226.5v-88h197zM933 729l-202 -163h-59l-201 163l21 32l210 -125l210 125z" />
    <glyph glyph-name="ncommaaccent" unicode="&#x146;" horiz-adv-x="1263" 
d="M1253 79v-79h-471v79h176v96q0 96 -45.5 158.5t-159.5 62.5q-170 0 -373 -182v-135h177v-79h-485v79h210v313h-210v79h308v-177q89 82 186.5 135.5t203.5 53.5q153 0 219.5 -89.5t66.5 -226.5v-88h197zM717 -278q-35 -47 -95 -91l-25 26q97 79 105 137q-15 -5 -43 -5
t-45.5 13t-17.5 34q0 22 21.5 37.5t54.5 15.5q34 0 57 -21.5t23 -57.5q0 -41 -35 -88z" />
    <glyph glyph-name="eng" unicode="&#x14b;" horiz-adv-x="1200" 
d="M989.5 393.5q66.5 -89.5 66.5 -226.5v-145q0 -123 -61.5 -191.5t-165.5 -68.5q-50 0 -93.5 10t-88.5 26l24 81q90 -30 156 -30q63 0 97 44t34 127v155q0 96 -45.5 158.5t-159.5 62.5q-171 0 -373 -181v-136h177v-79h-485v79h210v313h-210v79h308v-177q89 82 186.5 135.5
t203.5 53.5q153 0 219.5 -89.5z" />
    <glyph glyph-name="ntilde" unicode="&#xf1;" horiz-adv-x="1263" 
d="M1253 79v-79h-471v79h176v96q0 96 -45.5 158.5t-159.5 62.5q-170 0 -373 -182v-135h177v-79h-485v79h210v313h-210v79h308v-177q89 82 186.5 135.5t203.5 53.5q153 0 219.5 -89.5t66.5 -226.5v-88h197zM751 599q-30 12 -73 36q-43 25 -69 37t-53 12q-34 0 -58 -25.5
t-32 -75.5l-59 16q9 67 48.5 108t103.5 41q38 0 69 -12.5t78 -37.5q36 -22 62 -33.5t51 -11.5q36 0 59 25.5t31 71.5l58 -15q-9 -66 -48.5 -107t-102.5 -41q-35 0 -65 12z" />
    <glyph glyph-name="o" unicode="o" horiz-adv-x="1031" 
d="M295.5 16.5q-99.5 30.5 -158 87t-58.5 133.5q0 78 59 134t159 84.5t222 28.5q119 0 218 -29t157.5 -85t58.5 -133t-58 -134t-158 -87t-222 -29q-120 -1 -219.5 29.5zM686 86q76 20 120 59t44 92q0 81 -94 124.5t-241 43.5q-147 -1 -240.5 -44t-93.5 -124q0 -53 44 -92
t120 -59t170 -20q95 0 171 20z" />
    <glyph glyph-name="oacute" unicode="&#xf3;" horiz-adv-x="1031" 
d="M295.5 16.5q-99.5 30.5 -158 87t-58.5 133.5q0 78 59 134t159 84.5t222 28.5q119 0 218 -29t157.5 -85t58.5 -133t-58 -134t-158 -87t-222 -29q-120 -1 -219.5 29.5zM686 86q76 20 120 59t44 92q0 81 -94 124.5t-241 43.5q-147 -1 -240.5 -44t-93.5 -124q0 -53 44 -92
t120 -59t170 -20q95 0 171 20zM430 556l322 166l-48 77l-303 -201z" />
    <glyph glyph-name="ocircumflex" unicode="&#xf4;" horiz-adv-x="1031" 
d="M295.5 16.5q-99.5 30.5 -158 87t-58.5 133.5q0 78 59 134t159 84.5t222 28.5q119 0 218 -29t157.5 -85t58.5 -133t-58 -134t-158 -87t-222 -29q-120 -1 -219.5 29.5zM686 86q76 20 120 59t44 92q0 81 -94 124.5t-241 43.5q-147 -1 -240.5 -44t-93.5 -124q0 -53 44 -92
t120 -59t170 -20q95 0 171 20zM285 587l201 162h59l202 -162l-21 -32l-211 125l-209 -125z" />
    <glyph glyph-name="odieresis" unicode="&#xf6;" horiz-adv-x="1031" 
d="M295.5 16.5q-99.5 30.5 -158 87t-58.5 133.5q0 78 59 134t159 84.5t222 28.5q119 0 218 -29t157.5 -85t58.5 -133t-58 -134t-158 -87t-222 -29q-120 -1 -219.5 29.5zM686 86q76 20 120 59t44 92q0 81 -94 124.5t-241 43.5q-147 -1 -240.5 -44t-93.5 -124q0 -53 44 -92
t120 -59t170 -20q95 0 171 20zM303 626q-21 16 -21 39q0 24 20.5 39t54.5 15t54.5 -15t20.5 -39q0 -23 -20.5 -39t-54.5 -16q-33 0 -54 16zM614.5 626q-21.5 16 -21.5 39q0 24 21 39t55 15q35 0 54.5 -15t19.5 -39q0 -23 -20 -39t-54 -16q-33 0 -54.5 16z" />
    <glyph glyph-name="ograve" unicode="&#xf2;" horiz-adv-x="1031" 
d="M295.5 16.5q-99.5 30.5 -158 87t-58.5 133.5q0 78 59 134t159 84.5t222 28.5q119 0 218 -29t157.5 -85t58.5 -133t-58 -134t-158 -87t-222 -29q-120 -1 -219.5 29.5zM686 86q76 20 120 59t44 92q0 81 -94 124.5t-241 43.5q-147 -1 -240.5 -44t-93.5 -124q0 -53 44 -92
t120 -59t170 -20q95 0 171 20zM325 799l-47 -77l322 -166l29 42z" />
    <glyph glyph-name="ohungarumlaut" unicode="&#x151;" horiz-adv-x="1031" 
d="M295.5 16.5q-99.5 30.5 -158 87t-58.5 133.5q0 78 59 134t159 84.5t222 28.5q119 0 218 -29t157.5 -85t58.5 -133t-58 -134t-158 -87t-222 -29q-120 -1 -219.5 29.5zM686 86q76 20 120 59t44 92q0 81 -94 124.5t-241 43.5q-147 -1 -240.5 -44t-93.5 -124q0 -53 44 -92
t120 -59t170 -20q95 0 171 20zM275 620l212 228l64 -63l-232 -206zM533 620l212 228l64 -63l-233 -206z" />
    <glyph glyph-name="omacron" unicode="&#x14d;" horiz-adv-x="1031" 
d="M295.5 16.5q-99.5 30.5 -158 87t-58.5 133.5q0 78 59 134t159 84.5t222 28.5q119 0 218 -29t157.5 -85t58.5 -133t-58 -134t-158 -87t-222 -29q-120 -1 -219.5 29.5zM686 86q76 20 120 59t44 92q0 81 -94 124.5t-241 43.5q-147 -1 -240.5 -44t-93.5 -124q0 -53 44 -92
t120 -59t170 -20q95 0 171 20zM808 619l-599 1v72l599 -2v-71z" />
    <glyph glyph-name="oslash" unicode="&#xf8;" horiz-adv-x="1039" 
d="M882 381.5q71 -59.5 71 -144.5q0 -76 -57.5 -133t-156.5 -87t-220 -30q-55 0 -106 6l-44 -71h-92l52 86q-114 27 -182 86.5t-68 142.5q0 78 58.5 134t157.5 84.5t220 28.5q51 0 90 -4l43 71h93l-49 -84q119 -26 190 -85.5zM234.5 137q53.5 -41 144.5 -59l189 325
q-34 2 -53 2q-147 -1 -240.5 -44t-93.5 -124q0 -59 53.5 -100zM686 86q76 20 120 59t44 92q0 62 -56 102t-152 56l-191 -327q42 -2 64 -2q95 0 171 20z" />
    <glyph glyph-name="otilde" unicode="&#xf5;" horiz-adv-x="1031" 
d="M295.5 16.5q-99.5 30.5 -158 87t-58.5 133.5q0 78 59 134t159 84.5t222 28.5q119 0 218 -29t157.5 -85t58.5 -133t-58 -134t-158 -87t-222 -29q-120 -1 -219.5 29.5zM686 86q76 20 120 59t44 92q0 81 -94 124.5t-241 43.5q-147 -1 -240.5 -44t-93.5 -124q0 -53 44 -92
t120 -59t170 -20q95 0 171 20zM565 599q-30 12 -73 36q-43 25 -69 37t-53 12q-34 0 -58 -25.5t-32 -75.5l-59 16q9 67 48.5 108t103.5 41q38 0 69 -12.5t78 -37.5q36 -22 62 -33.5t51 -11.5q36 0 59 25.5t31 71.5l58 -15q-9 -66 -48.5 -107t-102.5 -41q-35 0 -65 12z" />
    <glyph glyph-name="oe" unicode="&#x153;" horiz-adv-x="1714" 
d="M1632 70q-75 -42 -172 -65.5t-202 -23.5q-125 0 -227.5 35t-149.5 103q-50 -66 -150.5 -102t-227.5 -36q-115 0 -211.5 30.5t-154.5 88.5t-58 137q0 81 58.5 138t156 86t214.5 29q128 0 229.5 -37t148.5 -105q50 65 155 103t234 38q154 0 248.5 -40.5t94.5 -119.5
q0 -74 -87 -113t-229 -39q-81 0 -179.5 18t-191.5 47q-1 -4 -1 -13q0 -53 45 -92t120.5 -59.5t162.5 -20.5q188 -3 342 80zM1083 388q-92 -31 -131 -88q84 -24 182 -37.5t170 -13.5q216 0 216 81q0 43 -66.5 66t-172.5 23t-198 -31zM667 80.5q74 20.5 117.5 60.5t43.5 96
q0 85 -92 130t-233 45q-140 -2 -231 -46t-91 -129q0 -56 43.5 -96t116.5 -60.5t162 -20.5q90 0 164 20.5z" />
    <glyph glyph-name="p" unicode="p" horiz-adv-x="1199" 
d="M966 457q73 -27 113.5 -79t40.5 -125q0 -81 -52.5 -141.5t-141 -93t-194.5 -32.5q-196 0 -383 83v-208h209v-79h-516v79h209v531h-209v79h307v-147q116 76 224 118t225 42q95 0 168 -27zM873.5 90.5q67.5 22.5 105.5 63.5t38 94q0 71 -61.5 111.5t-172.5 40.5
q-95 0 -207.5 -39t-226.5 -109v-114q85 -32 182.5 -51t189.5 -18q85 -1 152.5 21.5z" />
    <glyph glyph-name="thorn" unicode="&#xfe;" horiz-adv-x="1124" 
d="M891.5 457q72.5 -27 113 -79t40.5 -125q0 -81 -52 -141.5t-140.5 -93t-194.5 -32.5q-197 0 -384 83v-208h203v-79h-509v79h208v746h-208v79h306v-362q116 76 224.5 118t224.5 42q96 0 168.5 -27zM798.5 90.5q67.5 22.5 106 63.5t38.5 94q0 71 -62.5 112t-172.5 41
q-95 0 -207.5 -39t-226.5 -109v-114q84 -32 181.5 -51.5t190.5 -18.5q85 -1 152.5 21.5z" />
    <glyph glyph-name="q" unicode="q" horiz-adv-x="1184" 
d="M1158 -139v-79h-518v79h211v285q-116 -76 -225 -118.5t-225 -42.5q-95 0 -168 27t-113.5 79t-40.5 125q0 82 53 142.5t143 92.5t198 32q180 0 386 -67l58 70h32v-102q86 -35 157 -71v-95q-74 39 -157 73v-430h209zM623 108.5q113 39.5 228 110.5v109q-212 73 -374 73
q-85 0 -152 -22.5t-105.5 -63.5t-38.5 -94q0 -70 62 -111t172 -41q95 0 208 39.5z" />
    <glyph glyph-name="r" unicode="r" horiz-adv-x="975" 
d="M885 482v-222h-86v132q-94 -2 -201 -44t-218 -122v-147h203v-79h-511v79h210v313h-210v79h308v-177q237 189 453 189z" />
    <glyph glyph-name="racute" unicode="&#x155;" horiz-adv-x="975" 
d="M885 482v-222h-86v132q-94 -2 -201 -44t-218 -122v-147h203v-79h-511v79h210v313h-210v79h308v-177q237 189 453 189zM440 543l322 166l-48 77l-303 -201z" />
    <glyph glyph-name="rcaron" unicode="&#x159;" horiz-adv-x="975" 
d="M885 482v-222h-86v132q-94 -2 -201 -44t-218 -122v-147h203v-79h-511v79h210v313h-210v79h308v-177q237 189 453 189zM757 716l-202 -163h-59l-201 163l21 32l210 -125l210 125z" />
    <glyph glyph-name="rcommaaccent" unicode="&#x157;" horiz-adv-x="975" 
d="M885 482v-222h-86v132q-94 -2 -201 -44t-218 -122v-147h203v-79h-511v79h210v313h-210v79h308v-177q237 189 453 189zM554 -278q-35 -47 -95 -91l-25 26q97 79 105 137q-15 -5 -43 -5t-45.5 13t-17.5 34q0 22 21.5 37.5t54.5 15.5q34 0 57 -21.5t23 -57.5q0 -41 -35 -88z
" />
    <glyph glyph-name="s" unicode="s" horiz-adv-x="968" 
d="M717 254q78 -17 114.5 -47t36.5 -78q0 -68 -80 -105t-231 -37q-110 0 -211 27.5t-167 73.5v-88h-74v182l35 7q64 -66 176.5 -100.5t237.5 -34.5q107 0 161 16t54 51q0 24 -28 38t-95 22.5t-188 14.5q-186 8 -267.5 42.5t-81.5 103.5q0 66 74 104.5t225 38.5
q206 0 355 -101v87h74v-176l-34 -6q-69 65 -173 97t-219 32q-202 0 -202 -69q0 -22 26.5 -35t90.5 -21.5t183 -14.5q130 -7 208 -24z" />
    <glyph glyph-name="sacute" unicode="&#x15b;" horiz-adv-x="968" 
d="M717 254q78 -17 114.5 -47t36.5 -78q0 -68 -80 -105t-231 -37q-110 0 -211 27.5t-167 73.5v-88h-74v182l35 7q64 -66 176.5 -100.5t237.5 -34.5q107 0 161 16t54 51q0 24 -28 38t-95 22.5t-188 14.5q-186 8 -267.5 42.5t-81.5 103.5q0 66 74 104.5t225 38.5
q206 0 355 -101v87h74v-176l-34 -6q-69 65 -173 97t-219 32q-202 0 -202 -69q0 -22 26.5 -35t90.5 -21.5t183 -14.5q130 -7 208 -24zM377 556l322 166l-48 77l-303 -201z" />
    <glyph glyph-name="scaron" unicode="&#x161;" horiz-adv-x="968" 
d="M717 254q78 -17 114.5 -47t36.5 -78q0 -68 -80 -105t-231 -37q-110 0 -211 27.5t-167 73.5v-88h-74v182l35 7q64 -66 176.5 -100.5t237.5 -34.5q107 0 161 16t54 51q0 24 -28 38t-95 22.5t-188 14.5q-186 8 -267.5 42.5t-81.5 103.5q0 66 74 104.5t225 38.5
q206 0 355 -101v87h74v-176l-34 -6q-69 65 -173 97t-219 32q-202 0 -202 -69q0 -22 26.5 -35t90.5 -21.5t183 -14.5q130 -7 208 -24zM694 729l-202 -163h-59l-201 163l21 32l210 -125l210 125z" />
    <glyph glyph-name="scedilla" unicode="&#x15f;" horiz-adv-x="968" 
d="M512 -12l-26 -65q40 2 63 2q58 0 94 -23.5t36 -64.5q0 -44 -44 -70t-125 -26q-111 0 -193 41l24 51q33 -16 78 -26t94 -10q48 0 74 10.5t26 29.5t-21.5 29.5t-60.5 10.5q-35 0 -87 -4l-23 -1l-7 9l43 112q-82 10 -155 35t-123 60v-88h-74v182l35 7q64 -66 176.5 -100.5
t237.5 -34.5q107 0 161 16t54 51q0 24 -28 38t-95 22.5t-188 14.5q-186 8 -267.5 42.5t-81.5 103.5q0 66 74 104.5t225 38.5q206 0 355 -101v87h74v-176l-34 -6q-69 65 -173 97t-219 32q-202 0 -202 -69q0 -22 26.5 -35t90.5 -21.5t183 -14.5q130 -7 208 -24t114.5 -47
t36.5 -78q0 -68 -80 -105t-231 -37q-30 0 -45 1z" />
    <glyph glyph-name="scommaaccent" unicode="&#x219;" horiz-adv-x="968" 
d="M717 254q78 -17 114.5 -47t36.5 -78q0 -68 -80 -105t-231 -37q-110 0 -211 27.5t-167 73.5v-88h-74v182l35 7q64 -66 176.5 -100.5t237.5 -34.5q107 0 161 16t54 51q0 24 -28 38t-95 22.5t-188 14.5q-186 8 -267.5 42.5t-81.5 103.5q0 66 74 104.5t225 38.5
q206 0 355 -101v87h74v-176l-34 -6q-69 65 -173 97t-219 32q-202 0 -202 -69q0 -22 26.5 -35t90.5 -21.5t183 -14.5q130 -7 208 -24zM562 -289q-35 -47 -95 -91l-25 26q97 79 105 137q-15 -5 -43 -5t-45.5 13t-17.5 34q0 22 21.5 37.5t54.5 15.5q34 0 57 -21.5t23 -57.5
q0 -41 -35 -88z" />
    <glyph glyph-name="germandbls" unicode="&#xdf;" horiz-adv-x="1145" 
d="M1040.5 227q63.5 -33 63.5 -99q0 -41 -25.5 -73.5t-73.5 -50.5t-113 -18q-80 0 -161.5 28.5t-137.5 75.5v-91h-75v182l36 9q58 -67 150 -101t175 -34q57 0 91.5 16t34.5 44q0 22 -22 35.5t-66 22t-123 16.5q-145 16 -202.5 51t-57.5 91q0 55 48.5 89t153.5 54
q70 14 107.5 26.5t56.5 29.5t19 44q0 34 -39.5 60.5t-109.5 40.5t-159 14q-246 0 -246 -166v-523h-293v79h195v313h-195v79h195v50q0 116 81.5 183.5t263.5 67.5q119 0 212 -24.5t144.5 -68.5t51.5 -100q0 -66 -59.5 -100.5t-178.5 -57.5q-78 -15 -112.5 -30.5t-34.5 -44.5
q0 -20 19 -31.5t60.5 -19t129.5 -18.5q133 -17 196.5 -50z" />
    <glyph glyph-name="uni0259" unicode="&#x259;" horiz-adv-x="977" 
d="M686.5 457q97.5 -28 154.5 -82.5t57 -132.5q0 -77 -58 -135t-158.5 -89t-223.5 -31q-164 0 -259 42t-95 119q0 73 84.5 110t236.5 37q173 0 378 -66v10q0 51 -44.5 89.5t-123 59t-178.5 20.5q-103 0 -187 -22.5t-155 -64.5l-34 68q166 96 388 96q120 0 217.5 -28zM652 88
q92 30 130 84q-87 26 -180 38.5t-178 12.5q-111 0 -166.5 -17.5t-55.5 -59.5t66 -65t182 -23q110 0 202 30z" />
    <glyph glyph-name="t" unicode="t" horiz-adv-x="694" 
d="M650 53q-120 -66 -246 -66q-111 0 -169 54.5t-58 162.5v188h-157v79h157v131h98v-131h297v-79h-297v-187q0 -132 133 -132q108 0 208 53z" />
    <glyph glyph-name="t.alt" horiz-adv-x="624" 
d="M580 50q-112 -63 -223 -63q-99 0 -153.5 49t-54.5 146q0 88 40 210h-144v79h157v130h97v-130h223v-79h-239q-37 -113 -37 -197q0 -61 31.5 -91t87.5 -30q46 0 95 15.5t86 37.5z" />
    <glyph glyph-name="tbar" unicode="&#x167;" horiz-adv-x="679" 
d="M628 53q-53 -29 -117 -47.5t-133 -18.5q-100 0 -150.5 52.5t-50.5 153.5v83h-157v62h157v64h-157v69h157v131h96v-131h288v-69h-288v-64h213v-62h-213v-82q0 -60 28.5 -90.5t89.5 -30.5q104 0 202 53z" />
    <glyph glyph-name="tbar.alt" horiz-adv-x="679" 
d="M580 50q-112 -63 -223 -63q-99 0 -153.5 49t-54.5 146q0 38 9 94h-124v62h139q7 28 19 64h-147v69h157v130h97v-130h223v-69h-236q-13 -42 -19 -64h247v-62h-260q-8 -43 -8 -81q0 -61 31.5 -91t87.5 -30q46 0 95 15.5t86 37.5z" />
    <glyph glyph-name="tcaron" unicode="&#x165;" horiz-adv-x="694" 
d="M650 53q-120 -66 -246 -66q-111 0 -169 54.5t-58 162.5v188h-157v79h157v131h98v-131h297v-79h-297v-187q0 -132 133 -132q108 0 208 53zM548 833q1 -167 -154 -287l-28 26q55 65 81 126t25 142z" />
    <glyph glyph-name="tcaron.alt" horiz-adv-x="624" 
d="M580 50q-112 -63 -223 -63q-99 0 -153.5 49t-54.5 146q0 88 40 210h-144v79h157v130h97v-130h223v-79h-239q-37 -113 -37 -197q0 -61 31.5 -91t87.5 -30q46 0 95 15.5t86 37.5zM561 839q1 -167 -154 -287l-28 26q55 65 81 126t25 142z" />
    <glyph glyph-name="uni0163" unicode="&#x163;" horiz-adv-x="694" 
d="M495 -100.5q36 -23.5 36 -64.5q0 -44 -44 -70t-125 -26q-111 0 -193 41l24 51q33 -16 78 -26t94 -10q48 0 74 10.5t26 29.5t-21.5 29.5t-60.5 10.5q-35 0 -87 -4l-23 -1l-7 9l46 120q-66 19 -100.5 70.5t-34.5 134.5v188h-157v79h157v131h98v-131h297v-79h-297v-187
q0 -132 133 -132q108 0 208 53l34 -73q-120 -66 -246 -66q-15 0 -39 2l-27 -68q40 2 63 2q58 0 94 -23.5z" />
    <glyph glyph-name="uni0163.alt" horiz-adv-x="624" 
d="M495 -100.5q36 -23.5 36 -64.5q0 -44 -44 -70t-125 -26q-111 0 -193 41l24 51q33 -16 78 -26t94 -10q48 0 74 10.5t26 29.5t-21.5 29.5t-60.5 10.5q-35 0 -87 -4l-23 -1l-7 9l43 111q-77 12 -118.5 60t-41.5 132q0 88 40 210h-144v79h157v130h97v-130h223v-79h-239
q-37 -113 -37 -197q0 -61 31.5 -91t87.5 -30q46 0 95 15.5t86 37.5l34 -77q-110 -61 -216 -63l-26 -66q40 2 63 2q58 0 94 -23.5z" />
    <glyph glyph-name="uni021B" unicode="&#x21b;" horiz-adv-x="694" 
d="M650 53q-120 -66 -246 -66q-111 0 -169 54.5t-58 162.5v188h-157v79h157v131h98v-131h297v-79h-297v-187q0 -132 133 -132q108 0 208 53zM414 -291q-35 -47 -95 -91l-25 26q97 79 105 137q-15 -5 -43 -5t-45.5 13t-17.5 34q0 22 21.5 37.5t54.5 15.5q34 0 57 -21.5
t23 -57.5q0 -41 -35 -88z" />
    <glyph glyph-name="uni021B.alt" horiz-adv-x="624" 
d="M580 50q-112 -63 -223 -63q-99 0 -153.5 49t-54.5 146q0 88 40 210h-144v79h157v130h97v-130h223v-79h-239q-37 -113 -37 -197q0 -61 31.5 -91t87.5 -30q46 0 95 15.5t86 37.5zM414 -291q-35 -47 -95 -91l-25 26q97 79 105 137q-15 -5 -43 -5t-45.5 13t-17.5 34
q0 22 21.5 37.5t54.5 15.5q34 0 57 -21.5t23 -57.5q0 -41 -35 -88z" />
    <glyph glyph-name="u" unicode="u" horiz-adv-x="1170" 
d="M1114 23q-25 -17 -52.5 -26t-64.5 -9q-62 0 -101.5 39.5t-40.5 110.5q-96 -70 -183.5 -110.5t-183.5 -40.5q-144 0 -213 76.5t-69 205.5v123h-196v79h294v-206q0 -185 204 -186q152 0 347 139v174h-179v79h277v-314q0 -44 19 -65.5t47 -21.5q36 0 70 23z" />
    <glyph glyph-name="u.alt" horiz-adv-x="1149" 
d="M1141 185v-43q0 -65 -36 -112t-103 -47q-68 0 -106.5 41.5t-42.5 112.5q-97 -70 -183.5 -110t-181.5 -40q-144 0 -213 76.5t-69 205.5v123h-196v79h294v-205q0 -187 204 -187q149 0 344 137v176h-178v79h276v-319q0 -102 69 -102q32 0 48.5 24.5t16.5 66.5v44h57z" />
    <glyph glyph-name="uacute" unicode="&#xfa;" horiz-adv-x="1170" 
d="M1114 23q-25 -17 -52.5 -26t-64.5 -9q-62 0 -101.5 39.5t-40.5 110.5q-96 -70 -183.5 -110.5t-183.5 -40.5q-144 0 -213 76.5t-69 205.5v123h-196v79h294v-206q0 -185 204 -186q152 0 347 139v174h-179v79h277v-314q0 -44 19 -65.5t47 -21.5q36 0 70 23zM457 537l322 166
l-48 77l-303 -201z" />
    <glyph glyph-name="uacute.alt" horiz-adv-x="1149" 
d="M1141 185v-43q0 -65 -36 -112t-103 -47q-68 0 -106.5 41.5t-42.5 112.5q-97 -70 -183.5 -110t-181.5 -40q-144 0 -213 76.5t-69 205.5v123h-196v79h294v-205q0 -187 204 -187q149 0 344 137v176h-178v79h276v-319q0 -102 69 -102q32 0 48.5 24.5t16.5 66.5v44h57z
M457 537l322 166l-48 77l-303 -201z" />
    <glyph glyph-name="ucircumflex" unicode="&#xfb;" horiz-adv-x="1170" 
d="M1114 23q-25 -17 -52.5 -26t-64.5 -9q-62 0 -101.5 39.5t-40.5 110.5q-96 -70 -183.5 -110.5t-183.5 -40.5q-144 0 -213 76.5t-69 205.5v123h-196v79h294v-206q0 -185 204 -186q152 0 347 139v174h-179v79h277v-314q0 -44 19 -65.5t47 -21.5q36 0 70 23zM312 568l201 162
h59l202 -162l-21 -32l-211 125l-209 -125z" />
    <glyph glyph-name="ucircumflex.alt" horiz-adv-x="1149" 
d="M1141 185v-43q0 -65 -36 -112t-103 -47q-68 0 -106.5 41.5t-42.5 112.5q-97 -70 -183.5 -110t-181.5 -40q-144 0 -213 76.5t-69 205.5v123h-196v79h294v-205q0 -187 204 -187q149 0 344 137v176h-178v79h276v-319q0 -102 69 -102q32 0 48.5 24.5t16.5 66.5v44h57z
M312 568l201 162h59l202 -162l-21 -32l-211 125l-209 -125z" />
    <glyph glyph-name="udieresis" unicode="&#xfc;" horiz-adv-x="1170" 
d="M1114 23q-25 -17 -52.5 -26t-64.5 -9q-62 0 -101.5 39.5t-40.5 110.5q-96 -70 -183.5 -110.5t-183.5 -40.5q-144 0 -213 76.5t-69 205.5v123h-196v79h294v-206q0 -185 204 -186q152 0 347 139v174h-179v79h277v-314q0 -44 19 -65.5t47 -21.5q36 0 70 23zM330 607
q-21 16 -21 39q0 24 20.5 39t54.5 15t54.5 -15t20.5 -39q0 -23 -20.5 -39t-54.5 -16q-33 0 -54 16zM641.5 607q-21.5 16 -21.5 39q0 24 21 39t55 15q35 0 54.5 -15t19.5 -39q0 -23 -20 -39t-54 -16q-33 0 -54.5 16z" />
    <glyph glyph-name="udieresis.alt" horiz-adv-x="1149" 
d="M1141 185v-43q0 -65 -36 -112t-103 -47q-68 0 -106.5 41.5t-42.5 112.5q-97 -70 -183.5 -110t-181.5 -40q-144 0 -213 76.5t-69 205.5v123h-196v79h294v-205q0 -187 204 -187q149 0 344 137v176h-178v79h276v-319q0 -102 69 -102q32 0 48.5 24.5t16.5 66.5v44h57z
M330 607q-21 16 -21 39q0 24 20.5 39t54.5 15t54.5 -15t20.5 -39q0 -23 -20.5 -39t-54.5 -16q-33 0 -54 16zM641.5 607q-21.5 16 -21.5 39q0 24 21 39t55 15q35 0 54.5 -15t19.5 -39q0 -23 -20 -39t-54 -16q-33 0 -54.5 16z" />
    <glyph glyph-name="ugrave" unicode="&#xf9;" horiz-adv-x="1170" 
d="M1114 23q-25 -17 -52.5 -26t-64.5 -9q-62 0 -101.5 39.5t-40.5 110.5q-96 -70 -183.5 -110.5t-183.5 -40.5q-144 0 -213 76.5t-69 205.5v123h-196v79h294v-206q0 -185 204 -186q152 0 347 139v174h-179v79h277v-314q0 -44 19 -65.5t47 -21.5q36 0 70 23zM352 780l-47 -77
l322 -166l29 42z" />
    <glyph glyph-name="ugrave.alt" horiz-adv-x="1149" 
d="M1141 185v-43q0 -65 -36 -112t-103 -47q-68 0 -106.5 41.5t-42.5 112.5q-97 -70 -183.5 -110t-181.5 -40q-144 0 -213 76.5t-69 205.5v123h-196v79h294v-205q0 -187 204 -187q149 0 344 137v176h-178v79h276v-319q0 -102 69 -102q32 0 48.5 24.5t16.5 66.5v44h57z
M352 780l-47 -77l322 -166l29 42z" />
    <glyph glyph-name="uhungarumlaut" unicode="&#x171;" horiz-adv-x="1170" 
d="M1114 23q-25 -17 -52.5 -26t-64.5 -9q-62 0 -101.5 39.5t-40.5 110.5q-96 -70 -183.5 -110.5t-183.5 -40.5q-144 0 -213 76.5t-69 205.5v123h-196v79h294v-206q0 -185 204 -186q152 0 347 139v174h-179v79h277v-314q0 -44 19 -65.5t47 -21.5q36 0 70 23zM302 601l212 228
l64 -63l-232 -206zM560 601l212 228l64 -63l-233 -206z" />
    <glyph glyph-name="uhungarumlaut.alt" horiz-adv-x="1149" 
d="M1141 185v-43q0 -65 -36 -112t-103 -47q-68 0 -106.5 41.5t-42.5 112.5q-97 -70 -183.5 -110t-181.5 -40q-144 0 -213 76.5t-69 205.5v123h-196v79h294v-205q0 -187 204 -187q149 0 344 137v176h-178v79h276v-319q0 -102 69 -102q32 0 48.5 24.5t16.5 66.5v44h57z
M302 601l212 228l64 -63l-232 -206zM560 601l212 228l64 -63l-233 -206z" />
    <glyph glyph-name="umacron" unicode="&#x16b;" horiz-adv-x="1170" 
d="M1114 23q-25 -17 -52.5 -26t-64.5 -9q-62 0 -101.5 39.5t-40.5 110.5q-96 -70 -183.5 -110.5t-183.5 -40.5q-144 0 -213 76.5t-69 205.5v123h-196v79h294v-206q0 -185 204 -186q152 0 347 139v174h-179v79h277v-314q0 -44 19 -65.5t47 -21.5q36 0 70 23zM835 600l-599 1
v72l599 -2v-71z" />
    <glyph glyph-name="umacron.alt" horiz-adv-x="1149" 
d="M1141 185v-43q0 -65 -36 -112t-103 -47q-68 0 -106.5 41.5t-42.5 112.5q-97 -70 -183.5 -110t-181.5 -40q-144 0 -213 76.5t-69 205.5v123h-196v79h294v-205q0 -187 204 -187q149 0 344 137v176h-178v79h276v-319q0 -102 69 -102q32 0 48.5 24.5t16.5 66.5v44h57z
M835 600l-599 1v72l599 -2v-71z" />
    <glyph glyph-name="uogonek" unicode="&#x173;" horiz-adv-x="1170" 
d="M1265 -148q-79 -50 -169 -50q-66 0 -111.5 28t-45.5 77q0 47 34 83q-52 7 -84.5 45.5t-33.5 102.5q-96 -70 -183.5 -110.5t-183.5 -40.5q-144 0 -213 76.5t-69 205.5v123h-196v79h294v-206q0 -185 204 -186q152 0 347 139v174h-179v79h277v-314q0 -44 19 -65.5t47 -21.5
q36 0 70 23l25 -70q-33 -22 -66 -30q-45 -29 -45 -70q0 -29 29 -44.5t71 -15.5q73 0 139 43z" />
    <glyph glyph-name="uogonek.alt" horiz-adv-x="1149" 
d="M1241 -154q-79 -50 -169 -50q-66 0 -111.5 28t-45.5 77q0 51 40 88q-47 13 -73 52t-29 96q-97 -70 -183.5 -110t-181.5 -40q-144 0 -213 76.5t-69 205.5v123h-196v79h294v-205q0 -187 204 -187q149 0 344 137v176h-178v79h276v-319q0 -102 69 -102q32 0 48.5 24.5
t16.5 66.5v44h57v-43q0 -61 -31.5 -106.5t-90.5 -51.5q-40 -28 -40 -67q0 -29 29 -44.5t71 -15.5q73 0 139 43z" />
    <glyph glyph-name="uring" unicode="&#x16f;" horiz-adv-x="1170" 
d="M1114 23q-25 -17 -52.5 -26t-64.5 -9q-62 0 -101.5 39.5t-40.5 110.5q-96 -70 -183.5 -110.5t-183.5 -40.5q-144 0 -213 76.5t-69 205.5v123h-196v79h294v-206q0 -185 204 -186q152 0 347 139v174h-179v79h277v-314q0 -44 19 -65.5t47 -21.5q36 0 70 23zM451.5 569.5
q-41.5 18.5 -65.5 50t-24 70.5q0 41 24 72.5t65 49t91 17.5t91.5 -18t65.5 -50t24 -71q0 -41 -24 -72.5t-65.5 -49t-91.5 -17.5q-49 0 -90.5 18.5zM630 628.5q35 24.5 35 61.5q0 36 -35 61t-88 25q-52 0 -87 -24.5t-35 -61.5q0 -35 35.5 -60.5t86.5 -25.5q53 0 88 24.5z" />
    <glyph glyph-name="uring.alt" horiz-adv-x="1149" 
d="M1141 185v-43q0 -65 -36 -112t-103 -47q-68 0 -106.5 41.5t-42.5 112.5q-97 -70 -183.5 -110t-181.5 -40q-144 0 -213 76.5t-69 205.5v123h-196v79h294v-205q0 -187 204 -187q149 0 344 137v176h-178v79h276v-319q0 -102 69 -102q32 0 48.5 24.5t16.5 66.5v44h57z
M451.5 569.5q-41.5 18.5 -65.5 50t-24 70.5q0 41 24 72.5t65 49t91 17.5t91.5 -18t65.5 -50t24 -71q0 -41 -24 -72.5t-65.5 -49t-91.5 -17.5q-49 0 -90.5 18.5zM630 628.5q35 24.5 35 61.5q0 36 -35 61t-88 25q-52 0 -87 -24.5t-35 -61.5q0 -35 35.5 -60.5t86.5 -25.5
q53 0 88 24.5z" />
    <glyph glyph-name="v" unicode="v" horiz-adv-x="1001" 
d="M992 392h-149l-319 -405h-49l-319 405h-147v79h392v-79h-127l238 -311l238 311h-127v79h369v-79z" />
    <glyph glyph-name="w" unicode="w" horiz-adv-x="1323" 
d="M1315 392h-145l-235 -405h-50l-224 353l-227 -353h-49l-234 405h-142v79h375v-72h-130l169 -303l225 363h49l220 -362l173 302h-126v72h351v-79z" />
    <glyph glyph-name="wacute" unicode="&#x1e83;" horiz-adv-x="1323" 
d="M1315 392h-145l-235 -405h-50l-224 353l-227 -353h-49l-234 405h-142v79h375v-72h-130l169 -303l225 363h49l220 -362l173 302h-126v72h351v-79zM584 543l322 166l-48 77l-303 -201z" />
    <glyph glyph-name="wcircumflex" unicode="&#x175;" horiz-adv-x="1323" 
d="M1315 392h-145l-235 -405h-50l-224 353l-227 -353h-49l-234 405h-142v79h375v-72h-130l169 -303l225 363h49l220 -362l173 302h-126v72h351v-79zM439 574l201 162h59l202 -162l-21 -32l-211 125l-209 -125z" />
    <glyph glyph-name="wdieresis" unicode="&#x1e85;" horiz-adv-x="1323" 
d="M1315 392h-145l-235 -405h-50l-224 353l-227 -353h-49l-234 405h-142v79h375v-72h-130l169 -303l225 363h49l220 -362l173 302h-126v72h351v-79zM457 613q-21 16 -21 39q0 24 20.5 39t54.5 15t54.5 -15t20.5 -39q0 -23 -20.5 -39t-54.5 -16q-33 0 -54 16zM768.5 613
q-21.5 16 -21.5 39q0 24 21 39t55 15q35 0 54.5 -15t19.5 -39q0 -23 -20 -39t-54 -16q-33 0 -54.5 16z" />
    <glyph glyph-name="wgrave" unicode="&#x1e81;" horiz-adv-x="1323" 
d="M1315 392h-145l-235 -405h-50l-224 353l-227 -353h-49l-234 405h-142v79h375v-72h-130l169 -303l225 363h49l220 -362l173 302h-126v72h351v-79zM479 786l-47 -77l322 -166l29 42z" />
    <glyph glyph-name="x" unicode="x" horiz-adv-x="1082" 
d="M607 239l279 -161h125v-79h-425v72h163l-221 132l-228 -132h163v-72h-393v79h123l277 156l-265 158h-135v79h426v-72h-156l211 -128l218 128h-151v72h393v-79h-139z" />
    <glyph glyph-name="x.alt" horiz-adv-x="1025" 
d="M1000 180q-3 -53 -29.5 -97t-72.5 -69.5t-105 -25.5q-88 0 -154 55.5t-136 161.5l-233 -134h169v-72h-404v79h127l305 170q-60 81 -107.5 117t-108.5 36q-55 0 -87.5 -34t-34.5 -82l-86 8q4 52 28.5 95.5t71 69.5t110.5 26q65 0 115.5 -24.5t90.5 -67.5t85 -110l201 117
h-156v72h404v-79h-143l-270 -154q67 -88 114 -126.5t100 -38.5q52 0 84.5 32.5t34.5 82.5z" />
    <glyph glyph-name="y" unicode="y" horiz-adv-x="995" 
d="M998 392h-156l-287 -425q-72 -104 -137 -154.5t-154 -50.5q-58 0 -100 12t-117 43l33 78q55 -23 96.5 -34.5t89.5 -11.5q64 0 110 30t92 95l-300 418h-145v79h388v-79h-130l242 -337l227 337h-126v79h374v-79z" />
    <glyph glyph-name="yacute" unicode="&#xfd;" horiz-adv-x="995" 
d="M998 392h-156l-287 -425q-72 -104 -137 -154.5t-154 -50.5q-58 0 -100 12t-117 43l33 78q55 -23 96.5 -34.5t89.5 -11.5q64 0 110 30t92 95l-300 418h-145v79h388v-79h-130l242 -337l227 337h-126v79h374v-79zM435 550l322 166l-48 77l-303 -201z" />
    <glyph glyph-name="ycircumflex" unicode="&#x177;" horiz-adv-x="995" 
d="M998 392h-156l-287 -425q-72 -104 -137 -154.5t-154 -50.5q-58 0 -100 12t-117 43l33 78q55 -23 96.5 -34.5t89.5 -11.5q64 0 110 30t92 95l-300 418h-145v79h388v-79h-130l242 -337l227 337h-126v79h374v-79zM290 581l201 162h59l202 -162l-21 -32l-211 125l-209 -125z
" />
    <glyph glyph-name="ydieresis" unicode="&#xff;" horiz-adv-x="995" 
d="M998 392h-156l-287 -425q-72 -104 -137 -154.5t-154 -50.5q-58 0 -100 12t-117 43l33 78q55 -23 96.5 -34.5t89.5 -11.5q64 0 110 30t92 95l-300 418h-145v79h388v-79h-130l242 -337l227 337h-126v79h374v-79zM308 620q-21 16 -21 39q0 24 20.5 39t54.5 15t54.5 -15
t20.5 -39q0 -23 -20.5 -39t-54.5 -16q-33 0 -54 16zM619.5 620q-21.5 16 -21.5 39q0 24 21 39t55 15q35 0 54.5 -15t19.5 -39q0 -23 -20 -39t-54 -16q-33 0 -54.5 16z" />
    <glyph glyph-name="ygrave" unicode="&#x1ef3;" horiz-adv-x="995" 
d="M998 392h-156l-287 -425q-72 -104 -137 -154.5t-154 -50.5q-58 0 -100 12t-117 43l33 78q55 -23 96.5 -34.5t89.5 -11.5q64 0 110 30t92 95l-300 418h-145v79h388v-79h-130l242 -337l227 337h-126v79h374v-79zM330 793l-47 -77l322 -166l29 42z" />
    <glyph glyph-name="z" unicode="z" horiz-adv-x="991" 
d="M926 164q-48 -178 -265 -178q-152 0 -377 121q-73 -48 -114 -121l-72 46q35 68 95 114t129 74t162 55q103 29 149 46q-95 40 -200 62.5t-237 22.5v-133h-86v211h64q179 0 301 -33.5t229 -97.5q42 24 71.5 55t48.5 74l73 -36q-26 -68 -78 -112.5t-120.5 -71.5t-177.5 -58
q-114 -33 -179 -64q172 -71 313 -71q80 0 130.5 31.5t64.5 89.5z" />
    <glyph glyph-name="z.alt" horiz-adv-x="918" 
d="M93 52l520 318q15 8 59 28v2q-3 -1 -22.5 -5.5t-46.5 -4.5h-419v-155h-84v234h751v-53l-529 -321q-14 -9 -54 -25v-4q2 1 21.5 7t37.5 6h439v155h83v-234h-756v52z" />
    <glyph glyph-name="zacute" unicode="&#x17a;" horiz-adv-x="991" 
d="M926 164q-48 -178 -265 -178q-152 0 -377 121q-73 -48 -114 -121l-72 46q35 68 95 114t129 74t162 55q103 29 149 46q-95 40 -200 62.5t-237 22.5v-133h-86v211h64q179 0 301 -33.5t229 -97.5q42 24 71.5 55t48.5 74l73 -36q-26 -68 -78 -112.5t-120.5 -71.5t-177.5 -58
q-114 -33 -179 -64q172 -71 313 -71q80 0 130.5 31.5t64.5 89.5zM469 536l322 166l-48 77l-303 -201z" />
    <glyph glyph-name="zacute.alt" horiz-adv-x="918" 
d="M93 52l520 318q15 8 59 28v2q-3 -1 -22.5 -5.5t-46.5 -4.5h-419v-155h-84v234h751v-53l-529 -321q-14 -9 -54 -25v-4q2 1 21.5 7t37.5 6h439v155h83v-234h-756v52zM410 550l322 166l-48 77l-303 -201z" />
    <glyph glyph-name="zcaron" unicode="&#x17e;" horiz-adv-x="991" 
d="M926 164q-48 -178 -265 -178q-152 0 -377 121q-73 -48 -114 -121l-72 46q35 68 95 114t129 74t162 55q103 29 149 46q-95 40 -200 62.5t-237 22.5v-133h-86v211h64q179 0 301 -33.5t229 -97.5q42 24 71.5 55t48.5 74l73 -36q-26 -68 -78 -112.5t-120.5 -71.5t-177.5 -58
q-114 -33 -179 -64q172 -71 313 -71q80 0 130.5 31.5t64.5 89.5zM786 709l-202 -163h-59l-201 163l21 32l210 -125l210 125z" />
    <glyph glyph-name="zcaron.alt" horiz-adv-x="918" 
d="M93 52l520 318q15 8 59 28v2q-3 -1 -22.5 -5.5t-46.5 -4.5h-419v-155h-84v234h751v-53l-529 -321q-14 -9 -54 -25v-4q2 1 21.5 7t37.5 6h439v155h83v-234h-756v52zM727 723l-202 -163h-59l-201 163l21 32l210 -125l210 125z" />
    <glyph glyph-name="zdotaccent" unicode="&#x17c;" horiz-adv-x="991" 
d="M926 164q-48 -178 -265 -178q-152 0 -377 121q-73 -48 -114 -121l-72 46q35 68 95 114t129 74t162 55q103 29 149 46q-95 40 -200 62.5t-237 22.5v-133h-86v211h64q179 0 301 -33.5t229 -97.5q42 24 71.5 55t48.5 74l73 -36q-26 -68 -78 -112.5t-120.5 -71.5t-177.5 -58
q-114 -33 -179 -64q172 -71 313 -71q80 0 130.5 31.5t64.5 89.5zM491.5 589q-23.5 17 -23.5 43q0 27 23.5 44t63.5 17q41 0 64 -17t23 -44q0 -26 -23.5 -43t-63.5 -17t-63.5 17z" />
    <glyph glyph-name="zdotaccent.alt" horiz-adv-x="918" 
d="M93 52l520 318q15 8 59 28v2q-3 -1 -22.5 -5.5t-46.5 -4.5h-419v-155h-84v234h751v-53l-529 -321q-14 -9 -54 -25v-4q2 1 21.5 7t37.5 6h439v155h83v-234h-756v52zM432.5 603q-23.5 17 -23.5 43q0 27 23.5 44t63.5 17q41 0 64 -17t23 -44q0 -26 -23.5 -43t-63.5 -17
t-63.5 17z" />
    <glyph glyph-name="ordfeminine" unicode="&#xaa;" horiz-adv-x="660" 
d="M635 535v-31q0 -38 -21 -63.5t-58 -25.5q-60 0 -81 52q-129 -55 -250 -55q-152 0 -152 79q0 43 48.5 63.5t128.5 20.5q91 0 217 -16q-1 41 -35.5 64.5t-101.5 23.5q-55 0 -109 -10t-122 -29l-13 47q71 22 131 33t119 11q93 0 141.5 -39t48.5 -106v-40q0 -58 39 -58
q17 0 26 13.5t9 34.5v31h35zM467 503v11v8q-134 13 -197 13q-64 0 -98.5 -9t-34.5 -31q0 -20 25 -27.5t77 -7.5q109 0 228 43zM69 327h534v-48h-534v48z" />
    <glyph glyph-name="ordmasculine" unicode="&#xba;" horiz-adv-x="634" 
d="M184 421.5q-60 17.5 -94.5 50.5t-34.5 78q0 71 75 109t191 38q110 0 183.5 -39t73.5 -108q0 -45 -34.5 -78t-93.5 -50.5t-133 -17.5q-73 0 -133 17.5zM458 481q53 24 53 69q0 47 -52.5 71t-141.5 24q-90 0 -142 -24t-52 -71q0 -45 52.5 -69t141.5 -24q88 0 141 24z
M565 327v-48h-484v48h484z" />
    <glyph glyph-name="uni0394" unicode="&#x394;" horiz-adv-x="967" 
d="M881 -1h-795l373 610h57zM735 76l-248 428l-252 -428h500z" />
    <glyph glyph-name="uni03A9" unicode="&#x3a9;" horiz-adv-x="1176" 
d="M1130 214v-214h-452l-12 48q106 64 158 128t52 145q0 69 -40.5 122.5t-107 83t-139.5 29.5q-74 0 -140.5 -29t-107 -83t-40.5 -123q0 -82 52 -145.5t158 -127.5l-12 -48h-453v214h86v-139h209q-67 49 -106 114.5t-39 138.5q0 87 54 157t144.5 109.5t194.5 39.5
q103 0 193 -39.5t144.5 -110t54.5 -156.5q0 -73 -39 -138.5t-107 -114.5h209v139h86z" />
    <glyph glyph-name="uni03BC" unicode="&#x3bc;" horiz-adv-x="1205" 
d="M1149 17q-25 -17 -53 -26t-64 -9q-62 0 -102.5 39.5t-41.5 110.5q-95 -70 -181 -110.5t-179 -40.5q-146 0 -203 102q1 -9 12 -54q1 -5 6.5 -30t5.5 -45v-172h-96v610h-211v79h308v-211q0 -88 47.5 -137t150.5 -50q81 0 166.5 38.5t173.5 100.5v259h99v-320
q0 -44 19.5 -66t47.5 -22q37 0 69 24z" />
    <glyph glyph-name="pi" unicode="&#x3c0;" horiz-adv-x="1167" 
d="M1078 17q-54 -35 -124 -35q-73 0 -115 40t-42 114v256h-462v-392l-98 -1v393h-195v79h1030v-79h-177v-241q0 -88 81 -88q43 0 77 24z" />
    <glyph glyph-name="zero" unicode="0" horiz-adv-x="1015" 
d="M287 22.5q-102 35.5 -164.5 108.5t-62.5 179q0 103 64 176t166.5 110.5t215.5 37.5q116 0 218.5 -37.5t166 -110.5t63.5 -176q0 -106 -64 -178.5t-166.5 -108.5t-217.5 -36q-117 0 -219 35.5zM678 93q79 28 126.5 83.5t47.5 133.5q0 75 -47 130.5t-125.5 85.5t-172.5 30
q-90 0 -169 -30t-127 -86t-48 -130q0 -78 46.5 -133.5t125 -83.5t172.5 -28q92 0 171 28z" />
    <glyph glyph-name="one" unicode="1" horiz-adv-x="652" 
d="M626 83v-83h-535v83h240v413q-67 -78 -218 -115l-28 87q83 19 147 58.5t99 98.5h98v-542h197z" />
    <glyph glyph-name="two" unicode="2" horiz-adv-x="955" 
d="M872 232v-232h-812v83q5 92 93.5 148.5t281.5 88.5q141 23 199.5 36t89 33t30.5 56q0 48 -65 76t-172 28q-109 0 -216 -33.5t-193 -92.5l-41 73q201 138 454 138q87 0 163.5 -22t123.5 -65t47 -104q0 -62 -43 -100.5t-123.5 -60.5t-213.5 -40q-121 -17 -188 -38
t-95.5 -49.5t-31.5 -71.5h629v149h83z" />
    <glyph glyph-name="three" unicode="3" horiz-adv-x="956" 
d="M826.5 262.5q57.5 -34.5 57.5 -100.5q0 -52 -51.5 -91t-142.5 -60t-208 -21q-147 0 -256 33.5t-174 72.5l38 75q52 -36 155.5 -66.5t237.5 -30.5q137 0 218 26.5t81 71.5q0 35 -34.5 56t-111 30.5t-205.5 9.5h-210v75h210q158 0 236 29.5t78 77.5q0 46 -65.5 72.5
t-181.5 26.5q-109 0 -211 -24t-185 -67l-39 70q84 47 201 76.5t239 29.5q160 0 252 -45.5t92 -127.5q0 -51 -50 -90t-138 -60q110 -14 167.5 -48.5z" />
    <glyph glyph-name="four" unicode="4" horiz-adv-x="924" 
d="M910 148h-194v-161h-98v161h-595v83l587 403l8 -2v2h98v-403h194v-83zM618 231v314l-461 -314h461z" />
    <glyph glyph-name="five" unicode="5" horiz-adv-x="919" 
d="M746 342.5q98 -47.5 98 -148.5q0 -63 -48.5 -110t-132.5 -72.5t-187 -25.5q-142 0 -245.5 30t-172.5 70l34 79q65 -37 166.5 -65t219.5 -28q111 0 188.5 32t77.5 91q0 55 -70.5 83t-226.5 28q-78 0 -142 -6.5t-144 -18.5q-36 -6 -54 -8v347h713v-83h-615v-170
q150 23 273 23q170 0 268 -47.5z" />
    <glyph glyph-name="six" unicode="6" horiz-adv-x="931" 
d="M781 342q97 -49 97 -145q0 -66 -48.5 -113.5t-135.5 -72t-202 -24.5q-203 0 -315.5 76t-112.5 220q0 104 61 183t166 122.5t234 43.5q98 0 165.5 -10.5t133.5 -30.5l-27 -80q-64 17 -126 27t-141 10q-94 0 -172.5 -27t-129.5 -77t-64 -118q164 65 357 65q163 0 260 -49z
M703.5 280q-71.5 26 -209.5 26q-184 0 -332 -51q11 -89 97 -136.5t228 -47.5q131 0 209.5 34t78.5 93q0 56 -71.5 82z" />
    <glyph glyph-name="seven" unicode="7" horiz-adv-x="922" 
d="M891 616v-82l-563 -548l-61 63l503 485h-621v-169h-84v251h826z" />
    <glyph glyph-name="eight" unicode="8" horiz-adv-x="1022" 
d="M919.5 252.5q29.5 -33.5 29.5 -72.5q0 -53 -45 -96.5t-140 -70t-240 -26.5q-150 0 -251.5 26t-150.5 69.5t-49 97.5q0 88 123 138q-95 41 -95 126q0 50 46.5 93.5t138.5 70.5t222 27q135 0 231 -27t144.5 -72t48.5 -98q0 -46 -28 -76.5t-77 -51.5q63 -24 92.5 -57.5z
M343 542.5q-68 -14.5 -104 -40.5t-36 -58q0 -42 70.5 -64t243.5 -26q135 -1 232 -22q41 21 61 44t20 52q0 37 -36 66.5t-109 46t-179 16.5q-95 0 -163 -14.5zM701 78.5q72 14.5 108.5 39.5t36.5 57q0 42 -79.5 67.5t-251.5 28.5q-149 1 -247 24q-47 -24 -69.5 -50t-22.5 -56
q0 -37 40 -65t119 -44t192 -16q102 0 174 14.5z" />
    <glyph glyph-name="nine" unicode="9" horiz-adv-x="934" 
d="M758.5 555q112.5 -76 112.5 -220q0 -103 -61 -182.5t-166.5 -123t-234.5 -43.5q-96 0 -162.5 10.5t-135.5 30.5l27 79q69 -17 129.5 -26.5t137.5 -9.5q94 0 172.5 27t129 77t63.5 118q-164 -65 -356 -65q-164 0 -260.5 48.5t-96.5 144.5q0 66 48.5 113.5t135.5 72.5
t202 25q203 0 315.5 -76zM772 362q-11 90 -96.5 138t-227.5 48q-86 0 -151.5 -15.5t-101 -44.5t-35.5 -68q0 -109 272 -109q189 0 340 51z" />
    <glyph glyph-name="two.alt" horiz-adv-x="934" 
d="M850 224v-224h-794v82l-1 1l453 197q67 30 105 53t57 48.5t19 58.5q0 50 -53.5 79.5t-153.5 29.5q-97 0 -189 -30.5t-193 -89.5l-35 76q107 65 204 97t213 32q89 0 159.5 -22.5t110.5 -66t40 -102.5q0 -73 -57 -124t-181 -101l-326 -135h538v141h84z" />
    <glyph glyph-name="seven.alt" horiz-adv-x="934" 
d="M904 622v-72q0 -73 -39 -122t-113.5 -84.5t-208.5 -78.5q-267 -86 -267 -265h-92q1 99 65 185t224 142q131 41 199 69t102.5 61.5t34.5 81.5h-629v-162h-84v245h808z" />
    <glyph glyph-name="zero.slash" horiz-adv-x="1093" 
d="M307 22q-110 35 -177 108t-67 180q0 104 68.5 177.5t179 110t235.5 36.5q127 0 237.5 -36.5t178.5 -110t68 -177.5q0 -107 -68.5 -180t-179 -108t-236.5 -35q-129 0 -239 35zM736 92.5q87 27.5 139.5 83t52.5 134.5q0 76 -51.5 131.5t-138.5 85t-192 29.5
q-101 0 -188 -29.5t-139.5 -85t-52.5 -131.5q0 -79 51.5 -134.5t137.5 -83t191 -27.5q103 0 190 27.5zM483 261q-23 18 -23 46q0 31 23 49t63 18q41 0 63 -18t22 -49q0 -29 -22 -46.5t-63 -17.5q-40 0 -63 18z" />
    <glyph glyph-name="fraction" unicode="&#x2044;" horiz-adv-x="260" 
d="M344 738l69 -33l-255 -398l-234 -409l-68 32l254 399z" />
    <glyph glyph-name="onehalf" unicode="&#xbd;" horiz-adv-x="1233" 
d="M391 324v-58h-330v58h142v222q-48 -54 -130 -68l-17 62q52 13 88.5 34t58.5 59h71v-309h117zM791 738l69 -33l-255 -398l-234 -409l-68 32l254 399zM1183 144v-144h-466v43q0 58 49 94t159 55q76 14 111 22t53 19t18 29q0 26 -32 40.5t-91 14.5t-123.5 -19.5
t-110.5 -48.5l-27 49q55 35 121.5 54.5t139.5 19.5q82 0 135 -28t53 -81q0 -52 -50 -77t-157 -43q-95 -16 -138 -35.5t-43 -48.5h340v85h59z" />
    <glyph glyph-name="onequarter" unicode="&#xbc;" horiz-adv-x="1135" 
d="M391 324v-58h-330v58h142v222q-48 -54 -130 -68l-17 62q52 13 88.5 34t58.5 59h71v-309h117zM791 738l69 -33l-255 -398l-234 -409l-68 32l254 399zM1150 74h-113v-86h-72v86h-324v62l319 232h77v-232h113v-62zM965 136v179l-245 -179h245z" />
    <glyph glyph-name="threequarters" unicode="&#xbe;" horiz-adv-x="1268" 
d="M503 417q30 -20 30 -58q0 -50 -63.5 -77t-169.5 -27q-77 0 -141 19t-102 42l24 47q32 -21 88.5 -38t130.5 -17q75 0 120.5 14t45.5 40q0 29 -44.5 40.5t-150.5 11.5h-122v52h122q89 0 131.5 14.5t42.5 44.5q0 26 -35 40t-98 14q-115 0 -222 -56l-26 49q46 27 113 44.5
t137 17.5q90 0 144 -27t54 -77q0 -62 -95 -86q56 -7 86 -27zM924 738l69 -33l-255 -398l-234 -409l-68 32l254 399zM1283 74h-113v-86h-72v86h-324v62l319 232h77v-232h113v-62zM1098 136v179l-245 -179h245z" />
    <glyph glyph-name="two.dnom" horiz-adv-x="552" 
d="M502 144v-144h-466v43q0 58 49 94t159 55q76 14 111 22t53 19t18 29q0 26 -32 40.5t-91 14.5t-123.5 -19.5t-110.5 -48.5l-27 49q55 35 121.5 54.5t139.5 19.5q82 0 135 -28t53 -81q0 -52 -50 -77t-157 -43q-95 -16 -138 -35.5t-43 -48.5h340v85h59z" />
    <glyph glyph-name="four.dnom" horiz-adv-x="520" 
d="M535 74h-113v-86h-72v86h-324v62l319 232h77v-232h113v-62zM350 136v179l-245 -179h245z" />
    <glyph glyph-name="one.numr" horiz-adv-x="407" 
d="M391 324v-58h-330v58h142v222q-48 -54 -130 -68l-17 62q52 13 88.5 34t58.5 59h71v-309h117z" />
    <glyph glyph-name="three.numr" horiz-adv-x="580" 
d="M503 417q30 -20 30 -58q0 -50 -63.5 -77t-169.5 -27q-77 0 -141 19t-102 42l24 47q32 -21 88.5 -38t130.5 -17q75 0 120.5 14t45.5 40q0 29 -44.5 40.5t-150.5 11.5h-122v52h122q89 0 131.5 14.5t42.5 44.5q0 26 -35 40t-98 14q-115 0 -222 -56l-26 49q46 27 113 44.5
t137 17.5q90 0 144 -27t54 -77q0 -62 -95 -86q56 -7 86 -27z" />
    <glyph glyph-name="uni00B9" unicode="&#xb9;" horiz-adv-x="407" 
d="M391 479v-59h-330v59h142v221q-48 -54 -130 -68l-17 63q56 10 93 31t54 61h71v-308h117z" />
    <glyph glyph-name="uni00B2" unicode="&#xb2;" horiz-adv-x="552" 
d="M506 564v-144h-466v43q0 58 49 94t159 55q76 14 111 22t53 19t18 29q0 26 -32 40.5t-91 14.5t-123.5 -19.5t-110.5 -48.5l-27 49q55 35 121.5 54.5t139.5 19.5q82 0 135 -28t53 -81q0 -52 -50 -77t-157 -43q-95 -16 -138 -35.5t-43 -48.5h340v85h59z" />
    <glyph glyph-name="uni00B3" unicode="&#xb3;" horiz-adv-x="580" 
d="M504.5 570q28.5 -19 28.5 -55q0 -51 -63.5 -78.5t-169.5 -27.5q-77 0 -141 19t-102 42l24 47q31 -20 87.5 -37t131.5 -17q76 0 121 14t45 41q0 28 -43.5 39t-151.5 11h-122v52h122q91 0 132.5 13t41.5 44q0 27 -36 41.5t-98 14.5q-113 0 -221 -55l-26 47q46 28 112 45.5
t136 17.5q90 0 145 -28.5t55 -79.5q0 -61 -90 -83q54 -8 82.5 -27z" />
    <glyph glyph-name="asterisk" unicode="*" horiz-adv-x="585" 
d="M269 669q-2 14 -16 52q-6 15 -11 30t-5 24q0 19 14 33.5t44 15.5q28 -1 43 -16t15 -33q0 -13 -18 -55q-16 -38 -18 -51l-5 -25h-39zM200 593q-7 1 -23 1l-55 -1q-18 0 -27 1q-57 3 -57 49q0 29 16.5 43.5t39.5 14.5q15 -1 29 -9t38 -26l20.5 -15t32.5 -17l27 -11l-12 -34
zM346 623l26 11q12 5 26.5 14t27.5 19q21 16 36 24.5t29 9.5q23 0 40 -14.5t17 -43.5t-21.5 -39.5t-57.5 -10.5l-57 1q-18 0 -26 -1l-29 -4zM174 394q-17 0 -38 14q-21 20 -21 41q0 12 6 21q4 11 17.5 20.5t37.5 21.5q34 17 47 30l22 16l29 -24l-14 -21q-10 -13 -16.5 -31
t-7.5 -22q-9 -25 -16.5 -38.5t-19.5 -18.5q-13 -9 -26 -9zM366 421q-7 13 -17 40q-13 38 -23 52l-14 21l29 24l20 -16q10 -9 27 -18.5t21 -11.5q25 -13 38.5 -22t17.5 -20q6 -9 6 -21q0 -21 -20 -41q-20 -14 -38 -14q-13 0 -27 9q-13 5 -20 18z" />
    <glyph glyph-name="backslash" unicode="\" horiz-adv-x="635" 
d="M35 740h93l488 -845h-93z" />
    <glyph glyph-name="periodcentered" unicode="&#xb7;" horiz-adv-x="342" 
d="M104.5 281q-25.5 18 -25.5 46q0 30 25.5 49t67.5 19q43 0 67.5 -18.5t24.5 -49.5q0 -28 -24.5 -46t-67.5 -18q-42 0 -67.5 18z" />
    <glyph glyph-name="bullet" unicode="&#x2022;" horiz-adv-x="495" 
d="M138 249.5q-42 29.5 -42 75.5q0 51 42 82.5t110 31.5q71 0 111 -31t40 -83q0 -46 -40.5 -75.5t-110.5 -29.5q-68 0 -110 29.5z" />
    <glyph glyph-name="colon" unicode=":" horiz-adv-x="369" 
d="M117.5 368.5q-25.5 18.5 -25.5 47.5q0 30 25.5 48t66.5 18q44 0 68 -18t24 -48q0 -29 -24.5 -47.5t-67.5 -18.5q-41 0 -66.5 18.5zM117.5 5.5q-25.5 18.5 -25.5 46.5q0 30 25.5 48.5t66.5 18.5q44 0 68 -18t24 -49q0 -29 -24.5 -47t-67.5 -18q-41 0 -66.5 18.5z" />
    <glyph glyph-name="comma" unicode="," horiz-adv-x="369" 
d="M241.5 -88.5q-43.5 -54.5 -112.5 -108.5l-26 28q59 53 90 89.5t35 72.5q-19 -6 -54 -6q-34 0 -55.5 16t-21.5 41q0 28 25 44.5t68 16.5q45 0 70 -24.5t25 -68.5q0 -46 -43.5 -100.5z" />
    <glyph glyph-name="ellipsis" unicode="&#x2026;" horiz-adv-x="1051" 
d="M104.5 5.5q-25.5 18.5 -25.5 46.5q0 30 25.5 48.5t67.5 18.5q43 0 67.5 -18.5t24.5 -48.5q0 -28 -24.5 -46.5t-67.5 -18.5q-42 0 -67.5 18.5zM458 5.5q-26 18.5 -26 46.5q0 30 26 48.5t67 18.5q43 0 67.5 -18.5t24.5 -48.5q0 -28 -24.5 -46.5t-67.5 -18.5q-41 0 -67 18.5
zM812 5.5q-26 18.5 -26 46.5q0 30 25.5 48.5t67.5 18.5q43 0 67.5 -18.5t24.5 -48.5q0 -28 -24.5 -46.5t-67.5 -18.5q-41 0 -67 18.5z" />
    <glyph glyph-name="exclam" unicode="!" horiz-adv-x="392" 
d="M164 350q-11 113 -33 232q-2 11 -7.5 46.5t-5.5 51.5q0 33 19 54.5t60 21.5t60.5 -22t19.5 -54q0 -21 -13 -83q-13 -71 -21 -125.5t-13 -121.5l-11 -153h-44zM264.5 100.5q24.5 -18.5 24.5 -48.5q0 -29 -25 -47t-68 -18q-41 0 -66.5 18.5t-25.5 46.5q0 30 25 48.5
t67 18.5q44 0 68.5 -18.5z" />
    <glyph glyph-name="exclamdown" unicode="&#xa1;" horiz-adv-x="392" 
d="M127.5 599.5q-24.5 18.5 -24.5 48.5q0 29 25 47t68 18q41 0 66.5 -18.5t25.5 -46.5q0 -30 -25 -48.5t-67 -18.5q-44 0 -68.5 18.5zM228 350q11 -113 33 -232q2 -11 7.5 -46.5t5.5 -51.5q0 -33 -19 -54.5t-60 -21.5t-60.5 22t-19.5 54q0 21 13 83q13 71 21 125.5t13 121.5
l11 153h44z" />
    <glyph glyph-name="numbersign" unicode="#" horiz-adv-x="1061" 
d="M796 405l-58 -159h239v-77h-267l-62 -169h-84l61 169h-304l-62 -169h-84l61 169h-217v77h245l58 159h-238v77h266l60 165h86l-60 -165h302l60 165h86l-60 -165h218v-77h-246zM710 405h-303l-58 -159h304z" />
    <glyph glyph-name="period" unicode="." horiz-adv-x="342" 
d="M104.5 5.5q-25.5 18.5 -25.5 46.5q0 30 25.5 48.5t67.5 18.5q43 0 67.5 -18.5t24.5 -48.5q0 -28 -24.5 -46.5t-67.5 -18.5q-42 0 -67.5 18.5z" />
    <glyph glyph-name="question" unicode="?" horiz-adv-x="617" 
d="M298 699q81 0 143.5 -22.5t97.5 -63t35 -93.5q0 -67 -52 -106t-144 -65q-68 -20 -101.5 -32t-50 -26t-16.5 -33q0 -17 4.5 -30.5t10 -26t7.5 -17.5l-34 -12q-30 33 -45 59.5t-15 54.5q0 43 44 71t133 55q79 24 115 46.5t36 59.5q0 44 -48 69.5t-127 25.5q-121 0 -224 -46
l-28 81q123 51 259 51zM175.5 4.5q-24.5 17.5 -24.5 44.5q0 28 24 45.5t64 17.5q42 0 65 -17.5t23 -45.5q0 -27 -23.5 -44.5t-64.5 -17.5q-39 0 -63.5 17.5z" />
    <glyph glyph-name="questiondown" unicode="&#xbf;" horiz-adv-x="601" 
d="M425.5 671.5q24.5 -17.5 24.5 -44.5q0 -28 -24 -45.5t-64 -17.5q-42 0 -65 17.5t-23 45.5q0 27 23.5 44.5t64.5 17.5q39 0 63.5 -17.5zM303 -23q-81 0 -143.5 22.5t-97.5 63t-35 93.5q0 67 52 106t144 65q68 20 101.5 32t50 26t16.5 33q0 17 -4.5 30.5t-10 26t-7.5 17.5
l34 12q30 -33 45 -59.5t15 -54.5q0 -43 -44 -71t-133 -55q-79 -24 -115 -46.5t-36 -59.5q0 -44 48 -69.5t127 -25.5q121 0 224 46l28 -81q-123 -51 -259 -51z" />
    <glyph glyph-name="quotedbl" unicode="&#x22;" horiz-adv-x="512" 
d="M213 725l-67 -259l-61 5l23 267zM446 725l-67 -260l-62 5l23 268z" />
    <glyph glyph-name="quotesingle" unicode="'" horiz-adv-x="294" 
d="M227 719l-82 -254l-60 10l38 266z" />
    <glyph glyph-name="semicolon" unicode=";" horiz-adv-x="381" 
d="M127 368q-26 18 -26 47q0 30 26 48.5t67 18.5q44 0 68 -18t24 -49q0 -29 -24.5 -47t-67.5 -18q-41 0 -67 18zM107 -183q60 54 91 90.5t35 72.5q-19 -6 -54 -6t-56.5 16t-21.5 41q0 28 25.5 44.5t67.5 16.5q46 0 70.5 -24.5t24.5 -68.5q0 -46 -43.5 -101t-111.5 -108z" />
    <glyph glyph-name="slash" unicode="/" horiz-adv-x="636" 
d="M19 -105l484 845h92l-483 -845h-93z" />
    <glyph glyph-name="underscore" unicode="_" horiz-adv-x="553" 
d="M571 -173h-590v84h590v-84z" />
    <glyph glyph-name="braceleft" unicode="{" horiz-adv-x="645" 
d="M618 -69l27 -78q-117 -37 -233 -37q-72 0 -134 20.5t-100 60.5t-38 96q0 42 22 72t52 48.5t79 41.5t71 39t22 38q0 39 -44.5 57.5t-133.5 17.5h-86v72h86q90 0 134 17.5t44 56.5q0 22 -22 38t-71 39q-48 22 -78.5 41t-52.5 49t-22 72q0 57 38 97t100 60t134 20
q113 0 233 -36l-27 -79q-49 13 -93 21t-90 8q-80 0 -140.5 -24.5t-60.5 -76.5q0 -33 27 -53t83 -46q42 -19 68 -34t44 -38t18 -56q0 -44 -40 -72.5t-107 -39.5q68 -12 107.5 -40.5t39.5 -72.5q0 -32 -18 -55t-43.5 -38t-68.5 -35q-56 -25 -83 -45.5t-27 -53.5
q0 -52 60 -76.5t141 -24.5q82 0 183 29z" />
    <glyph glyph-name="braceright" unicode="}" horiz-adv-x="645" 
d="M303 288.5q-44 -17.5 -44 -56.5q0 -21 22 -37t70 -39t79 -42t53 -49t22 -72q0 -56 -38 -96t-100 -60.5t-134 -20.5q-110 0 -233 37l26 78q51 -13 94.5 -21t89.5 -8q80 0 140.5 24.5t60.5 76.5q0 33 -27 53.5t-83 45.5q-43 20 -68.5 35t-43.5 38t-18 55q0 43 39.5 72
t106.5 40q-67 12 -106.5 40.5t-39.5 72.5q0 32 18 55t43.5 38t68.5 35q56 25 83 45.5t27 53.5q0 52 -60.5 76.5t-140.5 24.5q-84 0 -184 -30l-26 80q120 36 233 36q72 0 134 -20t100 -60t38 -97q0 -42 -22 -72t-52 -48.5t-78 -40.5q-49 -23 -71.5 -39t-22.5 -39
q0 -39 44 -56.5t133 -17.5h87v-73h-87q-89 0 -133 -17.5z" />
    <glyph glyph-name="bracketleft" unicode="[" horiz-adv-x="499" 
d="M272 747v-804h250v-83h-340v970h340v-83h-250z" />
    <glyph glyph-name="bracketright" unicode="]" horiz-adv-x="499" 
d="M318 -140h-341v83h251v804h-251v83h341v-970z" />
    <glyph glyph-name="parenleft" unicode="(" horiz-adv-x="484" 
d="M306 -65.5q-85 62.5 -146.5 167t-61.5 241.5t59.5 239.5t143.5 164t166 89.5l21 -44q-60 -28 -126.5 -82t-117.5 -147.5t-51 -219.5t52.5 -221.5t121 -151.5t121.5 -78l-21 -43q-76 23 -161 85.5z" />
    <glyph glyph-name="parenright" unicode=")" horiz-adv-x="484" 
d="M-4 -107q60 27 126.5 81.5t117.5 148.5t51 220t-52.5 221t-120.5 151.5t-122 77.5l22 43q75 -23 160.5 -85.5t146.5 -166.5t61 -241t-59.5 -239.5t-143 -164t-165.5 -90.5z" />
    <glyph glyph-name="emdash" unicode="&#x2014;" horiz-adv-x="1156" 
d="M1130 194h-1103v84h1103v-84z" />
    <glyph glyph-name="endash" unicode="&#x2013;" horiz-adv-x="779" 
d="M753 194h-726v84h726v-84z" />
    <glyph glyph-name="hyphen" unicode="-" horiz-adv-x="423" 
d="M397 194h-370v85h370v-85z" />
    <glyph glyph-name="uni00AD" unicode="&#xad;" horiz-adv-x="424" 
d="M397 194h-370v85h370v-85z" />
    <glyph glyph-name="guillemotleft" unicode="&#xab;" horiz-adv-x="1051" 
d="M412.5 168q85.5 -61 136.5 -157l-75 -33q-52 103 -147.5 163.5t-256.5 60.5h-14v84h13q161 0 256.5 61t146.5 163l76 -33q-50 -95 -135 -156.5t-226 -76.5q140 -15 225.5 -76zM835 165q84 -64 129 -154l-75 -33q-47 98 -136.5 161t-227.5 63h-1v84h1q137 0 226.5 63
t135.5 161l76 -33q-44 -90 -127.5 -153.5t-208.5 -79.5q124 -15 208 -79z" />
    <glyph glyph-name="guillemotright" unicode="&#xbb;" horiz-adv-x="1051" 
d="M527 202q-134 0 -225.5 -64t-137.5 -160l-76 32q45 90 129 154t208 79q-125 16 -209 80t-129 154l76 33q45 -97 137 -161t226 -64h1v-83zM994 285v-83h-13q-161 0 -256.5 -61t-146.5 -163l-76 32q51 96 136 157t226 76q-141 15 -226.5 76.5t-136.5 157.5l76 33
q51 -103 146.5 -164t255.5 -61h15z" />
    <glyph glyph-name="guilsinglleft" unicode="&#x2039;" horiz-adv-x="671" 
d="M445.5 167q87.5 -61 138.5 -158l-76 -32q-50 101 -151.5 162.5t-267.5 61.5h-33v85h32q166 0 267.5 61t152.5 162l75 -33q-50 -96 -137.5 -157t-235.5 -76q148 -15 235.5 -76z" />
    <glyph glyph-name="guilsinglright" unicode="&#x203a;" horiz-adv-x="672" 
d="M616 286v-85h-34q-166 0 -267 -61.5t-151 -162.5l-76 32q50 97 138 158t235 76q-148 15 -235.5 76t-138.5 157l76 33q113 -223 418 -223h35z" />
    <glyph glyph-name="quotedblbase" unicode="&#x201e;" horiz-adv-x="612" 
d="M103 -170q57 51 89 89t36 73q-32 -5 -54 -5q-34 0 -55.5 15.5t-21.5 41.5q0 28 25 44t68 16q45 0 70 -24.5t25 -68.5q0 -46 -44 -101t-112 -108zM345 -172q61 56 91.5 91.5t34.5 71.5q-22 -5 -55 -5q-34 0 -55.5 15t-21.5 40q0 28 25.5 45t67.5 17q45 0 70 -25t25 -69
q0 -46 -43.5 -101t-111.5 -107z" />
    <glyph glyph-name="quotedblleft" unicode="&#x201c;" horiz-adv-x="612" 
d="M110 477.5q-25 24.5 -25 68.5q0 46 43 101.5t111 108.5l28 -28q-58 -53 -89.5 -90.5t-36.5 -73.5q25 7 55 7q34 0 55.5 -16.5t21.5 -40.5q0 -28 -25.5 -44.5t-67.5 -16.5q-45 0 -70 24.5zM352 476.5q-25 24.5 -25 68.5q0 46 43.5 101t111.5 108l27 -28q-57 -52 -88.5 -90
t-36.5 -74q18 7 55 7q34 0 55.5 -16t21.5 -40q0 -28 -25.5 -44.5t-67.5 -16.5q-46 0 -71 24.5z" />
    <glyph glyph-name="quotedblright" unicode="&#x201d;" horiz-adv-x="612" 
d="M103 469q58 52 89.5 89.5t35.5 73.5q-22 -5 -54 -5q-35 0 -56 15t-21 41q0 27 25.5 44t67.5 17q45 0 70 -25t25 -70t-44 -100t-112 -108zM345 467q60 54 91 90t35 73q-26 -6 -55 -6q-34 0 -55.5 16t-21.5 42t25.5 43t67.5 17q45 0 70 -24.5t25 -69.5q0 -46 -43.5 -101
t-111.5 -108z" />
    <glyph glyph-name="quoteleft" unicode="&#x2018;" horiz-adv-x="369" 
d="M110 477.5q-25 24.5 -25 68.5q0 46 43 101.5t111 108.5l28 -28q-58 -53 -89.5 -90.5t-36.5 -73.5q25 7 55 7q34 0 55.5 -16.5t21.5 -40.5q0 -28 -25.5 -44.5t-67.5 -16.5q-45 0 -70 24.5z" />
    <glyph glyph-name="quotereversed" unicode="&#x201b;" horiz-adv-x="369" 
d="M128.5 547q-43.5 55 -43.5 101q0 44 24.5 68.5t70.5 24.5q42 0 67.5 -16t25.5 -44q0 -25 -21.5 -40.5t-55.5 -15.5q-30 0 -55 7q5 -36 36.5 -74t89.5 -91l-28 -27q-67 52 -110.5 107z" />
    <glyph glyph-name="quoteright" unicode="&#x2019;" horiz-adv-x="369" 
d="M103 479q59 53 90 89.5t35 73.5q-19 -6 -54 -6t-56 15.5t-21 40.5q0 28 25 44.5t68 16.5q45 0 70 -24.5t25 -68.5q0 -46 -43.5 -100.5t-112.5 -108.5z" />
    <glyph glyph-name="quotesinglbase" unicode="&#x201a;" horiz-adv-x="369" 
d="M103 -169q59 53 90 89.5t35 72.5q-19 -6 -54 -6q-34 0 -55.5 16t-21.5 41q0 28 25 44.5t68 16.5q45 0 70 -24.5t25 -68.5q0 -46 -43.5 -100.5t-112.5 -108.5z" />
    <glyph glyph-name="space" unicode=" " horiz-adv-x="440" 
 />
    <glyph glyph-name="uni00A0" unicode="&#xa0;" horiz-adv-x="440" 
 />
    <glyph glyph-name="nonmarkingreturn" unicode="&#xd;" horiz-adv-x="781" 
 />
    <glyph glyph-name="cent" unicode="&#xa2;" horiz-adv-x="942" 
d="M707 110q-83 -28 -192 -34v-89h-77v88q-103 3 -181.5 32.5t-121.5 79.5t-43 116q0 78 49 131.5t127.5 81t169.5 30.5v88h77v-91q141 -15 256 -94v83h71v-170l-40 -9q-63 50 -137.5 79t-153.5 35v-314q171 9 309 96l37 -67q-67 -44 -150 -72zM258.5 197
q68.5 -39 184.5 -44v314q-105 -5 -179 -45.5t-74 -118.5q0 -67 68.5 -106z" />
    <glyph glyph-name="currency" unicode="&#xa4;" horiz-adv-x="726" 
d="M526 196l104 -121l-42 -38l-107 126q-51 -27 -119 -27q-66 0 -117 27l-107 -126l-42 38l103 120q-48 50 -48 116q0 70 48 116l-103 120l42 38l106 -125q50 26 118 26q70 0 120 -26l106 125l42 -38l-103 -120q45 -47 45 -116t-46 -115zM457.5 235.5q34.5 29.5 34.5 76.5
t-34.5 75.5t-96.5 28.5q-61 0 -96 -28.5t-35 -75.5t35 -76.5t96 -29.5q62 0 96.5 29.5z" />
    <glyph glyph-name="dollar" unicode="$" horiz-adv-x="1095" 
d="M838.5 325.5q89.5 -19.5 133.5 -55.5t44 -94q0 -83 -88 -126t-227 -43q-39 0 -91 5v-158h-77v169q-84 17 -162.5 48.5t-142.5 74.5v-137h-86v245l46 9q67 -64 158.5 -105.5t190.5 -60.5v172l-21 2q-140 8 -222 30.5t-116 57.5t-34 84q0 53 37 91t104 58.5t155 20.5
q53 0 93 -4v157h77v-168q161 -30 275 -115v130h85v-230l-43 -8q-129 117 -322 149v-171q144 -8 233.5 -27.5zM269.5 407q25.5 -17 89 -29t178.5 -20v174q-39 3 -80 3q-99 0 -156 -21.5t-57 -64.5q0 -25 25.5 -42zM855.5 100q61.5 18 61.5 64q0 27 -30.5 45t-97.5 30.5
t-184 23.5v-176q38 -5 86 -5q103 0 164.5 18z" />
    <glyph glyph-name="Euro" unicode="&#x20ac;" horiz-adv-x="1208" 
d="M1106 115q-181 -128 -444 -128q-149 0 -267.5 53t-165.5 152h-167v60h148q-6 27 -6 57q0 21 3 40h-144v60h158q27 73 91.5 123.5t150 76t175.5 25.5q118 0 217 -34t169 -90l-1 110h81v-225l-39 -8q-84 91 -184 130t-221 39q-109 0 -200.5 -37t-129.5 -110h568v-60h-589
q-3 -19 -3 -40q0 -32 7 -57h583v-60h-556q43 -63 129 -95t193 -32q120 0 223 32t181 88z" />
    <glyph glyph-name="florin" unicode="&#x192;" horiz-adv-x="826" 
d="M435 502v-98h270v-78h-270v-257q0 -116 -67 -177.5t-193 -62.5q-45 0 -103 14l17 85q41 -12 77 -12q172 0 172 150v260h-189v78h189v95q0 108 63 171t189 63q67 0 133 -16t140 -45l-32 -81q-128 55 -233 55q-163 0 -163 -144z" />
    <glyph glyph-name="uni20BA" unicode="&#x20ba;" horiz-adv-x="971" 
d="M891 288q-39 -140 -151.5 -214t-329.5 -74h-175v230l-162 -52v63l162 52v90l-160 -51v64l160 51v187h96v-157l407 130v-64l-407 -130v-89l404 129v-64l-404 -129v-181h77q119 0 199.5 23.5t131.5 75t79 137.5z" />
    <glyph glyph-name="uni20BD" unicode="&#x20bd;" horiz-adv-x="1065" 
d="M400 315v-85h513v-56h-513v-91h240v-83h-557v83h221v91h-224v56h224v85l-221 1v65h221v170h-221v83h704q110 0 174 -42.5t64 -121.5q0 -75 -66.5 -116t-171.5 -40zM400 381h365q72 0 113 22t41 69t-41 68.5t-113 21.5h-365v-181z" />
    <glyph glyph-name="sterling" unicode="&#xa3;" horiz-adv-x="1017" 
d="M983 169q-18 -87 -82 -134.5t-172 -47.5q-73 0 -166.5 31t-177.5 87q-26 -55 -93.5 -86.5t-161.5 -31.5h-52v81h52q65 0 117 26t52 80q0 14 -3 26h-216v60h189l-15 22q-29 41 -39 68h-135v61h121v11q0 64 37.5 112t105 74t153.5 26q213 0 360 -108v108h83v-207l-47 -8
q-81 75 -175 105.5t-204 30.5q-95 0 -155.5 -34.5t-60.5 -98.5v-11h479v-61h-462q13 -28 35 -58q18 -28 20 -32h406v-60h-380q2 -10 2 -17q84 -53 174.5 -83t157.5 -30q73 0 118.5 30.5t59.5 90.5z" />
    <glyph glyph-name="yen" unicode="&#xa5;" horiz-adv-x="1195" 
d="M973 538l-135 -129h246v-56h-304l-95 -91h399v-56h-435v-123h223v-83h-548v83h225v123h-437v56h397l-98 91h-299v56h239l-138 129h-175v82h439v-82h-144l272 -257l264 257h-147v82h435v-82h-184z" />
    <glyph glyph-name="uni2126" unicode="&#x2126;" horiz-adv-x="1176" 
d="M1130 214v-214h-452l-12 48q106 64 158 128t52 145q0 69 -40.5 122.5t-107 83t-139.5 29.5q-74 0 -140.5 -29t-107 -83t-40.5 -123q0 -82 52 -145.5t158 -127.5l-12 -48h-453v214h86v-139h209q-67 49 -106 114.5t-39 138.5q0 87 54 157t144.5 109.5t194.5 39.5
q103 0 193 -39.5t144.5 -110t54.5 -156.5q0 -73 -39 -138.5t-107 -114.5h209v139h86z" />
    <glyph glyph-name="approxequal" unicode="&#x2248;" horiz-adv-x="904" 
d="M539.5 349q-37.5 13 -93.5 41q-50 27 -82.5 39.5t-66.5 12.5q-42 0 -77.5 -23t-60.5 -65l-68 40q31 57 82 94t114 37q39 0 79 -13.5t90 -39.5q51 -28 83 -40t67 -12q42 0 77.5 22.5t59.5 66.5l69 -41q-31 -58 -82 -95t-114 -37q-39 0 -76.5 13zM536.5 102
q-39.5 13 -90.5 40q-52 28 -83.5 40.5t-65.5 12.5q-42 0 -78 -23t-60 -67l-68 41q31 57 82 94t114 37q39 0 79 -13.5t90 -39.5q51 -28 83 -40t67 -12q42 0 77.5 22.5t59.5 66.5l69 -41q-32 -57 -83 -94t-113 -37q-40 0 -79.5 13z" />
    <glyph glyph-name="asciitilde" unicode="~" horiz-adv-x="954" 
d="M559.5 206q-48.5 27 -113.5 79l-18 15q-44 36 -74.5 53.5t-68.5 17.5q-56 0 -87.5 -47.5t-35.5 -124.5l-84 5q2 63 25.5 120.5t70 93.5t113.5 36q43 0 80 -13.5t65 -33t73 -55.5l39.5 -32t66 -42.5t58.5 -14.5q60 0 89.5 46.5t32.5 125.5l84 -5q-2 -64 -24.5 -121
t-68.5 -93.5t-116 -36.5q-58 0 -106.5 27z" />
    <glyph glyph-name="uni2219" unicode="&#x2219;" horiz-adv-x="495" 
d="M138 249.5q-42 29.5 -42 75.5q0 51 42 82.5t110 31.5q71 0 111 -31t40 -83q0 -46 -40.5 -75.5t-110.5 -29.5q-68 0 -110 29.5z" />
    <glyph glyph-name="uni2215" unicode="&#x2215;" horiz-adv-x="690" 
d="M19 -171l536 977h94l-536 -977h-94z" />
    <glyph glyph-name="equal" unicode="=" horiz-adv-x="892" 
d="M800 401h-709v84h709v-84zM800 136h-709v84h709v-84z" />
    <glyph glyph-name="greater" unicode="&#x3e;" horiz-adv-x="765" 
d="M726 321v-19l-634 -267v95l466 181l-466 180v94z" />
    <glyph glyph-name="greaterequal" unicode="&#x2265;" horiz-adv-x="753" 
d="M716 465v-18l-612 -235v95l435 148l-435 147v95zM92 100h619v-84h-619v84z" />
    <glyph glyph-name="uni2206" unicode="&#x2206;" horiz-adv-x="967" 
d="M881 -1h-795l373 610h57zM735 76l-248 428l-252 -428h500z" />
    <glyph glyph-name="infinity" unicode="&#x221e;" horiz-adv-x="1207" 
d="M1039.5 510q54.5 -32 82.5 -83.5t28 -110.5q0 -58 -30 -110t-85 -84t-126 -32q-85 0 -156.5 41t-151.5 124q-82 -82 -152.5 -123.5t-150.5 -41.5q-75 0 -129.5 32t-83 83.5t-28.5 110.5q0 58 30 109.5t85 83.5t126 32q86 0 157.5 -41t150.5 -125q82 83 152.5 125
t150.5 42q76 0 130.5 -32zM419 205.5q53 32.5 128 108.5q-72 77 -126 110.5t-111 33.5q-44 0 -79 -18.5t-55 -51t-20 -72.5q0 -62 42.5 -102.5t111.5 -40.5q56 0 109 32.5zM976.5 192q35.5 19 55.5 51.5t20 72.5q0 62 -43 102t-112 40q-56 0 -109.5 -32.5t-126.5 -109.5
q71 -76 125 -109.5t111 -33.5q44 0 79.5 19z" />
    <glyph glyph-name="integral" unicode="&#x222b;" horiz-adv-x="676" 
d="M18 -215.5q-53 15.5 -109 43.5l33 80q54 -27 94 -40t90 -13q81 0 122.5 49t41.5 135v532q0 131 67.5 202.5t184.5 71.5q64 0 116.5 -15.5t109.5 -44.5l-34 -80q-50 26 -91.5 39.5t-91.5 13.5q-81 0 -122.5 -49t-41.5 -135v-532q0 -131 -67.5 -202t-184.5 -71
q-64 0 -117 15.5z" />
    <glyph glyph-name="less" unicode="&#x3c;" horiz-adv-x="765" 
d="M673 492l-466 -181l466 -179v-95l-634 264v19l634 266v-94z" />
    <glyph glyph-name="lessequal" unicode="&#x2264;" horiz-adv-x="753" 
d="M650 212l-612 232v20l612 233v-95l-437 -147l437 -148v-95zM662 100v-84h-620v84h620z" />
    <glyph glyph-name="logicalnot" unicode="&#xac;" horiz-adv-x="825" 
d="M737 68h-84v285h-599v84h683v-369z" />
    <glyph glyph-name="uni00B5" unicode="&#xb5;" horiz-adv-x="1205" 
d="M1149 17q-25 -17 -53 -26t-64 -9q-62 0 -102.5 39.5t-41.5 110.5q-95 -70 -181 -110.5t-179 -40.5q-146 0 -203 102q1 -9 12 -54q1 -5 6.5 -30t5.5 -45v-172h-96v610h-211v79h308v-211q0 -88 47.5 -137t150.5 -50q81 0 166.5 38.5t173.5 100.5v259h99v-320
q0 -44 19.5 -66t47.5 -22q37 0 69 24z" />
    <glyph glyph-name="minus" unicode="&#x2212;" horiz-adv-x="829" 
d="M768 269h-708v84h708v-84z" />
    <glyph glyph-name="multiply" unicode="&#xd7;" horiz-adv-x="831" 
d="M662 36l-261 221l-259 -219l-58 62l251 212l-253 214l60 63l260 -220l260 220l58 -62l-252 -213l254 -214z" />
    <glyph glyph-name="notequal" unicode="&#x2260;" horiz-adv-x="892" 
d="M547 401l-111 -181h364v-84h-415l-87 -143h-91l87 143h-203v84h254l111 181h-365v84h416l88 144h91l-88 -144h202v-84h-253z" />
    <glyph glyph-name="partialdiff" unicode="&#x2202;" horiz-adv-x="896" 
d="M673.5 722.5q65.5 -36.5 104 -105.5t38.5 -162q0 -127 -64 -237.5t-172.5 -176.5t-236.5 -66q-137 0 -213.5 55t-76.5 153q0 64 44 117.5t118.5 84.5t163.5 31q93 0 171 -28t139 -77q25 70 25 144q0 102 -55 160t-147 58q-53 0 -102 -16t-105 -48l-40 73q60 36 124 56.5
t139 20.5q80 0 145.5 -36.5zM523.5 105q84.5 52 135.5 140q-114 93 -270 93q-67 0 -120 -20t-83 -55.5t-30 -79.5q0 -61 49.5 -95.5t138.5 -34.5q95 0 179.5 52z" />
    <glyph glyph-name="percent" unicode="%" horiz-adv-x="1221" 
d="M197 12l772 645l52 -51l-772 -646zM169 327.5q-49 21.5 -76.5 59t-27.5 85.5q0 50 27.5 87.5t76 57.5t109.5 20q95 0 153.5 -45t58.5 -120q0 -49 -26.5 -86.5t-75 -58.5t-110.5 -21q-60 0 -109 21.5zM375 405q35 25 35 67q0 41 -35 66t-96 25t-96.5 -24.5t-35.5 -66.5
q0 -40 36 -66t96 -26q61 0 96 25zM790.5 26.5q-58.5 45.5 -58.5 120.5q0 48 26.5 85.5t75 58.5t110.5 21q60 0 108.5 -21.5t76 -59t27.5 -85.5q0 -75 -59.5 -120t-152.5 -45q-95 0 -153.5 45.5zM1039.5 79q35.5 25 35.5 67q0 41 -36 66.5t-95 25.5q-61 0 -96 -25t-35 -66
q0 -42 35 -67.5t96 -25.5q60 0 95.5 25z" />
    <glyph glyph-name="perthousand" unicode="&#x2030;" horiz-adv-x="1716" 
d="M184 19l857 676l50 -52l-856 -676zM175 327.5q-48 21.5 -75.5 59t-27.5 85.5q0 50 27.5 87.5t75 57.5t107.5 20q61 0 108.5 -20.5t74 -58t26.5 -86.5t-26.5 -86.5t-74.5 -58.5t-108 -21q-59 0 -107 21.5zM376.5 405q34.5 25 34.5 67q0 41 -34.5 66t-93.5 25t-94 -24.5
t-35 -66.5q0 -40 35.5 -66t93.5 -26q59 0 93.5 25zM813 1.5q-48 20.5 -74.5 58t-26.5 87.5q0 48 27 85.5t74.5 58.5t108.5 21q59 0 106.5 -21.5t75 -59t27.5 -85.5q0 -50 -27 -87.5t-74.5 -57.5t-107.5 -20q-61 0 -109 20.5zM1326.5 1.5q-47.5 20.5 -74 58t-26.5 87.5
q0 48 26.5 85.5t74.5 58.5t108 21q59 0 107 -21.5t75.5 -59t27.5 -85.5q0 -50 -27.5 -87.5t-75 -57.5t-107.5 -20q-61 0 -108.5 20.5zM1016 79q35 25 35 67q0 41 -35.5 66.5t-93.5 25.5q-59 0 -93.5 -25.5t-34.5 -65.5q0 -42 34.5 -67.5t93.5 -25.5t94 25zM1528 79
q35 25 35 67q0 41 -35.5 66.5t-92.5 25.5q-58 0 -93 -25.5t-35 -65.5q0 -42 34.5 -67.5t93.5 -25.5q58 0 93 25z" />
    <glyph glyph-name="plus" unicode="+" horiz-adv-x="827" 
d="M759 269h-303v-235h-86v235h-300v84h300v233h86v-233h303v-84z" />
    <glyph glyph-name="plusminus" unicode="&#xb1;" horiz-adv-x="829" 
d="M756 451v-84h-300v-170h-86v170h-297v84h297v170h86v-170h300zM73 132h680v-83h-680v83z" />
    <glyph glyph-name="product" unicode="&#x220f;" horiz-adv-x="844" 
d="M708 0h-84v630h-404v-630h-84v714h572v-714z" />
    <glyph glyph-name="radical" unicode="&#x221a;" horiz-adv-x="877" 
d="M485 2v-3h-51l-215 391l-164 -65l-28 71l241 91l191 -345l284 701l81 -30z" />
    <glyph glyph-name="summation" unicode="&#x2211;" horiz-adv-x="958" 
d="M741 551v177h-516l317 -371v-22l-320 -378h519v177h92v-259l-781 -3l-6 21l383 452l-383 446l6 22l781 -2v-260h-92z" />
    <glyph glyph-name="lozenge" unicode="&#x25ca;" horiz-adv-x="829" 
d="M80 316l313 412h56l299 -412l-306 -415h-56zM651 316l-231 322l-241 -323l235 -324z" />
    <glyph glyph-name="u1F628" unicode="&#x1f628;" 
d="M331 -159q-127 59 -196.5 162t-69.5 230q0 128 69.5 231t196 162t292.5 59q167 0 294 -59t196.5 -162t69.5 -231q0 -127 -69.5 -230t-196.5 -162t-294 -59q-165 0 -292 59zM886.5 -110.5q112.5 52.5 173 142.5t60.5 201t-60.5 201.5t-173 143t-262.5 52.5t-262.5 -52.5
t-173 -143t-59.5 -201.5q-1 -110 59.5 -200.5t173 -143t262.5 -52.5t262.5 52.5zM252 335q36 45 86.5 70t115.5 40l16 -64q-64 -8 -111 -25t-86 -50zM890 356q-47 17 -111 25l15 64q65 -15 115.5 -40t87.5 -70l-21 -29q-39 33 -86 50zM327.5 173.5q-16.5 16.5 -16.5 40.5
q0 23 16.5 39.5t40.5 16.5q23 0 39.5 -16.5t16.5 -39.5q0 -24 -16.5 -40.5t-39.5 -16.5q-24 0 -40.5 16.5zM838.5 173.5q-16.5 16.5 -16.5 40.5q0 23 16.5 39.5t39.5 16.5q24 0 40.5 -16.5t16.5 -39.5q0 -24 -16.5 -40.5t-40.5 -16.5q-23 0 -39.5 16.5zM482 -3q-60 3 -146 9
v30q149 11 288 11q85 0 147.5 -2.5t142.5 -8.5v-30q-88 -6 -147.5 -9t-142.5 -3q-82 0 -142 3z" />
    <glyph glyph-name="u1F620" unicode="&#x1f620;" 
d="M331 -159q-127 59 -196.5 162t-69.5 230q0 128 69.5 231t196 162t292.5 59q167 0 294 -59t196.5 -162t69.5 -231q0 -127 -69.5 -230t-196.5 -162t-294 -59q-165 0 -292 59zM886.5 -110.5q112.5 52.5 173 142.5t60.5 201t-60.5 201.5t-173 143t-262.5 52.5t-262.5 -52.5
t-173 -143t-59.5 -201.5q-1 -110 59.5 -200.5t173 -143t262.5 -52.5t262.5 52.5zM353.5 394.5q48.5 -13.5 113.5 -16.5l-13 -65q-64 8 -117 30t-94 65l20 31q42 -31 90.5 -44.5zM1006 408q-41 -43 -94 -65t-118 -30l-12 65q65 3 113.5 16.5t90.5 44.5zM327.5 173.5
q-16.5 16.5 -16.5 40.5q0 23 16.5 39.5t40.5 16.5q23 0 39.5 -16.5t16.5 -39.5q0 -24 -16.5 -40.5t-39.5 -16.5q-24 0 -40.5 16.5zM838.5 173.5q-16.5 16.5 -16.5 40.5q0 23 16.5 39.5t39.5 16.5q24 0 40.5 -16.5t16.5 -39.5q0 -24 -16.5 -40.5t-40.5 -16.5
q-23 0 -39.5 16.5zM914 5l-9 -32q-143 55 -281 55q-75 0 -142.5 -14t-138.5 -41l-7 32q143 76 288 76q147 0 290 -76z" />
    <glyph glyph-name="bar" unicode="|" horiz-adv-x="387" 
d="M240 837v-1030h-94v1030h94z" />
    <glyph glyph-name="brokenbar" unicode="&#xa6;" horiz-adv-x="387" 
d="M240 837v-435h-94v435h94zM240 243v-436h-94v436h94z" />
    <glyph glyph-name="at" unicode="@" horiz-adv-x="1212" 
d="M905.5 611q118.5 -56 180.5 -148.5t62 -200.5q0 -68 -27 -121.5t-72 -83t-96 -29.5q-52 0 -86 21.5t-50 57.5q-71 -39 -155.5 -59t-163.5 -20q-89 0 -144 28.5t-55 85.5q0 64 68.5 92t182.5 28q102 0 254 -22v17q0 27 -20.5 50.5t-62 38.5t-101.5 15q-121 0 -288 -55
l-10 68q173 56 312 56q129 0 189 -49.5t60 -127.5v-73q0 -42 20 -67.5t62 -25.5q33 0 60.5 22t44 61.5t16.5 91.5q0 94 -55 174.5t-159 129.5t-246 49q-144 0 -258.5 -54t-178.5 -146t-64 -200q0 -109 53 -187t142 -118t195 -40q188 0 327 86l24 -49q-55 -36 -141.5 -63
t-208.5 -27q-120 0 -223 43.5t-165.5 134t-62.5 222.5q0 129 73 231.5t201 160.5t287 58q161 0 279.5 -56zM658 111q74 15 147 45q-1 6 -1 17v10l-27 3q-51 6 -107 10.5t-103 4.5q-86 -1 -132 -11.5t-46 -44.5q0 -49 129 -49q66 0 140 15z" />
    <glyph glyph-name="ampersand" unicode="&#x26;" horiz-adv-x="1000" 
d="M903 -7q-34 -7 -82 -7q-91 0 -191 46q-128 -47 -275 -47t-223 52t-76 137q0 81 67 132t205 83q-8 43 -8 85q0 62 28.5 113t78.5 80.5t113 29.5q54 0 93.5 -20t60 -54t20.5 -75q0 -74 -66 -130.5t-202 -83.5q29 -66 81 -120.5t117 -90.5q76 35 120 85t44 104q0 31 -8.5 51
t-26.5 46l83 28q21 -28 33 -57t12 -72q0 -59 -43.5 -118.5t-120.5 -106.5q49 -13 86 -13q41 0 70.5 5.5t59.5 18.5l18 -78q-34 -16 -68 -23zM481 600.5q-29 -16.5 -47 -49t-18 -77.5q0 -34 6 -66q105 24 150.5 59.5t45.5 76.5q0 33 -20.5 53t-56.5 20q-31 0 -60 -16.5z
M537 86q-62 44 -110.5 102.5t-76.5 126.5q-107 -23 -153.5 -53t-46.5 -79q0 -52 50 -85t159 -33q91 0 178 21z" />
    <glyph glyph-name="paragraph" unicode="&#xb6;" horiz-adv-x="1199" 
d="M1024 686v-651q0 -95 -42.5 -157.5t-111 -91.5t-149.5 -29q-78 0 -153.5 16.5t-152.5 42.5l27 84q57 -22 125.5 -38t129.5 -18v478q-160 -79 -324 -79q-87 0 -160.5 25.5t-117.5 76t-44 121.5q0 65 48 119t130.5 84.5t182.5 30.5q139 0 277.5 -48t246.5 -128v162h88z
M697 400v161q-152 56 -285 56q-68 0 -126 -19.5t-92.5 -54.5t-34.5 -78q0 -68 63.5 -102t164.5 -36q157 0 310 73zM894 -86q42 46 42 124v392q-68 51 -151 92v-670q67 16 109 62z" />
    <glyph glyph-name="copyright" unicode="&#xa9;" 
d="M917 626q127 -59 196.5 -162t69.5 -231q0 -127 -69.5 -230t-196.5 -162t-294 -59q-165 0 -292 59t-196.5 162t-69.5 230q0 128 69.5 231t196 162t292.5 59q167 0 294 -59zM886.5 -110.5q112.5 52.5 173 142.5t60.5 201t-60.5 201.5t-173 143t-262.5 52.5t-262.5 -52.5
t-173 -143t-59.5 -201.5q-1 -110 59.5 -200.5t173 -143t262.5 -52.5t262.5 52.5zM865 444h66v-176l-45 -5q-56 56 -123.5 83t-154.5 27q-61 0 -111.5 -18t-80 -51t-29.5 -77q0 -41 28 -73t80 -50t121 -18q164 0 283 94l32 -56q-55 -46 -135.5 -76t-188.5 -30
q-90 0 -159 25.5t-107 73t-38 110.5q0 66 40.5 114t108 73.5t148.5 25.5q79 0 146 -24.5t119 -64.5v93z" />
    <glyph glyph-name="registered" unicode="&#xae;" 
d="M917 620q127 -60 196.5 -164t69.5 -232q0 -127 -69.5 -231t-196.5 -164t-294 -60q-165 0 -292 60t-196.5 164t-69.5 231q0 128 69.5 232t196.5 164t292 60q167 0 294 -60zM886.5 -122.5q112.5 53.5 173 144.5t60.5 202t-60.5 202.5t-173 145t-262.5 53.5
q-149 0 -262 -53.5t-173.5 -145t-59.5 -202.5q-1 -111 59.5 -202t173.5 -144.5t262 -53.5q150 0 262.5 53.5zM936 177h70v-17q0 -69 -40.5 -110.5t-105.5 -41.5q-49 0 -85 25.5t-78 72.5q-36 38 -59.5 56t-52.5 18h-112v1h-4v-86h130v-58l-319 -2v59h117v247h-117v61h493
q72 0 109 -31t37 -81q0 -45 -37.5 -77t-108.5 -32h-73q14 -8 28 -21l27 -26q29 -30 50.5 -44.5t51.5 -14.5q33 0 56 22.5t23 62.5v17zM469 239h304q31 0 51 13.5t20 37.5q0 25 -20 38t-51 13h-304v-102z" />
    <glyph glyph-name="section" unicode="&#xa7;" horiz-adv-x="1098" 
d="M966 83.5q-49 -42.5 -136 -64.5q67 -25 98 -62t31 -90q0 -60 -40.5 -104.5t-108 -67.5t-146.5 -23q-120 0 -220.5 37t-175.5 94v-119h-94v234l56 5q65 -72 180 -119.5t245 -47.5q83 0 140 26t57 77q0 36 -34 58t-113.5 36t-225.5 25q-201 15 -293 65t-92 138q0 64 49 107
t136 65q-65 26 -95.5 63.5t-30.5 89.5q0 60 39.5 104t106 67t145.5 23q121 0 221.5 -37t175.5 -95v118h93v-232l-56 -6q-68 77 -180 123t-245 46q-83 0 -138 -26t-55 -77q0 -36 33 -57.5t111 -35.5t225 -27q202 -18 294 -68.5t92 -137.5q0 -62 -49 -104.5zM858 86
q48 28 48 74q0 38 -31.5 64t-102 43t-189.5 28q-120 11 -201 28q-82 -9 -131 -38t-49 -75q0 -37 31.5 -62.5t102 -42.5t189.5 -27q119 -12 205 -30q80 10 128 38z" />
    <glyph glyph-name="trademark" unicode="&#x2122;" horiz-adv-x="1266" 
d="M50 686h440v-113h-50v74h-145v-207h87v-44h-227v44h88v207h-145v-74h-48v113zM1105 643v-204h85v-44h-199v44h62v188l-174 -235h-23l-176 236v-189h62v-44h-197v44h86v204h-86v43h146l179 -241l176 241h144v-43h-85z" />
    <glyph glyph-name="degree" unicode="&#xb0;" horiz-adv-x="463" 
d="M133 499.5q-46 21.5 -73 59.5t-27 86q0 49 27 86.5t73 58t100 20.5q89 0 143.5 -43.5t54.5 -120.5q0 -47 -25 -85.5t-70.5 -60.5t-102.5 -22q-54 0 -100 21.5zM324 571q35 30 35 75q0 47 -34 73.5t-93 26.5q-54 0 -90.5 -28t-36.5 -73q0 -44 37 -74t90 -30q57 0 92 30z
" />
    <glyph glyph-name="estimated" unicode="&#x212e;" horiz-adv-x="1038" 
d="M284 287v-161q48 -29 110.5 -44t132.5 -15q208 0 400 104l34 -71q-198 -113 -441 -113q-119 0 -220.5 37.5t-163 110t-61.5 173.5q0 104 64.5 178t171 111.5t231.5 37.5q124 0 221 -42t150 -109.5t53 -140.5q0 -31 -5 -54zM399 542q-65 -16 -115 -46v-137l482 2v141
q-45 27 -104.5 41.5t-126.5 14.5q-71 0 -136 -16zM177 286h-4q2 -16 4 -22v22z" />
    <glyph glyph-name="uni2113" unicode="&#x2113;" horiz-adv-x="639" 
d="M528 130l30 -75q-129 -68 -252 -68q-105 0 -166.5 56.5t-61.5 149.5q0 43 15 103l49 194q27 111 95 177.5t163 66.5q90 0 140.5 -51.5t50.5 -132.5q0 -76 -38 -138.5t-100 -98t-130 -35.5q-73 0 -130 40l-8 -33q-12 -48 -12 -78q0 -60 39.5 -96.5t110.5 -36.5
q93 0 205 56zM210 384q48 -31 105 -31q48 0 90 25.5t67.5 69t25.5 94.5q0 52 -27 82t-77 30q-54 0 -95 -43.5t-61 -118.5z" />
    <glyph glyph-name="asciicircum" unicode="^" horiz-adv-x="583" 
d="M461 429l-164 296l-174 -296h-98l245 384h56l231 -384h-96z" />
    <glyph glyph-name="dagger" unicode="&#x2020;" horiz-adv-x="619" 
d="M286 669q-2 14 -16 50q-17 42 -17 56q0 19 14 33.5t44 15.5q28 -1 43 -16t15 -33q0 -13 -18 -55q-16 -38 -18 -51l-5 -25h-39zM86.5 544.5q-15.5 14.5 -17.5 43.5q4 57 57 57q9 0 24 -5t30 -11l26 -9t27 -7l23 -3v-40l-23 -4q-18 -3 -53 -19l-24.5 -9.5t-29.5 -7.5
q-24 0 -39.5 14.5zM439 548q-38 16 -52 18l-25 4v40l25 3q16 2 51 16q16 6 31.5 11t24.5 5q54 0 55 -57q-1 -29 -16.5 -43.5t-38.5 -14.5q-13 0 -55 18zM267 174.5q-14 14.5 -14 33.5q0 15 8 57l8 50t11 97l9 123h39l9 -123q5 -61 23 -145q9 -47 9 -59q0 -18 -15 -33
t-43 -16q-30 1 -44 15.5z" />
    <glyph glyph-name="daggerdbl" unicode="&#x2021;" horiz-adv-x="660" 
d="M307 669q-2 14 -16 50q-17 42 -17 56q0 19 14 33.5t44 15.5q28 -1 43 -16t15 -33q0 -13 -18 -55q-16 -38 -18 -51l-5 -25h-39zM107.5 544.5q-15.5 14.5 -17.5 43.5q4 57 57 57q9 0 24 -5t30 -11l26 -9t27 -7l23 -3v-40l-23 -4q-18 -3 -53 -19l-24.5 -9.5t-29.5 -7.5
q-24 0 -39.5 14.5zM460 548q-38 16 -52 18l-25 4v40l25 3q16 2 51 16q16 6 31.5 11t24.5 5q54 0 55 -57q-1 -29 -16.5 -43.5t-38.5 -14.5q-13 0 -55 18zM307 383.5q-2 5.5 -3 10.5q-12 40 -12 60q0 22 12 60q1 5 3 10.5t3 11.5h39l7 -24q1 -4 6.5 -23t5.5 -35
q0 -15 -5.5 -34t-6.5 -24l-7 -24h-39q-1 6 -3 11.5zM90 320q2 29 17.5 43.5t39.5 14.5q10 0 29.5 -7.5l24.5 -9.5q35 -16 53 -19l23 -4v-40l-23 -3q-10 -1 -27 -7l-26 -9q-15 -6 -30 -11t-24 -5q-53 0 -57 57zM490.5 268q-15.5 5 -31.5 11q-35 14 -51 16l-25 3v40l25 4
q14 2 52 18q42 18 55 18q23 0 38.5 -14.5t16.5 -43.5q-1 -57 -55 -57q-9 0 -24.5 5zM288 100q-14 14 -14 33q0 14 16 56q14 32 17 51l3 24h39l5 -24q2 -15 18 -51q7 -16 12.5 -31.5t5.5 -24.5q0 -18 -15 -32.5t-43 -15.5q-30 1 -44 15z" />
    <glyph glyph-name="u1F621" unicode="&#x1f621;" 
d="M331 -159q-127 59 -196.5 162t-69.5 230q0 128 69.5 231t196 162t292.5 59q167 0 294 -59t196.5 -162t69.5 -231q0 -127 -69.5 -230t-196.5 -162t-294 -59q-165 0 -292 59zM886.5 -110.5q112.5 52.5 173 142.5t60.5 201t-60.5 201.5t-173 143t-262.5 52.5t-262.5 -52.5
t-173 -143t-59.5 -201.5q-1 -110 59.5 -200.5t173 -143t262.5 -52.5t262.5 52.5zM883.5 357q-45.5 21 -107.5 34l21 63q64 -22 111.5 -51.5t79.5 -76.5l-22 -27q-37 37 -82.5 58zM247 384q55 28 124 28q49 0 106 -13l-10 -65q-82 24 -135 24q-41 0 -77 -11zM323.5 169
q-18.5 18 -18.5 45q0 26 18.5 44.5t44.5 18.5q25 0 43.5 -18.5t18.5 -44.5q0 -27 -18 -45t-44 -18t-44.5 18zM835 169q-18 18 -18 45q0 26 18 44.5t44 18.5t44.5 -18.5t18.5 -44.5q0 -27 -18.5 -45t-44.5 -18t-44 18zM761.5 59.5q89.5 -21.5 152.5 -54.5l-9 -32
q-65 25 -150.5 40t-163.5 15t-142.5 -15t-105.5 -40l-7 32q38 34 106.5 55t148.5 21q81 0 170.5 -21.5z" />
    <glyph glyph-name="u1F60A" unicode="&#x1f60a;" 
d="M331 -159q-127 59 -196.5 162t-69.5 230q0 128 69.5 231t196 162t292.5 59q167 0 294 -59t196.5 -162t69.5 -231q0 -127 -69.5 -230t-196.5 -162t-294 -59q-165 0 -292 59zM886.5 -110.5q112.5 52.5 173 142.5t60.5 201t-60.5 201.5t-173 143t-262.5 52.5t-262.5 -52.5
t-173 -143t-59.5 -201.5q-1 -110 59.5 -200.5t173 -143t262.5 -52.5t262.5 52.5zM243 344q40 42 92.5 63.5t118.5 30.5l13 -65q-66 -4 -114 -17t-90 -43zM896 356q-48 13 -114 17l12 65q67 -9 119.5 -30.5t92.5 -63.5l-20 -31q-42 30 -90 43zM327.5 173.5
q-16.5 16.5 -16.5 40.5q0 23 16.5 39.5t40.5 16.5q23 0 39.5 -16.5t16.5 -39.5q0 -24 -16.5 -40.5t-39.5 -16.5q-24 0 -40.5 16.5zM838.5 173.5q-16.5 16.5 -16.5 40.5q0 23 16.5 39.5t39.5 16.5q24 0 40.5 -16.5t16.5 -39.5q0 -24 -16.5 -40.5t-40.5 -16.5
q-23 0 -39.5 16.5zM336 38l7 31q72 -27 139.5 -41t141.5 -14t142 14.5t139 40.5l9 -31q-142 -77 -290 -77q-146 0 -288 77z" />
    <glyph glyph-name="u1F610" unicode="&#x1f610;" 
d="M331 -159q-127 59 -196.5 162t-69.5 230q0 128 69.5 231t196 162t292.5 59q167 0 294 -59t196.5 -162t69.5 -231q0 -127 -69.5 -230t-196.5 -162t-294 -59q-165 0 -292 59zM886.5 -110.5q112.5 52.5 173 142.5t60.5 201t-60.5 201.5t-173 143t-262.5 52.5t-262.5 -52.5
t-173 -143t-59.5 -201.5q-1 -110 59.5 -200.5t173 -143t262.5 -52.5t262.5 52.5zM248 364q47 34 102.5 46.5t121.5 9.5l1 -66q-43 5 -75 5q-77 0 -136 -29zM851 359q-31 0 -76 -5l1 66q67 3 122.5 -9.5t102.5 -46.5l-14 -34q-61 29 -136 29zM327.5 173.5
q-16.5 16.5 -16.5 40.5q0 23 16.5 39.5t40.5 16.5q23 0 39.5 -16.5t16.5 -39.5q0 -24 -16.5 -40.5t-39.5 -16.5q-24 0 -40.5 16.5zM838.5 173.5q-16.5 16.5 -16.5 40.5q0 23 16.5 39.5t39.5 16.5q24 0 40.5 -16.5t16.5 -39.5q0 -24 -16.5 -40.5t-40.5 -16.5
q-23 0 -39.5 16.5zM482 -3q-60 3 -146 9v30q149 11 288 11q85 0 147.5 -2.5t142.5 -8.5v-30q-88 -6 -147.5 -9t-142.5 -3q-82 0 -142 3z" />
    <glyph glyph-name="u1F61E" unicode="&#x1f61e;" 
d="M331 -159q-127 59 -196.5 162t-69.5 230q0 128 69.5 231t196 162t292.5 59q167 0 294 -59t196.5 -162t69.5 -231q0 -127 -69.5 -230t-196.5 -162t-294 -59q-165 0 -292 59zM886.5 -110.5q112.5 52.5 173 142.5t60.5 201t-60.5 201.5t-173 143t-262.5 52.5t-262.5 -52.5
t-173 -143t-59.5 -201.5q-1 -110 59.5 -200.5t173 -143t262.5 -52.5t262.5 52.5zM243 344q40 42 92.5 63.5t118.5 30.5l13 -65q-66 -4 -114 -17t-90 -43zM896 356q-48 13 -114 17l12 65q67 -9 119.5 -30.5t92.5 -63.5l-20 -31q-42 30 -90 43zM327.5 173.5
q-16.5 16.5 -16.5 40.5q0 23 16.5 39.5t40.5 16.5q23 0 39.5 -16.5t16.5 -39.5q0 -24 -16.5 -40.5t-39.5 -16.5q-24 0 -40.5 16.5zM838.5 173.5q-16.5 16.5 -16.5 40.5q0 23 16.5 39.5t39.5 16.5q24 0 40.5 -16.5t16.5 -39.5q0 -24 -16.5 -40.5t-40.5 -16.5
q-23 0 -39.5 16.5zM914 5l-9 -32q-143 55 -281 55q-75 0 -142.5 -14t-138.5 -41l-7 32q143 76 288 76q147 0 290 -76z" />
    <glyph glyph-name="uni2120" unicode="&#x2120;" horiz-adv-x="1238" 
d="M409 532q42 -21 42 -61q0 -39 -38.5 -61t-99.5 -22q-52 0 -103 15t-91 41v-49h-46v106l32 -1q34 -33 89 -51t114 -18q42 0 64.5 9t22.5 27q0 19 -33.5 30.5t-123.5 17.5q-94 8 -129.5 31t-35.5 62q0 40 38 62t109 22q48 0 90 -14.5t74 -38.5v47h46v-103l-29 -1
q-28 31 -72.5 48.5t-99.5 17.5q-52 0 -76 -9.5t-24 -29.5q0 -19 29.5 -30.5t109.5 -16.5q99 -9 141 -30zM1077 643v-204h85v-44h-199v44h62v188l-173 -235h-25l-176 238v-191h64v-44h-198v44h86v204h-86v43h147l177 -242l177 242h144v-43h-85z" />
    <glyph glyph-name="u1F632" unicode="&#x1f632;" 
d="M331 -159q-127 59 -196.5 162t-69.5 230q0 128 69.5 231t196 162t292.5 59q167 0 294 -59t196.5 -162t69.5 -231q0 -127 -69.5 -230t-196.5 -162t-294 -59q-165 0 -292 59zM886.5 -110.5q112.5 52.5 173 142.5t60.5 201t-60.5 201.5t-173 143t-262.5 52.5t-262.5 -52.5
t-173 -143t-59.5 -201.5q-1 -110 59.5 -200.5t173 -143t262.5 -52.5t262.5 52.5zM252 335q36 45 86.5 70t115.5 40l16 -64q-64 -8 -111 -25t-86 -50zM890 356q-47 17 -111 25l15 64q65 -15 115.5 -40t87.5 -70l-21 -29q-39 33 -86 50zM322 167.5q-19 18.5 -19 46.5
q0 26 19 45.5t46 19.5q25 0 44 -19.5t19 -45.5q0 -27 -18.5 -46t-44.5 -19q-27 0 -46 18.5zM833 168q-19 19 -19 46q0 26 19 45.5t45 19.5q27 0 46 -19t19 -46q0 -28 -18.5 -46.5t-46.5 -18.5q-26 0 -45 19zM548 4v20q37 73 76 73q40 0 76 -73v-20q-35 -73 -76 -73
q-39 0 -76 73z" />
    <glyph glyph-name="ampersand.swsh" horiz-adv-x="1016" 
d="M1632 -197q-70 -92 -184.5 -142.5t-257.5 -50.5q-128 0 -254.5 47.5t-236.5 133t-191 197.5q-34 -3 -74 -3q-188 0 -283 53t-95 142q0 168 291 216q-3 35 -3 69q0 63 27.5 116t77.5 84.5t115 31.5q54 0 93.5 -20t60 -54t20.5 -75q0 -82 -71.5 -137.5t-214.5 -76.5
q27 -137 104 -261q97 15 167 52t106 89t36 111q0 37 -10 62.5t-28 51.5l84 28q20 -28 33.5 -63t13.5 -84q0 -68 -42 -133t-121.5 -114.5t-188.5 -71.5q111 -142 267 -226.5t317 -84.5q126 0 225.5 46t161.5 125zM476.5 576q-36.5 -41 -36.5 -111q0 -19 2 -55q200 36 200 134
q0 33 -20.5 53t-56.5 20q-52 0 -88.5 -41zM458 65q-72 123 -99 256q-111 -19 -160 -50t-49 -82q0 -56 69 -90t220 -34h19z" />
    <glyph glyph-name="uni0308" unicode="&#x308;" horiz-adv-x="606" 
d="M98 828q-21 16 -21 39q0 24 20.5 39t54.5 15t54.5 -15t20.5 -39q0 -23 -20.5 -39t-54.5 -16q-33 0 -54 16zM409.5 828q-21.5 16 -21.5 39q0 24 21 39t55 15q35 0 54.5 -15t19.5 -39q0 -23 -20 -39t-54 -16q-33 0 -54.5 16z" />
    <glyph glyph-name="uni0307" unicode="&#x307;" horiz-adv-x="357" 
d="M115.5 811q-23.5 17 -23.5 43q0 27 23.5 44t63.5 17q41 0 64 -17t23 -44q0 -26 -23.5 -43t-63.5 -17t-63.5 17z" />
    <glyph glyph-name="gravecomb" unicode="&#x300;" horiz-adv-x="639" 
d="M115 987l-47 -77l322 -166l29 42z" />
    <glyph glyph-name="acutecomb" unicode="&#x301;" horiz-adv-x="641" 
d="M166 744l322 166l-48 77l-303 -201z" />
    <glyph glyph-name="uni030B" unicode="&#x30b;" horiz-adv-x="678" 
d="M87 822l212 228l64 -63l-232 -206zM345 822l212 228l64 -63l-233 -206z" />
    <glyph glyph-name="caroncomb.alt" horiz-adv-x="319" 
d="M257 829q1 -167 -154 -287l-28 26q55 65 81 126t25 142z" />
    <glyph glyph-name="uni0302" unicode="&#x302;" horiz-adv-x="593" 
d="M66 789l201 162h59l202 -162l-21 -32l-211 125l-209 -125z" />
    <glyph glyph-name="uni030C" unicode="&#x30c;" horiz-adv-x="593" 
d="M528 931l-202 -163h-59l-201 163l21 32l210 -125l210 125z" />
    <glyph glyph-name="uni0306" unicode="&#x306;" horiz-adv-x="609" 
d="M196 814q-50 27 -81.5 70.5t-39.5 91.5l61 12q16 -52 64.5 -85.5t105.5 -33.5q56 0 104 33.5t64 85.5l61 -12q-8 -48 -39.5 -91.5t-81 -70.5t-109.5 -27q-59 0 -109 27z" />
    <glyph glyph-name="uni030A" unicode="&#x30a;" horiz-adv-x="516" 
d="M167.5 790.5q-41.5 18.5 -65.5 50t-24 70.5q0 41 24 72.5t65 49t91 17.5t91.5 -18t65.5 -50t24 -71q0 -41 -24 -72.5t-65.5 -49t-91.5 -17.5q-49 0 -90.5 18.5zM346 849.5q35 24.5 35 61.5q0 36 -35 61t-88 25q-52 0 -87 -24.5t-35 -61.5q0 -35 35.5 -60.5t86.5 -25.5
q53 0 88 24.5z" />
    <glyph glyph-name="tildecomb" unicode="&#x303;" horiz-adv-x="717" 
d="M422 801q-30 12 -73 36q-43 25 -69 37t-53 12q-34 0 -58 -25.5t-32 -75.5l-59 16q9 67 48.5 108t103.5 41q38 0 69 -12.5t78 -37.5q36 -22 62 -33.5t51 -11.5q36 0 59 25.5t31 71.5l58 -15q-9 -66 -48.5 -107t-102.5 -41q-35 0 -65 12z" />
    <glyph glyph-name="uni0304" unicode="&#x304;" horiz-adv-x="813" 
d="M706 829l-599 1v72l599 -2v-71z" />
    <glyph glyph-name="hookabovecomb" unicode="&#x309;" horiz-adv-x="400" 
d="M257 748q11 17 17 32t6 30q0 23 -20.5 38.5t-56.5 15.5q-55 0 -114 -36l-21 55q67 42 146 42q57 0 93 -26t36 -69q0 -33 -17 -62t-49 -61l-36 16z" />
    <glyph glyph-name="uni0312" unicode="&#x312;" horiz-adv-x="332" 
d="M113 966q35 47 95 91l25 -26q-96 -79 -106 -137q15 5 44 5q28 0 45.5 -13t17.5 -34q0 -23 -21.5 -38t-55.5 -15t-56.5 21.5t-22.5 57.5q0 41 35 88z" />
    <glyph glyph-name="uni0326" unicode="&#x326;" horiz-adv-x="362" 
d="M223 -278q-35 -47 -95 -91l-25 26q97 79 105 137q-15 -5 -43 -5t-45.5 13t-17.5 34q0 22 21.5 37.5t54.5 15.5q34 0 57 -21.5t23 -57.5q0 -41 -35 -88z" />
    <glyph glyph-name="uni0327" unicode="&#x327;" horiz-adv-x="456" 
d="M43 -207l24 51q33 -16 78 -26t94 -10q48 0 74 10.5t26 29.5t-21.5 29.5t-60.5 10.5q-35 0 -87 -4l-23 -1l-7 9l54 139h56l-38 -97q40 2 63 2q58 0 94 -23.5t36 -64.5q0 -44 -44 -70t-125 -26q-111 0 -193 41z" />
    <glyph glyph-name="uni0328" unicode="&#x328;" horiz-adv-x="482" 
d="M174.5 -43q-32.5 -26 -32.5 -61q0 -29 29 -44.5t71 -15.5q73 0 139 43l23 -54q-79 -50 -169 -50q-66 0 -111.5 28t-45.5 77q0 54 42 90t106 50l27 -24q-46 -13 -78.5 -39z" />
    <glyph glyph-name="uni0335" unicode="&#x335;" horiz-adv-x="829" 
d="M798 269h-738v84h738v-84z" />
    <glyph glyph-name="uni0337" unicode="&#x337;" horiz-adv-x="504" 
d="M100 88l223 428h81l-223 -428h-81z" />
    <glyph glyph-name="uni0338" unicode="&#x338;" horiz-adv-x="636" 
d="M19 -105l484 845h92l-483 -845h-93z" />
    <glyph glyph-name="uni02BB" unicode="&#x2bb;" horiz-adv-x="346" 
d="M112 -158.5q34 52.5 83 81.5l24 -26q-38 -25 -61.5 -63.5t-29.5 -71.5q20 7 51 7q30 0 49 -14.5t19 -37.5q0 -24 -23 -40t-60 -16q-39 0 -62.5 22.5t-23.5 62.5q0 43 34 95.5z" />
    <glyph glyph-name="uni02BA" unicode="&#x2ba;" horiz-adv-x="675" 
d="M303 721l-106 -297l-61 6l64 306zM559 720l-105 -297l-62 7l65 306z" />
    <glyph glyph-name="uni02B9" unicode="&#x2b9;" horiz-adv-x="432" 
d="M317 715l-122 -292l-59 12l80 304z" />
    <glyph glyph-name="neutral.rev" 
d="M331 -159q-127 59 -196.5 162t-69.5 230q0 128 69.5 231t196 162t292.5 59q167 0 294 -59t196.5 -162t69.5 -231q0 -127 -69.5 -230t-196.5 -162t-294 -59q-165 0 -292 59zM398 359q32 0 75 -5l-1 66q-66 3 -121.5 -9.5t-102.5 -46.5l14 -34q59 29 136 29zM1001 364
q-47 34 -102.5 46.5t-122.5 9.5l-1 -66q45 5 76 5q75 0 136 -29zM407.5 173.5q16.5 16.5 16.5 40.5q0 23 -16.5 39.5t-39.5 16.5q-24 0 -40.5 -16.5t-16.5 -39.5q0 -24 16.5 -40.5t40.5 -16.5q23 0 39.5 16.5zM918.5 173.5q16.5 16.5 16.5 40.5q0 23 -16.5 39.5t-40.5 16.5
q-23 0 -39.5 -16.5t-16.5 -39.5q0 -24 16.5 -40.5t39.5 -16.5q24 0 40.5 16.5zM766.5 -3q59.5 3 147.5 9v30q-80 6 -142.5 8.5t-147.5 2.5q-139 0 -288 -11v-30q86 -6 146 -9t142 -3q83 0 142.5 3z" />
    <glyph glyph-name="happy.rev" 
d="M331 -159q-127 59 -196.5 162t-69.5 230q0 128 69.5 231t196 162t292.5 59q167 0 294 -59t196.5 -162t69.5 -231q0 -127 -69.5 -230t-196.5 -162t-294 -59q-165 0 -292 59zM353 356q48 13 114 17l-13 65q-66 -9 -118.5 -30.5t-92.5 -63.5l20 -31q42 30 90 43zM1006 344
q-40 42 -92.5 63.5t-119.5 30.5l-12 -65q66 -4 114 -17t90 -43zM407.5 173.5q16.5 16.5 16.5 40.5q0 23 -16.5 39.5t-39.5 16.5q-24 0 -40.5 -16.5t-16.5 -39.5q0 -24 16.5 -40.5t40.5 -16.5q23 0 39.5 16.5zM918.5 173.5q16.5 16.5 16.5 40.5q0 23 -16.5 39.5t-40.5 16.5
q-23 0 -39.5 -16.5t-16.5 -39.5q0 -24 16.5 -40.5t39.5 -16.5q24 0 40.5 16.5zM914 38l-9 31q-71 -26 -139 -40.5t-142 -14.5t-141.5 14t-139.5 41l-7 -31q142 -77 288 -77q148 0 290 77z" />
    <glyph glyph-name="sad.rev" 
d="M331 -159q-127 59 -196.5 162t-69.5 230q0 128 69.5 231t196 162t292.5 59q167 0 294 -59t196.5 -162t69.5 -231q0 -127 -69.5 -230t-196.5 -162t-294 -59q-165 0 -292 59zM353 356q48 13 114 17l-13 65q-66 -9 -118.5 -30.5t-92.5 -63.5l20 -31q42 30 90 43zM1006 344
q-40 42 -92.5 63.5t-119.5 30.5l-12 -65q66 -4 114 -17t90 -43zM407.5 173.5q16.5 16.5 16.5 40.5q0 23 -16.5 39.5t-39.5 16.5q-24 0 -40.5 -16.5t-16.5 -39.5q0 -24 16.5 -40.5t40.5 -16.5q23 0 39.5 16.5zM918.5 173.5q16.5 16.5 16.5 40.5q0 23 -16.5 39.5t-40.5 16.5
q-23 0 -39.5 -16.5t-16.5 -39.5q0 -24 16.5 -40.5t39.5 -16.5q24 0 40.5 16.5zM481.5 14q67.5 14 142.5 14q138 0 281 -55l9 32q-143 76 -290 76q-145 0 -288 -76l7 -32q71 27 138.5 41z" />
    <glyph glyph-name="angry.rev" 
d="M331 -159q-127 59 -196.5 162t-69.5 230q0 128 69.5 231t196 162t292.5 59q167 0 294 -59t196.5 -162t69.5 -231q0 -127 -69.5 -230t-196.5 -162t-294 -59q-165 0 -292 59zM467 378q-65 3 -113.5 16.5t-90.5 44.5l-20 -31q41 -43 94 -65t117 -30zM912 343q53 22 94 65
l-20 31q-42 -31 -90.5 -44.5t-113.5 -16.5l12 -65q65 8 118 30zM407.5 173.5q16.5 16.5 16.5 40.5q0 23 -16.5 39.5t-39.5 16.5q-24 0 -40.5 -16.5t-16.5 -39.5q0 -24 16.5 -40.5t40.5 -16.5q23 0 39.5 16.5zM918.5 173.5q16.5 16.5 16.5 40.5q0 23 -16.5 39.5t-40.5 16.5
q-23 0 -39.5 -16.5t-16.5 -39.5q0 -24 16.5 -40.5t39.5 -16.5q24 0 40.5 16.5zM481.5 14q67.5 14 142.5 14q138 0 281 -55l9 32q-143 76 -290 76q-145 0 -288 -76l7 -32q71 27 138.5 41z" />
    <glyph glyph-name="surprised.rev" 
d="M331 -159q-127 59 -196.5 162t-69.5 230q0 128 69.5 231t196 162t292.5 59q167 0 294 -59t196.5 -162t69.5 -231q0 -127 -69.5 -230t-196.5 -162t-294 -59q-165 0 -292 59zM359 356q47 17 111 25l-16 64q-65 -15 -115.5 -40t-86.5 -70l21 -29q39 33 86 50zM997 335
q-37 45 -87.5 70t-115.5 40l-15 -64q64 -8 111 -25t86 -50zM412.5 168q18.5 19 18.5 46q0 26 -19 45.5t-44 19.5q-27 0 -46 -19.5t-19 -45.5q0 -28 19 -46.5t46 -18.5q26 0 44.5 19zM924.5 167.5q18.5 18.5 18.5 46.5q0 27 -19 46t-46 19q-26 0 -45 -19.5t-19 -45.5
q0 -27 19 -46t45 -19q28 0 46.5 18.5zM700 4v20q-36 73 -76 73q-39 0 -76 -73v-20q37 -73 76 -73q41 0 76 73z" />
    <glyph glyph-name="afraid.rev" 
d="M331 -159q-127 59 -196.5 162t-69.5 230q0 128 69.5 231t196 162t292.5 59q167 0 294 -59t196.5 -162t69.5 -231q0 -127 -69.5 -230t-196.5 -162t-294 -59q-165 0 -292 59zM359 356q47 17 111 25l-16 64q-65 -15 -115.5 -40t-86.5 -70l21 -29q39 33 86 50zM997 335
q-37 45 -87.5 70t-115.5 40l-15 -64q64 -8 111 -25t86 -50zM407.5 173.5q16.5 16.5 16.5 40.5q0 23 -16.5 39.5t-39.5 16.5q-24 0 -40.5 -16.5t-16.5 -39.5q0 -24 16.5 -40.5t40.5 -16.5q23 0 39.5 16.5zM918.5 173.5q16.5 16.5 16.5 40.5q0 23 -16.5 39.5t-40.5 16.5
q-23 0 -39.5 -16.5t-16.5 -39.5q0 -24 16.5 -40.5t39.5 -16.5q24 0 40.5 16.5zM766.5 -3q59.5 3 147.5 9v30q-80 6 -142.5 8.5t-147.5 2.5q-139 0 -288 -11v-30q86 -6 146 -9t142 -3q83 0 142.5 3z" />
    <glyph glyph-name="disgusted.rev" 
d="M331 -159q-127 59 -196.5 162t-69.5 230q0 128 69.5 231t196 162t292.5 59q167 0 294 -59t196.5 -162t69.5 -231q0 -127 -69.5 -230t-196.5 -162t-294 -59q-165 0 -292 59zM988 326q-32 47 -79.5 76.5t-111.5 51.5l-21 -63q62 -13 107.5 -34t82.5 -58zM477 399
q-57 13 -106 13q-69 0 -124 -28l8 -37q36 11 77 11q53 0 135 -24zM412 169q18 18 18 45q0 26 -18.5 44.5t-43.5 18.5q-26 0 -44.5 -18.5t-18.5 -44.5q0 -27 18.5 -45t44.5 -18t44 18zM923.5 169q18.5 18 18.5 45q0 26 -18.5 44.5t-44.5 18.5t-44 -18.5t-18 -44.5
q0 -27 18 -45t44 -18t44.5 18zM448.5 13q64.5 15 142.5 15t163.5 -15t150.5 -40l9 32q-63 33 -152.5 54.5t-170.5 21.5q-80 0 -148.5 -21t-106.5 -55l7 -32q41 25 105.5 40z" />
    </font>
</defs>
</svg>
